<svg width="375" height="250" viewBox="0 0 375 250" fill="none" xmlns="http://www.w3.org/2000/svg">
<g clip-path="url(#clip0_219_1407)">
<path d="M280.254 120.676C280.254 124.175 280.107 127.639 279.813 131.066C279.582 133.742 279.266 136.394 278.865 139.022C278.44 141.804 277.918 144.553 277.301 147.268V147.272C276.898 149.059 276.454 150.831 275.972 152.589C274.571 157.699 272.828 162.709 270.757 167.586C270.306 168.647 269.841 169.7 269.361 170.747C267.546 174.709 265.514 178.569 263.274 182.307C256.991 192.806 249.148 202.288 240.015 210.427C239.026 211.306 238.024 212.171 237.008 213.021C215.444 231.043 188.226 240.896 160.127 240.853C93.7819 240.853 40 187.049 40 120.676C40 54.3038 93.7819 0.499722 160.127 0.499722C187.259 0.456924 213.598 9.64437 234.822 26.5536C235.817 27.3423 236.799 28.1487 237.769 28.9728C242.501 32.988 246.918 37.3615 250.979 42.0545H250.983C269.901 63.8711 280.297 91.7945 280.254 120.676Z" fill="#F2F2F2"/>
<path d="M75.4614 141.436C64.0178 134.622 55.3807 121.888 56.502 108.613C66.9642 118.63 80.631 124.623 95.0844 125.53C100.66 125.859 106.895 125.645 110.999 129.435C113.553 131.793 114.742 135.343 114.937 138.814C115.132 142.285 114.437 145.738 113.745 149.145L113.983 149.98C100.666 150.03 86.9049 148.249 75.4614 141.436Z" fill="#E6E6E6"/>
<path d="M56.7811 108.599C61.3662 118.627 68.9931 126.954 78.5786 132.399C80.6393 133.553 82.83 134.544 85.1581 135.004C87.4308 135.434 89.7773 135.248 91.9538 134.465C93.9979 133.775 96.009 132.833 98.185 132.653C100.479 132.462 102.602 133.348 104.27 134.898C106.312 136.795 107.55 139.313 108.675 141.817C109.925 144.598 111.178 147.506 113.574 149.505C113.864 149.747 113.471 150.184 113.181 149.942C109.014 146.463 108.333 140.637 105.002 136.54C103.447 134.628 101.308 133.173 98.7656 133.212C96.5427 133.245 94.468 134.215 92.4044 134.931C90.2375 135.683 88.0668 136.036 85.7792 135.706C83.4391 135.367 81.205 134.46 79.1239 133.363C74.4233 130.843 70.1481 127.598 66.4549 123.748C62.2155 119.378 58.7547 114.315 56.222 108.778C56.0654 108.435 56.6255 108.258 56.7811 108.599Z" fill="white"/>
<path d="M75.389 130.827C74.2575 132.312 72.6354 133.346 70.8121 133.745C68.9888 134.144 67.0832 133.882 65.4356 133.005C65.1029 132.826 65.3646 132.3 65.6979 132.479C67.2306 133.299 69.0057 133.543 70.7028 133.168C72.3998 132.793 73.907 131.824 74.9524 130.435C75.1799 130.133 75.6152 130.528 75.389 130.827Z" fill="white"/>
<path d="M90.9635 134.951C90.4873 131.164 88.6019 127.696 85.6832 125.238C85.3939 124.995 85.7865 124.558 86.0755 124.801C89.108 127.365 91.0627 130.978 91.5496 134.92C91.5957 135.296 91.0094 135.325 90.9635 134.951Z" fill="white"/>
<path d="M62.9434 119.103C63.5009 118.62 63.9296 118.005 64.1911 117.315C64.4526 116.625 64.5387 115.881 64.4417 115.15C64.3908 114.775 64.9773 114.746 65.0278 115.118C65.1313 115.927 65.0351 116.749 64.7479 117.512C64.4606 118.275 63.991 118.956 63.38 119.495C63.3266 119.551 63.2541 119.584 63.1771 119.588C63.1002 119.593 63.0245 119.567 62.9655 119.517C62.908 119.465 62.8734 119.392 62.8693 119.315C62.8651 119.237 62.8918 119.161 62.9434 119.103Z" fill="white"/>
<path d="M93.5439 82.8945C93.5823 83.1278 93.6207 83.361 93.6636 83.5964C94.1965 86.7294 94.9829 89.814 96.0151 92.8195C96.0912 93.0532 96.1719 93.2888 96.2546 93.5198C98.8185 100.734 102.699 107.41 107.699 113.208C109.691 115.513 111.855 117.663 114.173 119.639C117.374 122.369 121.062 125.074 123.114 128.598C123.332 128.964 123.528 129.342 123.699 129.731L114.982 149.624C114.94 149.66 114.902 149.697 114.859 149.733L114.548 150.543C114.421 150.449 114.292 150.349 114.165 150.256C114.091 150.202 114.019 150.144 113.946 150.09C113.897 150.052 113.849 150.014 113.803 149.984C113.787 149.971 113.771 149.959 113.759 149.948C113.713 149.917 113.674 149.884 113.632 149.855C112.908 149.299 112.186 148.737 111.466 148.169C111.462 148.167 111.462 148.167 111.459 148.161C105.99 143.819 100.834 138.983 96.5765 133.517C96.4485 133.353 96.3158 133.187 96.1917 133.013C94.2862 130.539 92.586 127.913 91.1081 125.162C90.3037 123.653 89.5762 122.104 88.9283 120.521C87.2623 116.428 86.25 112.099 85.9288 107.691C85.2897 98.9051 87.4665 90.0122 93.1079 83.3958C93.2523 83.2267 93.3949 83.0617 93.5439 82.8945Z" fill="#E6E6E6"/>
<path d="M93.7766 83.0499C91.4026 93.8184 92.4805 105.061 96.8573 115.182C97.8081 117.345 98.9609 119.455 100.543 121.225C102.098 122.938 104.084 124.202 106.293 124.888C108.34 125.568 110.513 126.027 112.359 127.194C114.305 128.424 115.468 130.409 115.867 132.652C116.355 135.396 115.828 138.153 115.219 140.83C114.544 143.802 113.795 146.879 114.504 149.919C114.59 150.287 114.014 150.399 113.928 150.031C112.694 144.743 115.657 139.682 115.463 134.404C115.372 131.941 114.539 129.49 112.486 127.99C110.691 126.678 108.451 126.203 106.372 125.532C104.19 124.827 102.244 123.801 100.616 122.159C98.9517 120.48 97.7141 118.409 96.7122 116.281C94.4761 111.437 93.0152 106.271 92.3831 100.973C91.6282 94.9303 91.9121 88.803 93.2225 82.8561C93.3037 82.4881 93.8573 82.6843 93.7766 83.0499Z" fill="white"/>
<path d="M95.2563 112.006C93.4592 112.51 91.5416 112.359 89.8458 111.579C88.1501 110.799 86.7866 109.442 85.9988 107.749C85.8406 107.406 86.366 107.144 86.5245 107.488C87.2551 109.065 88.5253 110.33 90.1059 111.053C91.6865 111.775 93.4733 111.909 95.1439 111.43C95.507 111.326 95.6173 111.903 95.2563 112.006Z" fill="white"/>
<path d="M105.21 124.68C107.109 121.369 107.69 117.464 106.839 113.744C106.755 113.375 107.331 113.263 107.415 113.631C108.294 117.505 107.68 121.567 105.697 125.008C105.507 125.335 105.022 125.006 105.21 124.68Z" fill="white"/>
<path d="M92.3752 95.1486C93.1111 95.0985 93.8231 94.8663 94.4472 94.4729C95.0712 94.0795 95.5879 93.5372 95.9507 92.8947C96.1357 92.5646 96.6213 92.8948 96.4375 93.2227C96.0333 93.9307 95.462 94.5289 94.7735 94.9651C94.085 95.4013 93.3001 95.6622 92.4876 95.7249C92.4115 95.7373 92.3336 95.7202 92.2696 95.6771C92.2057 95.634 92.1605 95.5682 92.1434 95.493C92.1289 95.4166 92.1451 95.3376 92.1885 95.2731C92.2319 95.2086 92.299 95.1639 92.3752 95.1486Z" fill="white"/>
<path d="M123.213 28.3534L137.916 200.541L108.51 202.753V30.5441C112.014 28.2246 117.044 27.8617 123.213 28.3534Z" fill="#CCCCCC"/>
<path d="M195.79 28.3534L181.087 200.541L210.493 202.753V30.5441C206.989 28.2246 201.959 27.8617 195.79 28.3534Z" fill="#CCCCCC"/>
<path d="M206.09 209.87H112.6C111.101 209.868 109.664 209.272 108.604 208.211C107.544 207.151 106.947 205.713 106.946 204.213V33.0712C106.948 31.5715 107.544 30.1337 108.604 29.0732C109.664 28.0128 111.101 27.4163 112.6 27.4146H206.09C207.589 27.4163 209.026 28.0128 210.086 29.0732C211.146 30.1337 211.742 31.5715 211.744 33.0712V204.213C211.743 205.713 211.146 207.151 210.086 208.211C209.026 209.272 207.589 209.868 206.09 209.87ZM112.6 29.2923C111.599 29.2934 110.639 29.6919 109.93 30.4003C109.222 31.1088 108.824 32.0693 108.823 33.0712V204.213C108.824 205.215 109.222 206.176 109.93 206.884C110.639 207.593 111.599 207.991 112.6 207.992H206.09C207.091 207.991 208.051 207.593 208.76 206.884C209.468 206.176 209.866 205.215 209.867 204.213V33.0712C209.866 32.0693 209.468 31.1088 208.76 30.4004C208.051 29.6919 207.091 29.2934 206.09 29.2923L112.6 29.2923Z" fill="#CCCCCC"/>
<path d="M210.806 55.8939H107.884V57.7716H210.806V55.8939Z" fill="#CCCCCC"/>
<path d="M210.806 87.1898H107.884V89.0676H210.806V87.1898Z" fill="#CCCCCC"/>
<path d="M141.283 28.3534H139.406V113.791H141.283V28.3534Z" fill="#CCCCCC"/>
<path d="M179.284 28.3534H177.407V113.791H179.284V28.3534Z" fill="#CCCCCC"/>
<path d="M222.537 215.034H99.2815C97.0413 215.034 94.8929 214.144 93.3089 212.559C91.7249 210.974 90.835 208.825 90.835 206.584C90.835 204.343 91.7249 202.194 93.3089 200.609C94.8929 199.024 97.0413 198.134 99.2815 198.134H222.537C224.777 198.134 226.925 199.024 228.509 200.609C230.093 202.194 230.983 204.343 230.983 206.584C230.983 208.825 230.093 210.974 228.509 212.559C226.925 214.144 224.777 215.034 222.537 215.034Z" fill="#CCCCCC"/>
<path d="M210.806 109.41H108.51V115.669H210.806V109.41Z" fill="#CCCCCC"/>
<path d="M141.575 129.33L141.445 129.267C134.471 125.897 125.339 125.9 111.834 129.278L111.69 129.315L111.647 129.172C110.218 124.486 108.6 119.178 111.64 116.567C111.683 108.904 118.402 102.681 126.655 102.681C134.906 102.681 141.624 108.9 141.669 116.561C146.192 120.021 144.036 125.133 141.648 129.206L141.575 129.33Z" fill="#2F2E41"/>
<path d="M184.436 112.921C184.311 113.542 184.051 114.128 183.676 114.638C183.3 115.148 182.817 115.569 182.261 115.872C181.704 116.174 181.089 116.352 180.457 116.39C179.825 116.429 179.192 116.329 178.603 116.097L153.959 140.872L151.76 133.18L176.236 110.172C176.692 109.208 177.485 108.445 178.465 108.026C179.446 107.608 180.546 107.564 181.557 107.903C182.567 108.242 183.419 108.94 183.949 109.865C184.48 110.79 184.653 111.877 184.436 112.921Z" fill="#FFB6B6"/>
<path d="M123.528 136.773C123.528 136.773 121.292 141.842 126.809 144.968C132.326 148.094 151.608 143.775 154.737 143.172C157.866 142.569 169.551 125.074 169.551 125.074L167.899 116.494L152.401 129.953L123.528 136.773Z" fill="#1A3B5D"/>
<path d="M119.459 164.804L119.772 170.75C119.772 170.75 118.849 176.017 119.608 177.154C120.362 178.285 140.928 178.428 140.928 178.428C140.928 178.428 142.286 171.099 143.457 164.685L119.459 164.804Z" fill="#FFB6B6"/>
<path d="M178.589 243.426L182.888 242.557L181.657 225.184L175.312 226.466L178.589 243.426Z" fill="#FFB6B6"/>
<path d="M184.747 220.817L188.744 219.019L183.559 202.396L177.66 205.05L184.747 220.817Z" fill="#FFB6B6"/>
<path d="M188.229 211.45L180.703 215.714L162.142 185.875C149.112 194.657 136.371 198.863 123.526 201.107C119.183 201.881 114.756 201.489 113.922 197.067C113.883 196.86 113.852 196.652 113.829 196.443C113.316 191.613 119.321 185.422 120.085 179.513L136.521 178.526L138.548 181.126L157.556 169.435C161.378 167.084 166.406 168.355 168.785 172.275C168.911 172.482 169.028 172.694 169.135 172.911L188.229 211.45Z" fill="#2F2E41"/>
<path d="M183.623 231.523L175.011 232.323L159.396 200.376C143.913 203.04 129.305 203.894 116.67 200.671C112.393 199.595 109.778 195.176 110.83 190.801C110.879 190.597 110.936 190.394 111 190.194C112.513 185.578 116.471 182.313 119.589 177.236L142.369 177.582L139.825 186.365L161.953 183.5C166.403 182.924 170.467 186.146 171.031 190.698C171.06 190.938 171.08 191.179 171.089 191.421L183.623 231.523Z" fill="#2F2E41"/>
<path d="M128.354 124.788C133.462 124.788 137.603 120.645 137.603 115.535C137.603 110.424 133.462 106.281 128.354 106.281C123.245 106.281 119.104 110.424 119.104 115.535C119.104 120.645 123.245 124.788 128.354 124.788Z" fill="#FFB6B6"/>
<path d="M122.931 128.129L131.412 129.127C131.77 129.169 132.105 129.322 132.372 129.564C132.639 129.805 132.824 130.125 132.901 130.477L134.249 136.651L142.657 146.556C142.657 146.556 145.676 152.22 144.544 158.638C143.412 165.057 142.914 169.826 142.914 169.826C142.914 169.826 120.361 178.286 119.606 177.153C118.851 176.02 118.606 170.875 118.606 170.875L115.587 137.273C115.587 137.273 118.983 131.61 120.87 131.61C122.088 131.569 121.932 128.827 122.931 128.129Z" fill="#1A3B5D"/>
<path d="M143.144 171.892C144.333 171.892 145.297 170.734 145.297 169.306C145.297 167.879 144.333 166.721 143.144 166.721C141.954 166.721 140.99 167.879 140.99 169.306C140.99 170.734 141.954 171.892 143.144 171.892Z" fill="#1A3B5D"/>
<path d="M176.455 238.953L183.01 235.666L184.245 238.55L192.534 240.226C192.944 240.309 193.316 240.52 193.597 240.829C193.877 241.139 194.052 241.53 194.095 241.946C194.138 242.361 194.046 242.78 193.835 243.14C193.623 243.5 193.302 243.783 192.918 243.948L184.909 247.382L182.307 245.122L182.99 248.205L179.97 249.5L176.455 238.953Z" fill="#2F2E41"/>
<path d="M182.871 219.434L189.367 216.032L190.653 218.894L198.97 220.424C199.381 220.499 199.757 220.704 200.043 221.009C200.329 221.313 200.511 221.701 200.561 222.116C200.611 222.531 200.527 222.951 200.322 223.314C200.117 223.678 199.801 223.967 199.42 224.138L191.472 227.713L188.831 225.499L189.568 228.57L186.571 229.918L182.871 219.434Z" fill="#2F2E41"/>
<path d="M123.069 112.632C120.625 112.636 118.24 111.883 116.241 110.477L116.174 110.43V110.349C116.177 107.984 117.117 105.717 118.789 104.045C120.46 102.373 122.726 101.432 125.09 101.429H128.844C131.208 101.432 133.474 102.373 135.145 104.045C136.817 105.717 137.757 107.984 137.76 110.349C137.757 110.89 137.544 111.409 137.164 111.795C136.785 112.181 136.27 112.404 135.729 112.415L123.28 112.63C123.21 112.631 123.139 112.632 123.069 112.632Z" fill="#2F2E41"/>
<path d="M138.385 108.636C139.582 107.944 139.782 106.049 138.832 104.403C137.882 102.756 136.141 101.982 134.944 102.673C133.747 103.364 133.547 105.26 134.497 106.906C135.448 108.553 137.188 109.327 138.385 108.636Z" fill="#2F2E41"/>
<path d="M119.665 106.799C121.008 105.455 121.306 103.572 120.328 102.594C119.351 101.617 117.469 101.914 116.125 103.258C114.781 104.603 114.484 106.485 115.462 107.463C116.439 108.441 118.321 108.143 119.665 106.799Z" fill="#2F2E41"/>
<path d="M201.527 191.405H192.294C192.086 191.405 191.88 191.45 191.691 191.537C191.502 191.625 191.334 191.753 191.2 191.912C190.859 191.849 190.509 191.868 190.177 191.967C189.845 192.066 189.542 192.243 189.291 192.482C189.041 192.722 188.851 193.017 188.737 193.344C188.623 193.671 188.588 194.02 188.635 194.363C188.682 194.707 188.81 195.034 189.007 195.318C189.205 195.602 189.468 195.835 189.773 195.998C190.079 196.162 190.418 196.25 190.765 196.256C191.111 196.262 191.453 196.186 191.765 196.034L192.53 198.524C192.621 198.819 192.804 199.077 193.052 199.26C193.3 199.444 193.601 199.542 193.909 199.542H199.912C200.22 199.542 200.521 199.443 200.769 199.26C201.017 199.077 201.2 198.819 201.291 198.524L202.906 193.273C202.972 193.057 202.987 192.829 202.949 192.606C202.911 192.384 202.821 192.173 202.687 191.991C202.553 191.81 202.378 191.662 202.177 191.56C201.975 191.458 201.752 191.405 201.527 191.405ZM190.81 195.63C190.395 195.63 189.998 195.466 189.704 195.172C189.411 194.879 189.246 194.481 189.246 194.066C189.246 193.651 189.411 193.253 189.704 192.959C189.998 192.666 190.395 192.501 190.81 192.501C190.839 192.501 190.865 192.508 190.894 192.509C190.831 192.761 190.839 193.025 190.916 193.273L191.576 195.422C191.343 195.557 191.079 195.629 190.81 195.63Z" fill="#3F3D56"/>
<path d="M160.3 184.612C159.67 184.67 159.034 184.59 158.438 184.376C157.842 184.162 157.3 183.819 156.851 183.373C156.401 182.927 156.055 182.388 155.836 181.794C155.618 181.199 155.532 180.564 155.585 179.933L124.791 163.424L131.526 159.109L160.58 175.965C161.634 176.125 162.592 176.666 163.274 177.485C163.956 178.305 164.314 179.347 164.279 180.413C164.245 181.478 163.82 182.495 163.087 183.269C162.354 184.043 161.362 184.521 160.3 184.612Z" fill="#FFB6B6"/>
<path d="M119.985 133.084C119.985 133.084 114.49 132.396 113.08 138.58C111.669 144.764 121.337 162.004 122.812 164.829C124.287 167.655 144.392 173.834 144.392 173.834L152.134 169.789L134.8 158.798L119.985 133.084Z" fill="#1A3B5D"/>
<path d="M158.719 107.532H160.596C161.509 107.532 162.384 107.895 163.03 108.541C163.675 109.186 164.037 110.062 164.037 110.975H155.278C155.278 110.062 155.641 109.186 156.286 108.541C156.931 107.895 157.807 107.532 158.719 107.532Z" fill="#CCCCCC"/>
<path d="M99.2007 43.3021C109.471 43.3021 117.796 34.9733 117.796 24.6992C117.796 14.4251 109.471 6.09628 99.2007 6.09628C88.9308 6.09628 80.6054 14.4251 80.6054 24.6992C80.6054 34.9733 88.9308 43.3021 99.2007 43.3021Z" fill="#FF6584"/>
<path d="M156.135 23.7297C151.214 18.5651 145.498 13.8536 138.732 11.3639C136.847 10.6675 134.893 10.1762 132.903 9.89855C132.887 9.89636 132.872 9.8996 132.856 9.8983C132.824 9.88996 132.791 9.88351 132.758 9.879C129.975 9.5243 127.15 9.69492 124.43 10.382C123.099 10.716 121.802 11.1682 120.552 11.7334C119.298 12.3455 118.083 13.0345 116.913 13.7964C114.438 15.2785 111.713 16.2955 108.873 16.7972C107.447 17.054 106.003 17.1958 104.554 17.2212C103.297 17.2464 102.112 17.2901 100.921 17.7444C99.6492 18.2229 98.5066 18.9923 97.5846 19.991C96.6625 20.9898 95.9866 22.1904 95.6107 23.4969C95.5817 23.6132 95.5905 23.7358 95.6356 23.8469C95.6808 23.9579 95.7601 24.0517 95.862 24.1148C96.1842 24.3456 96.4982 24.6075 96.8366 24.8131C97.1377 24.9509 97.4593 25.0387 97.7886 25.0728C98.3267 25.1864 98.8655 25.2967 99.4049 25.4036C101.392 25.7976 103.388 26.1463 105.392 26.4498C109.446 27.0638 113.523 27.4964 117.622 27.7474C125.832 28.245 134.071 27.9972 142.237 27.0073C146.826 26.4512 151.384 25.6625 155.893 24.6442C155.985 24.6175 156.068 24.5677 156.134 24.4995C156.2 24.4314 156.248 24.3472 156.272 24.2552C156.297 24.1632 156.297 24.0664 156.273 23.9744C156.249 23.8823 156.201 23.798 156.135 23.7297Z" fill="#E6E6E6"/>
<path d="M100.083 36.1678C98.1985 35.4714 96.2443 34.9801 94.2544 34.7024C94.2384 34.7003 94.2232 34.7035 94.2073 34.7022C94.1749 34.6939 94.1421 34.6874 94.109 34.6829C91.3259 34.3282 88.501 34.4988 85.7808 35.1859C84.4505 35.5199 83.1528 35.9721 81.903 36.5373C80.6489 37.1494 79.4337 37.8384 78.2644 38.6002C75.7894 40.0824 73.0644 41.0994 70.2238 41.6011C68.798 41.8579 67.3539 41.9997 65.9053 42.0251C64.6485 42.0503 63.4632 42.094 62.2723 42.5483C61.0003 43.0268 59.8577 43.7962 58.9356 44.7949C58.0136 45.7937 57.3377 46.9942 56.9618 48.3008C56.9328 48.4171 56.9415 48.5397 56.9867 48.6507C57.0319 48.7618 57.1112 48.8556 57.2131 48.9187C57.5352 49.1495 57.8493 49.4113 58.1877 49.617C58.4888 49.7548 58.8104 49.8426 59.1397 49.8767C59.6778 49.9903 60.2166 50.1006 60.756 50.2075C62.7434 50.6014 64.739 50.9501 66.7428 51.2536C70.7976 51.8677 74.8742 52.3002 78.9727 52.5513C87.1833 53.0488 95.422 52.8011 103.588 51.8112C108.177 51.2551 112.735 50.4664 117.245 49.4481C117.336 49.4214 117.419 49.3715 117.485 49.3034C117.551 49.2352 117.599 49.151 117.623 49.059C117.648 48.967 117.648 48.8703 117.624 48.7782C117.6 48.6862 117.552 48.6019 117.486 48.5336C112.565 43.369 106.849 38.6575 100.083 36.1678Z" fill="#E6E6E6"/>
<path d="M234.181 174.85L219.881 156.056L208.598 162.439L232.508 190.843L234.181 174.85Z" fill="#3F3D56"/>
<path d="M267.122 144.299C267.439 152.175 268.659 159.988 270.757 167.586C270.306 168.647 269.841 169.701 269.361 170.747C267.546 174.71 265.514 178.569 263.274 182.308C256.991 192.807 249.148 202.288 240.015 210.427C239.026 211.307 238.024 212.171 237.008 213.022C231.218 205.035 228.093 196.222 226.857 187.152C226.701 186.001 226.572 184.836 226.475 183.678V183.672C226.238 180.858 226.162 178.033 226.247 175.21C226.25 174.984 226.256 174.756 226.266 174.528C226.375 171.511 226.647 168.487 227.057 165.492V165.489C227.104 165.145 227.151 164.801 227.204 164.456C227.354 163.424 227.523 162.391 227.708 161.364C228.782 155.444 230.281 149.609 232.194 143.904V143.901C232.247 143.735 232.3 143.573 232.36 143.41C232.566 142.79 232.776 142.177 232.992 141.563C233.005 141.515 233.022 141.468 233.042 141.423C233.32 140.621 233.605 139.827 233.896 139.038C233.974 138.819 234.055 138.6 234.14 138.381C234.468 137.501 234.803 136.628 235.144 135.767C235.25 135.492 235.36 135.217 235.469 134.944C235.554 134.735 235.635 134.525 235.723 134.318V134.315C236.22 133.085 236.724 131.879 237.234 130.698C238.663 127.374 240.134 124.247 241.566 121.365L241.57 121.362C247.516 109.429 252.922 101.68 252.922 101.68L273.222 108.252C270.8 112.549 268.927 118.886 267.901 126.363C267.11 132.306 266.849 138.307 267.122 144.296L267.122 144.299Z" fill="#3F3D56"/>
<path d="M233.383 142.387C233.264 142.108 233.129 141.836 232.992 141.563C232.278 140.181 231.359 138.915 230.267 137.808C230.104 137.642 229.935 137.476 229.76 137.32C227.876 135.583 225.584 134.35 223.098 133.734C220.611 133.118 218.009 133.14 215.533 133.796L215.52 133.802L215.426 133.827L215.448 133.934C215.542 134.429 215.678 134.916 215.855 135.389C215.902 135.517 215.955 135.639 216.008 135.761C216.03 135.818 216.058 135.868 216.083 135.924C216.083 135.924 216.08 135.927 216.086 135.927C216.086 135.93 216.089 135.933 216.089 135.936C216.149 136.052 216.205 136.171 216.268 136.284C216.139 136.162 216.017 136.037 215.899 135.908C215.783 135.789 215.677 135.664 215.57 135.539C215.206 135.114 214.876 134.659 214.585 134.181L214.535 134.096L214.447 134.131C213.267 134.54 212.14 135.092 211.094 135.774L210.981 135.849C210.182 136.374 209.281 136.725 208.337 136.879C207.394 137.033 206.428 136.987 205.503 136.744C204.045 136.368 202.525 136.299 201.039 136.542C199.554 136.785 198.135 137.334 196.872 138.155C196.036 138.701 195.28 139.36 194.626 140.114C194.57 140.18 194.513 140.249 194.457 140.315C194.338 140.459 194.226 140.606 194.116 140.756C192.94 142.328 192.218 144.194 192.03 146.148L192.023 146.22L192.083 146.261C193.141 146.987 194.338 147.486 195.599 147.726C194.807 147.836 194.005 147.856 193.209 147.785H193.206C192.845 147.755 192.485 147.705 192.13 147.635L192.064 147.622H192.061L191.98 147.607L191.992 147.757C192.085 149.669 192.687 151.522 193.735 153.124L193.766 153.168C193.777 153.184 193.788 153.201 193.797 153.218C194.241 153.897 194.61 154.622 194.898 155.381C195.63 157.265 195.791 159.323 195.361 161.299C194.875 163.412 195.037 165.622 195.825 167.642C196.613 169.661 197.99 171.397 199.778 172.622C201.349 173.703 203.179 174.345 205.081 174.484C205.341 174.506 205.603 174.518 205.866 174.518C207.37 174.523 208.859 174.213 210.236 173.607L210.286 173.589L210.299 173.532C210.564 172.677 210.936 171.859 211.406 171.098C211.252 171.698 211.175 172.315 211.175 172.935V173.141L211.353 173.038C211.506 172.947 211.663 172.85 211.804 172.759C212.649 172.207 213.414 171.542 214.078 170.781C214.338 170.481 214.6 170.19 214.876 169.899L214.879 169.896C215.414 169.326 215.98 168.769 216.568 168.237C217.819 167.113 219.158 166.09 220.572 165.179C221.985 164.272 223.463 163.468 224.993 162.776H224.996C225.168 162.695 225.343 162.616 225.515 162.541C226.277 162.209 227.01 161.816 227.708 161.364C227.733 161.349 227.755 161.336 227.777 161.321C230.801 159.34 233.024 156.349 234.051 152.882C235.077 149.415 234.841 145.696 233.383 142.387Z" fill="#1A3B5D"/>
<path opacity="0.15" d="M195.877 165.742C195.791 166.123 195.727 166.508 195.683 166.895C195.1 165.054 195.016 163.091 195.438 161.207C195.503 160.918 195.552 160.627 195.59 160.333C196.168 162.078 196.267 163.946 195.877 165.742Z" fill="black"/>
<path opacity="0.15" d="M196.113 152.167C195.187 152.295 194.247 152.3 193.319 152.18C193.076 151.722 192.866 151.246 192.691 150.758C193.724 151.455 194.889 151.935 196.113 152.167Z" fill="black"/>
<path opacity="0.15" d="M193.245 147.685C192.903 148.56 192.675 149.475 192.569 150.409C192.283 149.52 192.115 148.597 192.067 147.665L192.06 147.514L192.207 147.543C192.551 147.608 192.897 147.655 193.245 147.685Z" fill="black"/>
<path opacity="0.15" d="M196.953 138.062C198.214 137.24 199.632 136.69 201.117 136.447C202.602 136.204 204.122 136.272 205.579 136.649C206.504 136.894 207.47 136.941 208.415 136.787C209.359 136.633 210.26 136.281 211.06 135.756L211.173 135.681C212.219 134.997 213.344 134.444 214.524 134.034L214.614 134.003L214.664 134.084C215.13 134.856 215.696 135.564 216.346 136.189C215.951 135.454 215.674 134.66 215.526 133.839L215.505 133.73L215.612 133.702C217.935 133.087 220.37 133.03 222.719 133.536C225.067 134.042 227.263 135.096 229.128 136.612C230.992 138.129 232.471 140.065 233.445 142.262C234.419 144.46 234.859 146.856 234.731 149.256C234.238 147.299 233.362 145.46 232.154 143.844C230.945 142.229 229.428 140.869 227.691 139.844C225.953 138.819 224.03 138.149 222.032 137.874C220.033 137.598 218 137.722 216.05 138.238L215.944 138.266L215.965 138.374C216.113 139.196 216.389 139.989 216.784 140.725C216.134 140.099 215.569 139.392 215.102 138.62L215.053 138.539L214.963 138.57C213.783 138.98 212.657 139.533 211.611 140.217L211.498 140.291C210.699 140.817 209.797 141.168 208.853 141.322C207.909 141.476 206.942 141.429 206.017 141.185C203.596 140.556 201.031 140.787 198.76 141.839C196.49 142.891 194.654 144.697 193.567 146.952C193.083 146.719 192.613 146.456 192.161 146.166L192.1 146.127L192.107 146.055C192.263 144.444 192.779 142.889 193.618 141.505C194.457 140.122 195.597 138.945 196.953 138.062Z" fill="black"/>
<path d="M313.252 58.0971L312.954 57.8999L312.739 58.1816C311.068 60.2858 309.739 62.6399 308.8 65.1575C308.93 62.2571 309.437 59.3861 310.308 56.6168L310.402 56.3258L310.133 56.1724C306.632 54.1896 302.903 52.6425 299.027 51.5656L298.605 51.453C295.634 50.6376 292.869 49.205 290.489 47.2486C288.11 45.2922 286.169 42.856 284.793 40.0988C281.597 33.7709 276.548 28.5687 270.32 25.1862C264.091 21.8037 256.98 20.4019 249.935 21.1679H249.932C249.856 21.1741 249.778 21.1835 249.703 21.1929C249.575 21.2054 249.45 21.2211 249.325 21.2367C249.068 21.2711 248.818 21.3056 248.568 21.3431C248.355 21.3744 248.139 21.4088 247.926 21.4464C247.814 21.462 247.704 21.4808 247.595 21.5027C247.485 21.5215 247.373 21.5403 247.263 21.5622H247.26C245.16 21.9596 243.101 22.5516 241.11 23.3304H241.107V23.3335L240.603 23.5307C240.084 23.7435 239.568 23.9688 239.058 24.2067C238.942 24.2599 238.829 24.3162 238.713 24.3694C238.682 24.3851 238.648 24.4007 238.616 24.4195C238.288 24.576 237.963 24.7387 237.64 24.9108C237.593 24.9327 237.547 24.9578 237.5 24.9828L237.199 25.1424C236.539 25.4992 235.891 25.8779 235.253 26.2785C235.2 26.3098 235.15 26.3411 235.097 26.3755C235.041 26.413 234.981 26.4506 234.925 26.4882C234.891 26.5069 234.856 26.532 234.822 26.5539C234.725 26.6133 234.631 26.6759 234.537 26.7416C234.349 26.8637 234.162 26.9889 233.977 27.1172C233.786 27.2455 233.599 27.3801 233.411 27.5147L233.223 27.6492L233.258 27.8808C233.289 28.0717 233.317 28.2626 233.351 28.4504C233.383 28.6382 233.414 28.8228 233.448 29.0075C233.502 29.3173 233.561 29.624 233.621 29.9213C233.661 30.1185 233.699 30.3125 233.743 30.5034C233.783 30.7006 233.827 30.8978 233.874 31.0949C233.965 31.5018 234.062 31.8961 234.165 32.2842C234.215 32.4782 234.268 32.6722 234.324 32.8631C234.356 32.9789 234.387 33.0947 234.421 33.2074C234.446 33.2856 234.471 33.3639 234.496 33.4421C234.503 33.4672 234.509 33.4953 234.518 33.5235C234.525 33.55 234.534 33.5761 234.543 33.6017C234.578 33.7175 234.612 33.8302 234.647 33.9397C234.665 33.9992 234.684 34.0586 234.706 34.115C234.75 34.2496 234.797 34.3873 234.844 34.5187C234.894 34.6689 234.947 34.8191 235 34.9662C235.013 35.0038 235.025 35.0382 235.038 35.0758C235.047 35.1039 235.056 35.1321 235.069 35.1603C235.081 35.1916 235.094 35.226 235.106 35.2573C235.16 35.3981 235.213 35.5421 235.269 35.6829C235.288 35.733 235.307 35.7862 235.329 35.8363C235.836 37.1112 236.459 38.3369 237.19 39.4979C236.38 38.8031 235.6 38.0666 234.85 37.2884C233.692 36.0851 232.626 34.7974 231.659 33.4359C231.581 33.3295 231.503 33.2199 231.431 33.1104C231.284 32.9007 231.14 32.691 230.999 32.4782C230.849 32.2591 230.705 32.0307 230.564 31.8053C230.47 31.6551 230.376 31.5018 230.286 31.3515C230.195 31.2076 230.111 31.0668 230.029 30.9228L229.785 30.5034H229.782V30.5066L229.438 30.8445C229.3 30.9791 229.163 31.1137 229.028 31.2483C224.824 35.4805 221.778 40.7237 220.184 46.4737L220.138 46.6459L220.091 46.8243C220 47.1435 219.909 47.4533 219.812 47.7694V47.7725C219.718 48.0855 219.618 48.3984 219.512 48.7051C219.415 48.9962 219.315 49.2841 219.208 49.572C219.174 49.6691 219.136 49.7661 219.096 49.8631C219.03 50.0509 218.958 50.2355 218.886 50.4233C218.852 50.5078 218.817 50.5954 218.783 50.6799C218.699 50.8865 218.614 51.093 218.53 51.2965C218.517 51.3277 218.501 51.3622 218.486 51.3935C218.461 51.4561 218.433 51.5187 218.408 51.5781C218.342 51.7283 218.273 51.8817 218.207 52.0319C218.16 52.1289 218.117 52.2291 218.073 52.3261C218.054 52.3699 218.032 52.4137 218.013 52.4575C217.898 52.7079 217.779 52.9551 217.654 53.1993C217.513 53.4872 217.369 53.7751 217.216 54.0568C217.081 54.3197 216.94 54.5763 216.793 54.8329C216.54 55.2867 216.274 55.7374 215.999 56.1755C215.892 56.3445 215.786 56.5135 215.677 56.6825C215.652 56.7232 215.626 56.7639 215.601 56.8014C215.511 56.9485 215.417 57.0894 215.32 57.2333C215.254 57.3303 215.189 57.4274 215.123 57.5212C215.013 57.6902 214.898 57.853 214.779 58.0126C214.747 58.0627 214.713 58.1096 214.679 58.1566C214.503 58.4007 214.328 58.6385 214.15 58.8764C214.144 58.8795 214.144 58.8826 214.141 58.8857C214.134 58.8857 214.134 58.8889 214.131 58.892C214.053 58.9953 213.975 59.0986 213.893 59.1987C213.787 59.3458 213.671 59.4898 213.556 59.6306C213.368 59.8684 213.171 60.1094 212.971 60.3441C212.964 60.3504 212.961 60.3567 212.955 60.3598C211.918 61.5781 210.796 62.7203 209.595 63.7773C209.573 63.7961 209.558 63.8149 209.536 63.8305C209.367 63.9776 209.198 64.1247 209.023 64.2687C208.951 64.3281 208.879 64.3876 208.807 64.447C208.688 64.5472 208.566 64.6473 208.447 64.7381C208.433 64.7525 208.417 64.7651 208.4 64.7757C208.294 64.8633 208.191 64.9447 208.084 65.026C207.956 65.1293 207.828 65.2263 207.696 65.3233C207.077 65.7928 206.441 66.2361 205.788 66.6534C205.691 66.7191 205.588 66.7849 205.488 66.8475C205.428 66.885 205.369 66.9226 205.312 66.9539C205.075 67.1009 204.837 67.2449 204.599 67.3826C204.361 67.5234 204.117 67.658 203.877 67.7895C203.36 68.0711 202.85 68.3653 202.353 68.672C202.103 68.8285 201.853 68.985 201.605 69.1446C200.623 69.783 199.677 70.4663 198.768 71.1945C197.859 71.923 196.987 72.697 196.156 73.5135C196.053 73.6136 195.949 73.7169 195.846 73.8233C195.64 74.0267 195.44 74.2333 195.249 74.4398C194.942 74.7559 194.648 75.0814 194.357 75.41C192.823 77.1514 191.465 79.0405 190.303 81.0496C189.719 82.0527 189.189 83.0859 188.714 84.1447C188.354 84.9365 188.025 85.7471 187.728 86.567C187.531 87.1147 187.347 87.6676 187.175 88.2257C187.09 88.5042 187.009 88.7859 186.931 89.0676C186.665 90.0221 186.442 90.986 186.261 91.9531C186.114 92.7292 185.995 93.5064 185.904 94.2846C185.857 94.6758 185.82 95.067 185.786 95.4551C185.705 96.4089 185.664 97.3637 185.662 98.3194C185.657 101.186 186.005 104.043 186.699 106.825C186.852 107.438 187.022 108.049 187.209 108.656C187.303 108.959 187.403 109.26 187.503 109.56C187.756 110.311 188.037 111.055 188.344 111.792C188.529 112.233 188.723 112.671 188.926 113.106C190.219 115.872 191.868 118.456 193.832 120.792C194.154 121.177 194.486 121.556 194.829 121.928C194.833 121.928 194.829 121.931 194.829 121.931C195.681 122.86 196.582 123.742 197.529 124.573H197.532C197.911 124.908 198.296 125.232 198.687 125.546C198.69 125.543 198.69 125.546 198.69 125.546C199.084 125.865 199.481 126.172 199.888 126.469C200.091 126.616 200.298 126.764 200.507 126.911C200.917 127.202 201.335 127.482 201.762 127.753H201.765C202.19 128.028 202.622 128.291 203.06 128.541C203.939 129.045 204.84 129.518 205.766 129.946L205.922 130.018L206.082 129.946C207.567 129.278 209.097 128.716 210.662 128.266C211.006 128.166 211.353 128.075 211.697 127.987C212.567 127.771 213.443 127.59 214.325 127.443C213.466 127.874 212.636 128.362 211.841 128.904C211.225 129.32 210.618 129.774 210.008 130.275C209.805 130.441 209.601 130.613 209.398 130.788L208.891 131.226L209.526 131.436C209.758 131.511 209.989 131.586 210.221 131.655C210.537 131.755 210.85 131.846 211.156 131.931C211.826 132.118 212.499 132.284 213.177 132.428C213.343 132.463 213.505 132.497 213.671 132.531C213.994 132.594 214.319 132.657 214.644 132.713C214.658 132.716 214.671 132.718 214.685 132.719C215.023 132.776 215.364 132.829 215.702 132.876C216.33 132.966 216.959 133.038 217.588 133.092C217.657 133.101 217.726 133.104 217.798 133.107C217.951 133.12 218.101 133.132 218.254 133.142C218.592 133.164 218.933 133.179 219.274 133.192C219.299 133.192 219.321 133.195 219.346 133.195C219.518 133.201 219.69 133.207 219.862 133.211C219.862 133.211 219.862 133.214 219.865 133.211C220.037 133.214 220.209 133.217 220.382 133.217H221.333C221.511 133.217 221.689 133.22 221.871 133.22C222.121 133.22 222.374 133.223 222.625 133.226C222.69 133.226 222.759 133.229 222.828 133.229C223.228 133.236 223.629 133.245 224.029 133.254C224.054 133.254 224.079 133.257 224.104 133.257C224.505 133.27 224.905 133.283 225.306 133.301C225.393 133.304 225.481 133.308 225.571 133.314C225.956 133.329 226.341 133.348 226.726 133.37C226.835 133.376 226.948 133.386 227.06 133.392C227.351 133.408 227.645 133.426 227.936 133.448C228.108 133.458 228.277 133.47 228.449 133.486C229.144 133.539 229.835 133.599 230.53 133.667C230.761 133.686 230.993 133.711 231.224 133.736C231.844 133.802 232.465 133.874 233.089 133.952C233.367 133.984 233.646 134.021 233.924 134.059C233.955 134.062 233.987 134.065 234.018 134.071C234.362 134.118 234.703 134.165 235.047 134.215C235.272 134.246 235.498 134.281 235.723 134.315C235.954 134.35 236.186 134.384 236.417 134.425C236.542 134.444 236.668 134.466 236.796 134.487C237.096 134.534 237.4 134.584 237.703 134.641C237.73 134.643 237.757 134.648 237.784 134.653C238.429 134.766 239.076 134.885 239.721 135.013C240.099 135.085 240.475 135.16 240.85 135.239C241.144 135.298 241.438 135.361 241.732 135.423C241.782 135.433 241.832 135.445 241.882 135.458C241.894 135.461 241.905 135.463 241.917 135.464C242.361 135.561 242.808 135.661 243.253 135.767C244.795 136.124 246.335 136.521 247.873 136.957C248.227 137.054 248.58 137.157 248.934 137.26C249.084 137.304 249.231 137.348 249.378 137.392C249.684 137.482 249.988 137.573 250.294 137.67C250.563 137.752 250.836 137.836 251.105 137.924C251.274 137.977 251.443 138.03 251.611 138.086C251.874 138.168 252.137 138.252 252.397 138.343C252.619 138.412 252.838 138.484 253.057 138.562C253.37 138.665 253.686 138.772 253.998 138.885C254.089 138.916 254.183 138.947 254.274 138.982C254.655 139.113 255.037 139.248 255.419 139.388C255.791 139.523 256.163 139.661 256.532 139.798C256.789 139.895 257.045 139.989 257.299 140.089C257.583 140.199 257.868 140.308 258.15 140.421C258.556 140.581 258.966 140.743 259.373 140.909C259.748 141.06 260.12 141.213 260.496 141.373C260.565 141.401 260.637 141.429 260.705 141.46C261.031 141.595 261.356 141.736 261.678 141.876C261.888 141.964 262.094 142.055 262.301 142.146C263.202 142.54 264.102 142.948 265.001 143.369H265.004C265.567 143.635 266.139 143.889 266.715 144.13C266.849 144.186 266.984 144.242 267.122 144.296C267.35 144.393 267.581 144.483 267.813 144.577C267.963 144.637 268.113 144.696 268.267 144.753C268.489 144.84 268.714 144.925 268.939 145.006C269.177 145.094 269.412 145.181 269.652 145.263C269.737 145.294 269.821 145.322 269.909 145.353C270.187 145.447 270.466 145.541 270.747 145.632C270.776 145.641 270.804 145.651 270.835 145.66C271.129 145.754 271.423 145.848 271.72 145.936C271.744 145.944 271.768 145.952 271.792 145.957C272.111 146.054 272.437 146.148 272.759 146.239C273.234 146.371 273.713 146.496 274.192 146.612C274.279 146.633 274.367 146.655 274.454 146.674C274.711 146.737 274.964 146.796 275.221 146.852C275.493 146.915 275.768 146.971 276.04 147.028C276.316 147.084 276.591 147.14 276.863 147.19C277.01 147.219 277.157 147.247 277.301 147.272L277.686 147.338C277.952 147.385 278.218 147.425 278.487 147.469C278.494 147.469 278.502 147.47 278.509 147.472C278.812 147.519 279.112 147.563 279.416 147.6C279.707 147.641 279.998 147.676 280.289 147.71C280.348 147.716 280.411 147.723 280.473 147.729C280.714 147.757 280.955 147.785 281.196 147.807C281.265 147.813 281.334 147.82 281.402 147.826C281.64 147.848 281.878 147.87 282.116 147.885C282.163 147.891 282.211 147.895 282.26 147.895C282.472 147.913 282.685 147.929 282.898 147.938C283.048 147.951 283.195 147.957 283.345 147.967C283.423 147.97 283.498 147.973 283.577 147.976C283.783 147.989 283.989 147.995 284.199 148.001C284.452 148.01 284.706 148.017 284.956 148.023C285.26 148.029 285.566 148.032 285.87 148.032H285.876C286.173 148.032 286.473 148.029 286.771 148.023H286.883L287.212 148.014C287.381 148.01 287.55 148.004 287.715 147.998C288.034 147.985 288.35 147.97 288.666 147.951C288.791 147.945 288.92 147.935 289.045 147.929C289.101 147.926 289.161 147.92 289.217 147.917C289.414 147.904 289.608 147.892 289.805 147.876C290.008 147.86 290.215 147.841 290.418 147.82C290.681 147.794 290.944 147.766 291.207 147.738C291.413 147.716 291.619 147.691 291.823 147.666C291.85 147.664 291.877 147.66 291.904 147.654C292.101 147.632 292.298 147.607 292.492 147.579C292.724 147.547 292.952 147.513 293.181 147.478C293.206 147.475 293.227 147.472 293.252 147.469C293.647 147.406 294.044 147.344 294.441 147.272C294.857 147.197 295.273 147.115 295.686 147.031C295.84 147 295.99 146.965 296.143 146.934C296.228 146.915 296.315 146.899 296.396 146.881C296.525 146.853 296.65 146.824 296.775 146.793C296.797 146.79 296.822 146.784 296.844 146.781C297.019 146.743 297.191 146.699 297.366 146.655C297.717 146.571 298.061 146.483 298.405 146.389C298.558 146.352 298.711 146.311 298.858 146.27C298.902 146.258 298.946 146.245 298.987 146.233C299.622 146.054 300.252 145.866 300.876 145.666C301.151 145.579 301.424 145.488 301.696 145.391C302.281 145.191 302.861 144.98 303.435 144.759C303.588 144.702 303.742 144.64 303.895 144.58C304.12 144.49 304.345 144.399 304.568 144.308C304.768 144.224 304.968 144.139 305.171 144.052C305.271 144.011 305.372 143.967 305.472 143.923C305.772 143.792 306.072 143.657 306.369 143.523C306.57 143.429 306.767 143.338 306.964 143.244C307.277 143.094 307.586 142.94 307.896 142.787C307.974 142.746 308.049 142.706 308.125 142.668C308.322 142.568 308.519 142.465 308.719 142.365C309.035 142.196 309.351 142.027 309.664 141.851C309.77 141.795 309.873 141.736 309.98 141.676C310.324 141.482 310.665 141.285 311.003 141.085C311.75 140.637 312.487 140.17 313.214 139.683C313.396 139.564 313.577 139.438 313.755 139.316C314.093 139.085 314.425 138.847 314.757 138.609C314.791 138.584 314.822 138.559 314.857 138.537C315.022 138.415 315.188 138.293 315.354 138.168C315.698 137.908 316.039 137.645 316.38 137.376C316.386 137.373 316.396 137.364 316.405 137.357C316.558 137.235 316.712 137.113 316.862 136.991C317.328 136.612 317.788 136.228 318.238 135.83C318.46 135.639 318.679 135.442 318.895 135.245C319.058 135.098 319.221 134.951 319.38 134.8C319.702 134.497 320.018 134.196 320.331 133.89C320.488 133.739 320.641 133.583 320.797 133.427C320.951 133.27 321.107 133.114 321.26 132.954C321.313 132.901 321.367 132.844 321.42 132.788C321.576 132.622 321.733 132.453 321.889 132.287C322.024 132.143 322.155 131.993 322.289 131.843C322.515 131.593 322.743 131.342 322.965 131.089C322.977 131.074 322.989 131.061 323.003 131.048C323.015 131.032 323.028 131.02 323.037 131.007H323.034C327.581 125.747 330.96 119.581 332.946 112.916C334.933 106.251 335.482 99.2409 334.557 92.3482C333.632 85.4555 331.255 78.8379 327.582 72.9333C323.909 67.0287 319.024 61.9717 313.252 58.0971Z" fill="#1A3B5D"/>
<g opacity="0.15">
<path d="M249.932 21.1654C250.556 23.4063 251.494 25.5474 252.719 27.5247C250.668 25.7626 248.836 23.7612 247.262 21.5631C248.146 21.3957 249.036 21.2632 249.932 21.1654Z" fill="black"/>
<path d="M219.407 55.8216C217.092 57.0858 214.927 58.6081 212.954 60.3596C216.285 56.4188 218.72 51.8003 220.089 46.8243C220.106 46.7645 220.122 46.7043 220.138 46.6445L220.185 46.4751C221.83 40.5362 225.023 35.1412 229.437 30.8417L229.784 30.5034L230.028 30.9214C231.381 33.2229 233 35.357 234.852 37.2797C232.015 45.2895 226.493 51.956 219.407 55.8216Z" fill="black"/>
<path d="M235.714 34.5043L235.668 34.6737C235.652 34.7336 235.635 34.7938 235.618 34.8535C235.527 35.1829 235.43 35.5097 235.33 35.8351C234.34 33.2708 233.645 30.6023 233.258 27.8809L233.222 27.65L233.412 27.5143C235.792 25.803 238.377 24.397 241.108 23.3289C238.656 26.7015 236.83 30.4866 235.714 34.5043Z" fill="black"/>
<path d="M203.878 67.7924C205.927 66.6704 207.844 65.3236 209.596 63.7769C206.098 67.8512 203.59 72.6805 202.27 77.8864C200.95 83.0923 200.852 88.5333 201.985 93.7832C203.118 99.033 205.451 103.949 208.801 108.146C212.151 112.343 216.427 115.707 221.294 117.974L221.452 118.047L221.61 117.976C224.239 116.788 227.01 115.946 229.856 115.471C228.08 116.376 226.424 117.501 224.928 118.818L224.422 119.256L225.057 119.465C225.605 119.647 226.153 119.813 226.686 119.961C229.817 120.834 233.053 121.267 236.303 121.249C251.07 121.154 265.95 124.569 280.532 131.399C283.033 132.569 285.627 133.528 288.286 134.266C299.878 137.495 312.253 136.334 323.043 131.004C316.96 138.042 309.006 143.21 300.105 145.906C291.204 148.602 281.721 148.717 272.757 146.237C270.097 145.499 267.503 144.54 265.003 143.37C250.421 136.54 235.54 133.125 220.774 133.219C217.524 133.238 214.287 132.804 211.157 131.932C210.624 131.784 210.076 131.617 209.528 131.436L208.893 131.226L209.399 130.789C210.895 129.471 212.55 128.347 214.326 127.442C211.481 127.917 208.709 128.759 206.081 129.947L205.923 130.018L205.765 129.945C199.92 127.224 194.947 122.931 191.399 117.546C187.851 112.162 185.869 105.897 185.673 99.4505C185.477 93.0044 187.076 86.6306 190.291 81.0404C193.505 75.4503 198.209 70.8637 203.878 67.7924Z" fill="black"/>
</g>
</g>
<defs>
<clipPath id="clip0_219_1407">
<rect width="295" height="249" fill="white" transform="translate(40 0.5)"/>
</clipPath>
</defs>
</svg>
