<svg width="375" height="276" viewBox="0 0 375 276" fill="none" xmlns="http://www.w3.org/2000/svg">
<g clip-path="url(#clip0_219_1411)">
<path opacity="0.1" d="M100.737 110.688H58.7955C57.3101 110.688 56.106 111.892 56.106 113.377V122.3C56.106 123.784 57.3101 124.988 58.7955 124.988H100.737C102.223 124.988 103.427 123.784 103.427 122.3V113.377C103.427 111.892 102.223 110.688 100.737 110.688Z" fill="#1A3B5D"/>
<path opacity="0.1" d="M150.259 124.992H108.317C106.832 124.992 105.628 126.195 105.628 127.68V136.603C105.628 138.088 106.832 139.292 108.317 139.292H150.259C151.745 139.292 152.949 138.088 152.949 136.603V127.68C152.949 126.195 151.745 124.992 150.259 124.992Z" fill="#1A3B5D"/>
<path opacity="0.1" d="M199.785 139.292H157.843C156.357 139.292 155.153 140.495 155.153 141.98V150.903C155.153 152.388 156.357 153.592 157.843 153.592H199.785C201.27 153.592 202.474 152.388 202.474 150.903V141.98C202.474 140.495 201.27 139.292 199.785 139.292Z" fill="#1A3B5D"/>
<path opacity="0.1" d="M100.737 89.2382H58.7955C57.3101 89.2382 56.106 90.4418 56.106 91.9266V100.85C56.106 102.334 57.3101 103.538 58.7955 103.538H100.737C102.223 103.538 103.427 102.334 103.427 100.85V91.9266C103.427 90.4418 102.223 89.2382 100.737 89.2382Z" fill="#1A3B5D"/>
<path opacity="0.1" d="M150.259 103.538H108.317C106.832 103.538 105.628 104.742 105.628 106.227V115.15C105.628 116.634 106.832 117.838 108.317 117.838H150.259C151.745 117.838 152.949 116.634 152.949 115.15V106.227C152.949 104.742 151.745 103.538 150.259 103.538Z" fill="#1A3B5D"/>
<path opacity="0.1" d="M199.785 117.842H157.843C156.357 117.842 155.153 119.045 155.153 120.53V129.453C155.153 130.938 156.357 132.142 157.843 132.142H199.785C201.27 132.142 202.474 130.938 202.474 129.453V120.53C202.474 119.045 201.27 117.842 199.785 117.842Z" fill="#1A3B5D"/>
<path opacity="0.1" d="M254.808 110.688H212.866C211.381 110.688 210.177 111.892 210.177 113.377V122.3C210.177 123.784 211.381 124.988 212.866 124.988H254.808C256.294 124.988 257.498 123.784 257.498 122.3V113.377C257.498 111.892 256.294 110.688 254.808 110.688Z" fill="#1A3B5D"/>
<path opacity="0.1" d="M304.33 124.992H262.388C260.903 124.992 259.699 126.195 259.699 127.68V136.603C259.699 138.088 260.903 139.292 262.388 139.292H304.33C305.815 139.292 307.019 138.088 307.019 136.603V127.68C307.019 126.195 305.815 124.992 304.33 124.992Z" fill="#1A3B5D"/>
<path opacity="0.1" d="M353.855 139.292H311.913C310.428 139.292 309.224 140.495 309.224 141.98V150.903C309.224 152.388 310.428 153.592 311.913 153.592H353.855C355.341 153.592 356.545 152.388 356.545 150.903V141.98C356.545 140.495 355.341 139.292 353.855 139.292Z" fill="#1A3B5D"/>
<path opacity="0.1" d="M254.808 89.2382H212.866C211.381 89.2382 210.177 90.4418 210.177 91.9266V100.85C210.177 102.334 211.381 103.538 212.866 103.538H254.808C256.294 103.538 257.498 102.334 257.498 100.85V91.9266C257.498 90.4418 256.294 89.2382 254.808 89.2382Z" fill="#1A3B5D"/>
<path opacity="0.1" d="M304.33 103.538H262.388C260.903 103.538 259.699 104.742 259.699 106.227V115.15C259.699 116.634 260.903 117.838 262.388 117.838H304.33C305.815 117.838 307.019 116.634 307.019 115.15V106.227C307.019 104.742 305.815 103.538 304.33 103.538Z" fill="#1A3B5D"/>
<path opacity="0.1" d="M353.855 117.842H311.913C310.428 117.842 309.224 119.045 309.224 120.53V129.453C309.224 130.938 310.428 132.142 311.913 132.142H353.855C355.341 132.142 356.545 130.938 356.545 129.453V120.53C356.545 119.045 355.341 117.842 353.855 117.842Z" fill="#1A3B5D"/>
<path opacity="0.1" d="M100.737 60.6345H58.7955C57.3101 60.6345 56.106 61.8382 56.106 63.323V72.246C56.106 73.7309 57.3101 74.9345 58.7955 74.9345H100.737C102.223 74.9345 103.427 73.7309 103.427 72.246V63.323C103.427 61.8382 102.223 60.6345 100.737 60.6345Z" fill="#1A3B5D"/>
<path opacity="0.1" d="M150.259 74.9345H108.317C106.832 74.9345 105.628 76.1382 105.628 77.623V86.5461C105.628 88.0309 106.832 89.2345 108.317 89.2345H150.259C151.745 89.2345 152.949 88.0309 152.949 86.5461V77.623C152.949 76.1382 151.745 74.9345 150.259 74.9345Z" fill="#1A3B5D"/>
<path opacity="0.1" d="M199.785 89.2382H157.843C156.357 89.2382 155.153 90.4418 155.153 91.9266V100.85C155.153 102.334 156.357 103.538 157.843 103.538H199.785C201.27 103.538 202.474 102.334 202.474 100.85V91.9266C202.474 90.4418 201.27 89.2382 199.785 89.2382Z" fill="#1A3B5D"/>
<path opacity="0.1" d="M100.737 39.1809H58.7955C57.3101 39.1809 56.106 40.3846 56.106 41.8694V50.7924C56.106 52.2772 57.3101 53.4809 58.7955 53.4809H100.737C102.223 53.4809 103.427 52.2772 103.427 50.7924V41.8694C103.427 40.3846 102.223 39.1809 100.737 39.1809Z" fill="#1A3B5D"/>
<path opacity="0.1" d="M150.259 53.4845H108.317C106.832 53.4845 105.628 54.6882 105.628 56.173V65.096C105.628 66.5809 106.832 67.7845 108.317 67.7845H150.259C151.745 67.7845 152.949 66.5809 152.949 65.096V56.173C152.949 54.6882 151.745 53.4845 150.259 53.4845Z" fill="#1A3B5D"/>
<path opacity="0.1" d="M199.785 67.7845H157.843C156.357 67.7845 155.153 68.9882 155.153 70.473V79.3961C155.153 80.8809 156.357 82.0845 157.843 82.0845H199.785C201.27 82.0845 202.474 80.8809 202.474 79.3961V70.473C202.474 68.9882 201.27 67.7845 199.785 67.7845Z" fill="#1A3B5D"/>
<path opacity="0.1" d="M254.808 60.6345H212.866C211.381 60.6345 210.177 61.8382 210.177 63.323V72.246C210.177 73.7309 211.381 74.9345 212.866 74.9345H254.808C256.294 74.9345 257.498 73.7309 257.498 72.246V63.323C257.498 61.8382 256.294 60.6345 254.808 60.6345Z" fill="#1A3B5D"/>
<path opacity="0.1" d="M304.33 74.9345H262.388C260.903 74.9345 259.699 76.1382 259.699 77.623V86.5461C259.699 88.0309 260.903 89.2345 262.388 89.2345H304.33C305.815 89.2345 307.019 88.0309 307.019 86.5461V77.623C307.019 76.1382 305.815 74.9345 304.33 74.9345Z" fill="#1A3B5D"/>
<path opacity="0.1" d="M353.855 89.2382H311.913C310.428 89.2382 309.224 90.4418 309.224 91.9266V100.85C309.224 102.334 310.428 103.538 311.913 103.538H353.855C355.341 103.538 356.545 102.334 356.545 100.85V91.9266C356.545 90.4418 355.341 89.2382 353.855 89.2382Z" fill="#1A3B5D"/>
<path opacity="0.1" d="M254.808 39.1809H212.866C211.381 39.1809 210.177 40.3846 210.177 41.8694V50.7924C210.177 52.2772 211.381 53.4809 212.866 53.4809H254.808C256.294 53.4809 257.498 52.2772 257.498 50.7924V41.8694C257.498 40.3846 256.294 39.1809 254.808 39.1809Z" fill="#1A3B5D"/>
<path opacity="0.1" d="M304.33 53.4845H262.388C260.903 53.4845 259.699 54.6882 259.699 56.173V65.096C259.699 66.5809 260.903 67.7845 262.388 67.7845H304.33C305.815 67.7845 307.019 66.5809 307.019 65.096V56.173C307.019 54.6882 305.815 53.4845 304.33 53.4845Z" fill="#1A3B5D"/>
<path opacity="0.1" d="M353.855 67.7845H311.913C310.428 67.7845 309.224 68.9882 309.224 70.473V79.3961C309.224 80.8809 310.428 82.0845 311.913 82.0845H353.855C355.341 82.0845 356.545 80.8809 356.545 79.3961V70.473C356.545 68.9882 355.341 67.7845 353.855 67.7845Z" fill="#1A3B5D"/>
<path opacity="0.1" d="M198 275.5C307.352 275.5 396 259.381 396 239.497C396 219.613 307.352 203.493 198 203.493C88.6476 203.493 0 219.613 0 239.497C0 259.381 88.6476 275.5 198 275.5Z" fill="#1A3B5D"/>
<path d="M86.8738 116.651L70.223 218.691L145.514 210.73L142.256 202.046L83.4351 206.931L97.1901 116.47L86.8738 116.651Z" fill="#3F3D56"/>
<path d="M67.3272 0.861842L168.68 0.5L198 222.309L96.2852 236.059L67.3272 0.861842Z" fill="#3F3D56"/>
<path d="M78.3675 9.36514H160.174L188.77 215.615L104.43 227.194L78.3675 9.36514Z" fill="white"/>
<path d="M155.519 206.337C156.033 207.322 156.416 208.386 157.086 209.272C159.041 211.885 162.751 212.293 165.535 213.998C165.674 214.068 165.789 214.179 165.864 214.316C165.991 214.616 165.708 214.931 165.437 215.119C163.326 216.599 160.557 216.632 157.976 216.614C157.109 216.645 156.241 216.562 155.396 216.368C154.031 216.006 152.862 215.054 151.515 214.667C150.817 214.493 150.102 214.392 149.383 214.367L146.556 214.175C145.804 214.164 145.058 214.026 144.352 213.766C144 213.631 143.688 213.41 143.445 213.122C143.202 212.834 143.035 212.489 142.962 212.12C142.882 211.519 143.139 210.937 143.291 210.35C143.653 208.961 143.541 207.282 144.623 206.334C145.069 205.993 145.58 205.746 146.125 205.61C148.093 204.947 150.101 204.413 152.138 204.011C153.814 203.682 154.777 204.912 155.519 206.337Z" fill="#3F3D56"/>
<path d="M123.542 214.164C123.614 214.935 123.636 215.818 123.079 216.357C122.731 216.645 122.312 216.833 121.866 216.9C119.191 217.522 116.208 217.565 113.881 216.111C113.639 215.973 113.425 215.79 113.251 215.572C113.057 215.275 112.947 214.931 112.932 214.577C112.849 213.553 113.164 212.543 113.45 211.555C114.127 209.211 114.641 206.824 114.988 204.409C115.017 204.21 121.819 205.494 122.271 206.167C122.84 207 122.843 208.997 122.995 209.989C123.225 211.373 123.407 212.765 123.542 214.164Z" fill="#3F3D56"/>
<path d="M148.858 120.006L150.668 136.828C151.03 140.265 151.41 143.721 151.161 147.169C150.871 151.149 149.756 155.13 150.227 159.074C150.411 160.608 150.831 162.113 150.893 163.658C150.904 164.686 150.852 165.713 150.737 166.734C149.919 176.941 152.507 187.069 153.955 197.205C154.188 198.455 154.239 199.732 154.107 200.997C153.919 202.281 153.542 203.967 154.686 204.575L143.943 208.469C142.571 206.75 143.479 204.076 143.219 201.894C142.98 199.929 141.901 198.178 141.326 196.286C140.804 194.585 140.696 192.794 140.526 191.028C139.588 181.414 136.711 172.049 136.037 162.413C136.016 161.483 135.894 160.557 135.675 159.653C135.313 158.455 134.589 157.409 134.061 156.284C133.25 154.594 132.852 152.741 132.461 150.911L130.162 140.146C127.839 143.605 127.933 148.106 127.473 152.253C126.829 158.042 125.388 163.734 124.215 169.451C123.943 170.681 123.738 171.926 123.603 173.178C123.299 176.533 123.904 179.919 123.582 183.27C123.22 187.153 121.587 190.941 121.982 194.824C122.199 196.973 123.024 199.007 123.582 201.091C124.139 203.175 124.414 205.462 123.564 207.448C120.591 206.357 117.397 206.005 114.257 206.421C110.808 202.893 110.196 197.972 109.961 193.033C109.725 188.093 110.294 183.147 109.678 178.255C109.497 176.808 109.215 175.396 109.168 173.953C109.016 169.325 111.242 164.993 112.35 160.496C113.346 156.447 113.442 152.229 112.628 148.139C112.085 145.436 111.151 142.813 110.818 140.073C110.366 136.234 111.133 132.366 111.904 128.574C112.422 126.016 112.936 123.458 113.522 120.914C114.152 118.182 114.902 115.392 116.585 113.156C119.278 109.577 124.059 107.989 128.53 108.336C133 108.684 137.174 110.717 140.866 113.25C143.776 115.194 146.457 117.46 148.858 120.006Z" fill="#192534"/>
<path d="M136.848 55.5905C136.645 55.9165 136.504 56.2771 136.432 56.6543C136.341 57.3961 136.794 58.0763 137.156 58.724C137.619 59.5562 137.976 60.4437 138.216 61.3655C138.389 61.936 138.442 62.5358 138.372 63.1276C138.284 63.5722 138.125 63.9997 137.901 64.3941C137.203 65.7401 136.168 66.9849 134.759 67.5457C133.669 67.9471 132.48 67.9952 131.36 67.6832C130.249 67.3686 129.198 66.8696 128.251 66.2069C127.453 65.7015 126.736 65.0795 126.123 64.3615C125.537 63.5764 125.044 62.7265 124.653 61.8286C123.9 60.2546 123.136 58.572 123.274 56.8461C123.281 56.6896 123.31 56.5348 123.361 56.3865C123.478 56.1185 123.643 55.8734 123.846 55.6628C125.39 53.8334 126.182 51.4861 126.061 49.0954L131.335 50.2931C132.497 50.5572 133.659 50.8214 134.806 51.1507C135.748 51.422 137.196 51.7984 137.807 52.6378C138.419 53.4773 137.264 54.8234 136.848 55.5905Z" fill="#FBBEBE"/>
<path d="M134.025 54.6931C139.318 54.6931 143.61 50.4033 143.61 45.1115C143.61 39.8198 139.318 35.5299 134.025 35.5299C128.731 35.5299 124.44 39.8198 124.44 45.1115C124.44 50.4033 128.731 54.6931 134.025 54.6931Z" fill="#FBBEBE"/>
<path d="M132.483 64.4411C132.888 63.5546 133.764 62.9937 134.564 62.4365C135.364 61.8793 136.175 61.1665 136.33 60.2003C136.34 59.9818 136.394 59.7675 136.49 59.5707C136.797 59.1076 137.529 59.3391 137.967 59.6793C139.031 60.5079 139.755 61.6839 140.461 62.8309C141.374 64.2258 142.155 65.7024 142.795 67.2418C143.812 69.923 143.935 72.8503 144.048 75.7125C144.149 78.3178 144.247 80.9628 143.613 83.4885C143.215 85.0878 142.527 86.6401 142.488 88.2865C142.368 94.2678 140.29 99.9849 140.146 105.966C140.135 107.696 140.222 109.424 140.406 111.144L140.746 115.027C135.483 114.725 130.235 114.263 125.001 113.641C124.849 111.853 124.338 110.12 123.871 108.39C121.959 101.319 120.734 94.0803 120.212 86.774C119.933 82.8951 119.647 79.0306 119.216 75.1661C118.829 71.6526 118.069 68.1174 118.525 64.6112C118.764 63.0175 119.265 61.4744 120.009 60.0447C120.244 59.4752 120.648 58.9915 121.167 58.6589C121.427 58.5337 121.702 58.4448 121.985 58.3947C122.806 58.2286 123.639 58.1305 124.476 58.1016C124.68 58.0844 124.886 58.104 125.084 58.1595C125.437 58.3353 125.726 58.6159 125.913 58.9628C127.526 61.3866 129.808 63.2898 132.483 64.4411Z" fill="#F2F2F2"/>
<path d="M128.038 63.674C128.711 64.6365 130.137 64.8645 130.76 65.8451C130.969 66.2549 131.129 66.6887 131.234 67.1369C131.614 68.349 132.381 69.402 132.848 70.5852C133.522 72.2859 133.54 74.1674 133.547 75.9948C133.613 77.4503 133.501 78.9084 133.214 80.3369C132.997 81.2306 132.642 82.0809 132.381 82.9638C131.939 84.4652 131.774 86.0349 131.896 87.5954C131.896 87.9325 131.986 88.2635 132.157 88.5543C132.402 88.8449 132.723 89.0626 133.084 89.1839C134.144 89.6507 135.255 90.1283 136.414 90.0197C136.651 90.0123 136.882 89.9356 137.076 89.799C137.21 89.6768 137.321 89.5308 137.402 89.3684L138.126 88.1454C138.781 87.0273 139.465 85.7753 139.212 84.498C139.028 83.8388 138.751 83.2089 138.39 82.6273C137.927 81.6834 137.533 80.7075 137.21 79.7072C136.055 76.3892 134.886 73.024 134.626 69.5214C134.472 68.1884 134.621 66.838 135.06 65.5701C135.4 64.7897 135.827 64.0505 136.334 63.3665C136.219 63.2127 136.061 63.0975 135.879 63.0361C135.697 62.9747 135.501 62.97 135.317 63.0227C134.953 63.1352 134.6 63.2818 134.264 63.4605C133.199 63.9092 132.019 63.7464 130.944 63.4388C130.524 63.3158 129.858 62.8961 129.424 62.925C129.276 62.9431 128.063 63.7174 128.038 63.674Z" fill="#1A3B5D"/>
<path d="M136.511 63.6342C136.294 63.4605 135.958 63.3013 135.766 63.504C135.701 63.5918 135.655 63.6913 135.628 63.797C135.44 64.3036 134.886 64.5533 134.383 64.7487C133.88 64.9441 133.337 65.0526 133.033 64.6799C132.937 64.5348 132.89 64.3629 132.898 64.1892C132.907 64.0154 132.97 63.8489 133.08 63.7138C133.303 63.4457 133.571 63.219 133.873 63.0444C135.538 61.8696 136.672 60.0857 137.029 58.0799C137.496 58.4509 137.805 58.9848 137.894 59.5743C138.014 60.1497 138.028 60.7431 138.148 61.3184C138.325 62.1434 138.719 62.9142 138.81 63.75C138.857 64.1951 138.81 64.6438 138.81 65.0888C138.826 65.524 138.877 65.9571 138.962 66.3842C138.115 65.4868 137.518 64.4339 136.511 63.6342Z" fill="#F2F2F2"/>
<path d="M129.185 61.1773C128.823 60.8336 128.461 60.5079 128.099 60.1569C126.511 58.6071 125.311 56.704 124.599 54.6026C124.136 54.9645 123.625 55.4421 123.614 56.05C123.656 56.4802 123.822 56.8889 124.092 57.226C125.461 59.3809 126.365 61.7977 126.745 64.3217C126.941 64.0163 127.212 63.7664 127.532 63.5959C127.852 63.4254 128.211 63.3402 128.573 63.3484C129.145 63.3484 131.712 64.8681 131.896 64.4845C132.168 63.8839 129.619 61.5862 129.185 61.1773Z" fill="#F2F2F2"/>
<path d="M137.268 58.297C140.673 61.6854 144.841 64.208 149.423 65.6533C149.879 65.7526 150.301 65.9668 150.65 66.2757C150.911 66.6013 151.086 66.9869 151.161 67.3974C152.044 70.8493 152.341 74.4207 152.634 77.9704C152.711 78.5575 152.698 79.1528 152.598 79.7362C152.384 80.6842 151.711 81.4513 151.048 82.1642C148.971 84.3895 146.6 86.7161 146.249 89.7411C146.222 90.3243 146.153 90.9048 146.042 91.478C145.861 92.151 145.459 92.7444 145.213 93.3993C144.004 96.6234 146.737 100.528 145.072 103.531C145.973 105.262 146.592 107.126 146.904 109.053C146.96 109.783 147.127 110.5 147.4 111.18C147.895 112.215 148.916 112.874 149.72 113.713C152.17 116.224 152.471 120.067 152.616 123.573C152.706 125.549 152.677 127.818 151.168 129.113C150.295 129.869 149.104 130.115 147.964 130.304C146.448 130.557 144.797 130.738 143.454 129.989C142.491 129.453 141.836 128.516 141.21 127.612C140.023 125.886 138.832 124.163 137.706 122.394C135.925 119.604 134.245 116.416 134.759 113.145C134.615 116.492 133.909 119.864 132.265 122.781C130.622 125.697 127.976 128.133 124.765 129.095C121.555 130.058 117.801 129.377 115.408 127.033C114.627 126.229 113.957 125.325 113.414 124.344C112.052 122.013 111.058 119.485 110.467 116.85C110.312 116.166 110.196 115.403 110.54 114.791C110.703 114.502 110.952 114.274 111.123 113.988C111.694 113.015 111.144 111.788 110.59 110.797C109.747 110.876 109.143 109.885 109.219 109.038C109.295 108.191 109.801 107.457 110.16 106.686C111.209 104.414 110.978 101.769 110.471 99.3191C109.964 96.8694 109.208 94.4342 109.266 91.9339C109.327 89.2888 107.423 86.9079 105.972 84.697C105.161 83.4523 104.216 82.2944 103.51 80.9882C102.039 78.2393 101.698 75.0248 102.562 72.0289C103.069 70.4906 103.733 69.0088 104.545 67.6072L105.74 65.3674C105.962 64.8323 106.308 64.3569 106.748 63.9797C107.188 63.6026 107.711 63.3342 108.274 63.1964L116.538 59.9398C117.594 59.579 118.598 59.0776 119.52 58.449C120.53 57.6891 121.283 56.6398 122.246 55.8293C122.386 55.682 122.555 55.5641 122.741 55.4827C122.928 55.4013 123.128 55.358 123.332 55.3553C124.107 55.424 124.382 56.401 124.461 57.1645C124.642 58.8724 125.909 60.3197 126.34 61.9806C128.671 71.1533 133.605 79.6132 134.959 88.9776C136.479 85.3266 137.999 81.6684 139.947 78.2309C140.254 77.7374 140.512 77.2151 140.718 76.6714C140.951 75.8871 141.038 75.0665 140.975 74.2507C140.877 71.8951 140.251 69.5938 139.632 67.3178C138.828 64.2204 138.104 61.3655 137.268 58.297Z" fill="#3F3D56"/>
<path d="M153.017 86.3253C153.177 87.8668 153.332 89.4118 153.618 90.9352C153.951 92.6974 154.458 94.4197 154.961 96.1421C155.207 97.1103 155.559 98.0483 156.011 98.9391C156.175 99.1978 156.305 99.4762 156.398 99.7678C156.576 100.491 156.17 101.215 155.996 101.939C155.475 104.11 157.039 106.523 156.054 108.524C155.758 109.132 155.24 109.635 155.044 110.287C154.816 111.036 155.044 111.835 155.164 112.61C155.472 114.781 154.73 116.988 153.998 119.076L152.753 122.6C151.617 120.487 150.469 118.352 148.898 116.539C148.337 115.888 147.725 115.284 147.208 114.596C146.436 113.516 145.826 112.328 145.398 111.072C144.293 108.086 143.661 104.946 143.526 101.765C143.437 100.861 143.542 99.9479 143.834 99.0875C144.074 98.5899 144.342 98.1066 144.638 97.6401C145.608 95.8924 145.807 93.8227 145.789 91.8253C145.771 89.828 145.557 87.8234 145.789 85.8368C145.978 84.1782 146.469 82.5681 147.237 81.0859C147.69 80.126 148.363 79.2867 149.202 78.6362C149.828 78.1676 150.592 77.9195 151.374 77.9306C152.558 77.9993 152.286 79.0161 152.388 79.9967L153.017 86.3253Z" fill="#3F3D56"/>
<path d="M99.7746 81.4007C99.0362 83.5717 98.3702 85.7621 97.7765 87.9717C97.1974 90.1428 96.6797 92.3259 96.2237 94.5211C95.9894 95.4862 95.8583 96.4736 95.8327 97.4665C95.879 98.6224 96.0774 99.7672 96.4228 100.871C98.7539 109.27 103.003 117.017 107.789 124.301C109.156 122.596 110.78 121.114 112.603 119.908C112.752 119.82 112.877 119.695 112.965 119.546C113.011 119.405 113.024 119.256 113.004 119.109C112.984 118.963 112.931 118.823 112.849 118.699C111.528 115.993 109.436 113.608 108.777 110.666C108.502 109.443 108.491 108.17 108.18 106.954C107.778 105.38 106.88 103.94 106.674 102.326C106.453 100.567 107.036 98.6497 106.211 97.0901C107.894 96.4352 108.867 94.702 109.581 93.0411C110.342 91.342 110.887 89.5537 111.202 87.7184C111.698 84.2 111.009 80.6167 109.244 77.5326C108.382 75.9941 107.275 74.6059 105.968 73.422C105.537 73.0349 104.52 71.924 103.894 71.9349C103.058 71.953 102.79 73.3063 102.551 73.9142C101.585 76.3964 100.629 78.8822 99.7746 81.4007Z" fill="#3F3D56"/>
<path d="M114.768 121.902C114.876 121.981 114.999 122.09 114.97 122.22C114.941 122.35 114.836 122.383 114.742 122.437C114.253 122.784 113.888 123.279 113.7 123.848C113.098 125.204 112.574 126.592 112.129 128.006C111.319 126.793 110.366 125.681 109.291 124.695C108.466 123.935 107.543 123.215 107.101 122.188C107.101 122.159 108.998 120.758 109.171 120.606C109.704 120.132 110.373 118.819 110.923 118.529C111.546 118.204 112.14 119.481 112.614 119.995C113.266 120.701 113.988 121.34 114.768 121.902Z" fill="#FBBEBE"/>
<path d="M144.203 43.6135C144.178 43.1395 144.116 42.6148 143.755 42.3072C143.437 42.0875 143.054 41.9817 142.669 42.0069C140.558 41.9382 138.376 42.2928 136.385 41.5836C135.074 41.1168 133.956 40.2194 132.678 39.6622C131.4 39.1049 129.764 38.9566 128.733 39.8938C127.951 40.6174 127.737 41.7283 127.466 42.7523C126.868 45.0124 125.804 47.1225 124.342 48.947C123.361 48.6431 122.659 47.7674 122.206 46.8484C120.668 43.7148 121.424 39.9734 122.517 36.6517C122.879 35.5372 123.281 34.4336 123.683 33.3336L124.566 30.902C125.725 30.7882 126.802 30.2525 127.592 29.3967L127.972 30.3194C128.954 30.2841 129.901 29.9495 130.687 29.3605C130.991 29.9322 131.773 30.0842 132.407 29.8997C133.04 29.7151 133.587 29.3605 134.216 29.176C135.9 28.6332 137.695 29.4691 139.461 29.5632C140.209 29.545 140.957 29.5667 141.702 29.6283C143.787 29.9648 145.26 31.926 145.897 33.9378C146.321 35.2767 146.672 36.923 147.993 37.397C148.022 37.9036 147.124 38.0013 147.048 38.4826C147.04 38.643 147.077 38.8026 147.157 38.9421L148.37 41.5438C147.79 41.6892 147.18 41.659 146.618 41.4569C146.071 42.7415 144.258 44.5941 144.203 43.6135Z" fill="#192534"/>
<path d="M205.652 49.2763C206.267 51.2604 206.75 53.2826 207.1 55.3299C207.361 56.8641 207.513 58.5684 206.633 59.8493C209.985 54.8089 213.485 49.6164 218.578 46.3635C217.541 45.2394 216.752 43.9098 216.263 42.461C215.773 41.0123 215.594 39.4768 215.737 37.9543C215.766 37.6503 211.556 39.2388 211.234 39.4197C209.757 40.2411 208.403 41.2615 206.962 42.1408C206.217 42.5931 203.111 43.6641 203.082 44.3118C203.082 44.728 204.316 46.0016 204.548 46.4395C205.003 47.3491 205.372 48.2988 205.652 49.2763Z" fill="#FBBEBE"/>
<path d="M221.228 239.381C220.4 238.798 219.43 238.45 218.421 238.374C217.412 238.297 216.4 238.495 215.494 238.947C213.854 239.793 212.75 241.396 211.259 242.482C208.696 244.342 205.312 244.49 202.311 245.496C201.515 245.764 200.668 246.162 200.331 246.943C200.218 247.272 200.173 247.62 200.199 247.966C200.224 248.313 200.32 248.65 200.48 248.959C200.981 250.077 201.86 250.982 202.963 251.517C204.309 252.161 205.858 252.19 207.35 252.208L220.308 252.36C224.29 252.407 228.297 252.454 232.254 252.95C233.177 253.066 234.176 253.192 234.99 252.74C236.315 252.016 236.467 250.186 236.366 248.677C236.099 244.854 235.244 241.095 233.832 237.532C233.676 237.138 233.47 236.689 233.032 236.616C232.721 236.602 232.416 236.7 232.17 236.891C228.514 239.063 223.885 240.289 219.997 238.552" fill="white"/>
<path d="M227.715 156.736C226.267 165.142 227.211 173.779 228.84 182.148C229.14 183.815 229.535 185.463 230.024 187.084C230.607 188.929 231.392 190.702 231.939 192.559C233.329 197.263 233.133 202.292 232.927 207.202L231.979 229.546C231.899 231.42 231.827 233.338 232.391 235.126C232.619 235.849 232.898 236.754 232.322 237.242C232.097 237.404 231.834 237.505 231.559 237.536C228.969 238.013 226.293 237.611 223.957 236.396L223.7 213.824C223.621 206.866 223.537 199.879 222.466 193.007C221.615 187.543 220.138 182.152 220.041 176.623C219.939 170.834 221.358 165.12 222.806 159.508C223.117 158.307 224.254 157.427 225.188 156.613C225.514 156.292 225.911 156.051 226.346 155.911C226.781 155.792 227.447 156.371 227.715 156.736Z" fill="#3F3D56"/>
<path opacity="0.1" d="M227.715 156.736C226.267 165.142 227.211 173.779 228.84 182.148C229.14 183.815 229.535 185.463 230.024 187.084C230.607 188.929 231.392 190.702 231.939 192.559C233.329 197.263 233.133 202.292 232.927 207.202L231.979 229.546C231.899 231.42 231.827 233.338 232.391 235.126C232.619 235.849 232.898 236.754 232.322 237.242C232.097 237.404 231.834 237.505 231.559 237.536C228.969 238.013 226.293 237.611 223.957 236.396L223.7 213.824C223.621 206.866 223.537 199.879 222.466 193.007C221.615 187.543 220.138 182.152 220.041 176.623C219.939 170.834 221.358 165.12 222.806 159.508C223.117 158.307 224.254 157.427 225.188 156.613C225.514 156.292 225.911 156.051 226.346 155.911C226.781 155.792 227.447 156.371 227.715 156.736Z" fill="black"/>
<path d="M200.534 130.466C199.998 132.67 201.135 134.953 201.008 137.218C200.936 138.59 200.396 139.958 200.646 141.304C200.896 142.65 201.859 143.663 202.373 144.897C202.748 145.927 202.946 147.013 202.959 148.11C203.107 150.816 202.988 153.537 202.887 156.233C202.717 160.756 202.59 165.305 203.187 169.788C203.707 173.672 204.763 177.465 206.325 181.059C206.799 182.037 207.19 183.052 207.495 184.095C207.695 185.067 207.828 186.051 207.893 187.04C208.237 190.259 209.101 193.401 210.452 196.343C211.375 198.359 212.986 199.962 213.496 202.1C213.981 204.148 213.655 206.309 214.007 208.382C214.264 209.92 214.89 211.374 215.237 212.894C215.69 214.859 215.679 216.896 215.907 218.901C216.558 224.69 219.19 230.48 217.619 236.095C217.304 237.224 216.815 238.371 217.036 239.522C217.145 240.087 217.42 240.644 217.297 241.205C217.196 241.682 216.826 242.051 216.638 242.504C216.276 243.35 216.66 244.356 217.304 245.011C217.991 245.622 218.79 246.094 219.657 246.401C222.325 247.54 225.087 248.698 227.982 248.673C228.334 248.692 228.685 248.627 229.007 248.485C229.528 248.213 229.785 247.624 230.006 247.081L231.49 243.412C231.671 242.967 231.852 242.446 231.602 242.033C231.428 241.807 231.218 241.611 230.98 241.454C229.781 240.445 230.053 238.56 230.371 237.043C231.185 233.149 231.636 229.188 231.718 225.211C231.877 217.28 230.57 209.395 229.267 201.568C228.815 198.851 228.359 196.115 227.458 193.51C226.556 190.905 225.228 188.397 225.445 185.691C225.677 182.767 224.916 179.702 225.445 176.818C225.973 173.935 226.81 171.112 227.349 168.232C228.048 164.494 228.221 160.684 228.435 156.892C228.525 155.343 228.641 153.744 229.365 152.369C229.789 151.565 230.404 150.878 230.878 150.1C232.102 148.077 232.297 145.57 233.466 143.514C234.02 142.541 234.784 141.684 235.189 140.641C235.474 139.819 235.623 138.957 235.631 138.087C235.746 135.903 235.624 133.713 235.269 131.556C229.107 128.421 222.273 126.836 215.36 126.938C212.714 126.982 210.039 127.25 207.556 128.165C205.189 129.044 203.031 130.278 200.534 130.466Z" fill="#3F3D56"/>
<path d="M215.375 245.105C214.311 246.43 214.383 248.322 213.702 249.882C212.877 251.774 211.038 252.986 209.294 254.09L198.434 260.965C197.841 261.327 197.204 261.772 196.986 262.445C196.883 262.874 196.902 263.324 197.041 263.744C197.3 264.652 197.783 265.48 198.446 266.153C199.109 266.825 199.93 267.321 200.834 267.594C201.795 267.823 202.782 267.924 203.77 267.894L208.653 267.959C210.14 268.017 211.63 267.959 213.109 267.786C214.463 267.59 215.78 267.203 217.127 266.957C219.577 266.512 222.097 266.552 224.551 266.121C226.054 265.826 227.538 265.443 228.996 264.974C230.77 264.442 232.576 263.888 234.096 262.836C234.515 262.581 234.854 262.215 235.077 261.779C235.334 261.182 235.193 260.498 235.048 259.865L232.717 249.625C232.585 248.772 232.275 247.957 231.805 247.233C231.287 246.545 230.357 246.089 229.55 246.383C229.217 246.534 228.902 246.724 228.612 246.947C227.418 247.732 225.887 247.863 224.475 247.616C223.563 247.454 222.357 247.204 221.622 246.6C221.065 246.14 220.898 245.427 220.424 244.906C220.092 244.565 219.691 244.297 219.249 244.121C218.806 243.944 218.331 243.863 217.855 243.882C217.379 243.9 216.912 244.019 216.485 244.23C216.057 244.441 215.679 244.739 215.375 245.105Z" fill="white"/>
<path d="M208.334 47.8651C215.557 47.8651 221.412 42.012 221.412 34.7918C221.412 27.5716 215.557 21.7184 208.334 21.7184C201.112 21.7184 195.256 27.5716 195.256 34.7918C195.256 42.012 201.112 47.8651 208.334 47.8651Z" fill="#FBBEBE"/>
<path d="M198.246 35.5589C199.499 34.8569 199.499 32.8342 200.78 32.1612C202.061 31.4882 203.516 32.6569 204.338 33.8365C205.536 35.5641 206.367 37.5183 206.781 39.579C206.897 40.1651 207.006 40.8056 207.448 41.2145C207.889 41.6234 208.468 41.674 209.033 41.7319C210.686 41.896 212.341 42.0455 213.999 42.1806C215.845 42.329 217.793 42.4484 219.469 41.6559C220.13 41.3603 220.698 40.8899 221.112 40.2954C221.444 39.7245 221.681 39.1038 221.814 38.4572C222.679 35.1681 223.552 31.8392 223.624 28.4378C223.653 27.0339 223.53 25.5793 222.853 24.349C222.459 23.6253 221.879 22.9957 221.717 22.1997C221.554 21.4036 222.079 20.3905 222.904 20.4773C222.158 20.508 221.415 20.3669 220.732 20.0648C220.077 19.703 219.592 18.925 219.823 18.2158C217.985 18.451 216.645 16.6346 215.212 15.4586C214.979 15.2276 214.664 15.0976 214.336 15.0967C214.084 15.1595 213.841 15.2531 213.612 15.3753C212.888 15.6286 212.131 15.1474 211.389 14.9375C209.399 14.3803 206.868 15.7263 205.391 14.279C205.533 15.2017 204.4 15.8204 203.466 15.8023C202.532 15.7842 201.569 15.4405 200.686 15.7517C200.814 15.9855 200.888 16.2448 200.904 16.5108C200.921 16.7769 200.878 17.0432 200.779 17.2908C200.68 17.5383 200.527 17.761 200.332 17.9428C200.137 18.1246 199.905 18.261 199.651 18.3424L200.089 19.2977C199.637 19.3879 199.22 19.6024 198.884 19.9169C198.549 20.2315 198.308 20.6337 198.188 21.078C197.707 22.9776 197.826 25.677 197.942 27.6309C198 28.4885 198.836 35.2369 198.246 35.5589Z" fill="#192534"/>
<path d="M209.406 51.6428C202.836 59.028 201.164 69.4237 199.763 79.2115L197.7 93.6635C197.164 97.4122 196.614 101.161 196.147 104.92C195.821 107.493 195.517 110.106 195.872 112.675C196.15 114.701 196.827 116.655 197.392 118.605C198.861 123.721 199.593 129.02 199.564 134.342C200.002 133.054 201.518 132.533 202.85 132.243C214.027 129.819 225.689 131.064 236.101 135.793C237.929 130.673 237.586 125.071 238.096 119.658C238.82 111.94 241.314 104.461 242.052 96.7573C242.324 93.8878 242.356 91.004 242.385 88.1201C242.407 86.0033 242.429 83.8648 241.987 81.7915C241.495 79.4974 240.456 77.3589 239.381 75.2783C236.409 69.4947 233.107 63.8865 229.492 58.4816C227.672 55.7605 225.774 53.0938 223.798 50.4813C222.796 49.1569 221.774 47.8471 220.732 46.5517C219.722 45.2961 219.284 44.2069 217.681 44.9596C214.651 46.378 211.61 49.1642 209.406 51.6428Z" fill="#1A3B5D"/>
<path d="M213.17 113.112C211.568 113.17 209.963 113.12 208.367 112.961C207.183 112.845 205.974 112.671 204.82 112.961C204.318 113.087 203.848 113.317 203.44 113.637C203.29 113.771 203.181 113.947 203.128 114.142C203.076 114.337 203.081 114.543 203.144 114.735C203.206 114.927 203.323 115.096 203.481 115.223C203.638 115.349 203.829 115.427 204.03 115.446L205.268 115.555C206.054 115.624 206.872 115.703 207.484 116.279C207.735 116.505 207.895 116.815 207.933 117.151C208.009 117.994 207.277 118.453 206.622 118.804C205.691 119.241 204.83 119.815 204.067 120.505C203.469 121.082 203.094 121.85 203.006 122.676C203.003 122.75 203.02 122.823 203.054 122.888C203.089 122.953 203.14 123.008 203.202 123.047C203.264 123.086 203.336 123.108 203.41 123.111C203.483 123.114 203.556 123.097 203.621 123.063C205.069 122.339 206.014 120.194 207.603 120.552C206.158 121.009 204.92 121.961 204.106 123.24C203.906 123.546 203.814 123.91 203.847 124.274C203.879 124.638 204.034 124.98 204.285 125.245C204.537 125.511 204.87 125.683 205.232 125.735C205.594 125.787 205.963 125.715 206.278 125.531C206.514 125.393 206.741 125.242 206.959 125.079C208.035 124.207 209 123.206 209.829 122.097C208.671 124.539 207.498 127.398 208.83 129.826C208.897 129.96 209 130.071 209.129 130.147C209.257 130.223 209.405 130.259 209.554 130.253C209.974 130.21 210.097 129.815 210.166 129.468C210.383 128.35 210.437 127.17 210.988 126.175C212.262 123.866 215.404 123.642 217.796 122.517C220.667 121.185 222.632 118.319 223.425 115.258C223.702 114.365 223.751 113.417 223.566 112.501C223.034 110.442 220.493 109.968 218.861 110.963C216.859 112.233 215.697 113.033 213.17 113.112Z" fill="#FBBEBE"/>
<path opacity="0.1" d="M210.629 72.6115C213.163 76.523 217.561 78.7267 221.333 81.473C222.253 82.0721 223.055 82.835 223.7 83.7237C224.652 85.1928 224.786 87.0599 224.591 88.7895C224.344 91.0727 223.61 93.2691 222.882 95.4474L221.3 100.169C220.298 103.165 219.262 106.223 217.355 108.741C216.866 109.382 216.298 110.066 216.32 110.869C216.362 111.333 216.521 111.779 216.783 112.164C217.393 113.16 218.198 114.023 219.149 114.702C220.099 115.381 221.177 115.862 222.317 116.116C223 116.289 223.716 116.289 224.399 116.116C225.376 115.826 226.111 115.03 226.791 114.278C230.049 110.685 233.307 107.041 235.66 102.825C237.958 98.7112 239.334 94.1411 240.601 89.6145C241.122 87.9481 241.486 86.2362 241.687 84.5017C241.955 81.2451 241.1 77.9885 239.703 75.0467C238.306 72.1049 236.384 69.4418 234.404 66.8546C232.535 64.3134 230.459 61.9315 228.196 59.7336C224.258 56.0536 219.44 53.8898 214.169 55.9776C210.448 57.454 209.055 60.5332 208.722 64.4773C208.44 67.325 209.111 70.1858 210.629 72.6115Z" fill="black"/>
<path d="M211.947 71.6201C214.481 75.5316 218.882 77.7352 222.65 80.4816C223.568 81.0865 224.366 81.8542 225.007 82.7467C225.959 84.2158 226.093 86.0793 225.897 87.8125C225.648 90.0957 224.916 92.2921 224.185 94.4704L222.603 99.1744C221.601 102.17 220.566 105.224 218.658 107.746C218.173 108.387 217.605 109.067 217.626 109.874C217.666 110.337 217.826 110.783 218.09 111.166C218.699 112.162 219.503 113.026 220.453 113.705C221.403 114.384 222.48 114.866 223.621 115.121C224.305 115.294 225.021 115.294 225.706 115.121C226.683 114.835 227.414 114.035 228.098 113.286C231.356 109.689 234.614 106.049 236.967 101.834C239.265 97.7197 240.641 93.1497 241.908 88.6194C242.431 86.9546 242.794 85.2438 242.993 83.5102C243.261 80.2536 242.407 76.997 241.013 74.0516C239.62 71.1063 237.694 68.4467 235.714 65.8595C233.839 63.3316 231.758 60.9631 229.492 58.7783C225.557 55.102 220.739 52.9345 215.469 55.026C211.744 56.5023 210.354 59.578 210.018 63.5257C209.752 66.3625 210.43 69.2078 211.947 71.6201Z" fill="#1A3B5D"/>
<path d="M291.987 201.409C291.989 202.353 291.892 203.294 291.697 204.217C291.661 204.391 291.621 204.579 291.581 204.727C290.553 208.849 287.654 211.863 284.193 212.055C284.077 212.055 283.962 212.055 283.831 212.055C280.172 212.055 277.077 208.899 276.056 204.554C276.027 204.438 276.002 204.322 275.976 204.192C275.781 203.269 275.684 202.327 275.687 201.384C275.687 195.497 279.332 190.728 283.831 190.728C288.331 190.728 291.987 195.533 291.987 201.409Z" fill="#3F3D56"/>
<path opacity="0.1" d="M291.987 201.409C291.989 202.353 291.892 203.294 291.697 204.217C291.661 204.391 291.621 204.579 291.581 204.727C291.458 204.727 291.339 204.727 291.219 204.727C290.323 204.679 289.432 204.558 288.555 204.365C287.778 204.605 286.985 204.787 286.181 204.908C285.564 205.001 284.943 205.059 284.32 205.082H283.69C282.944 205.082 282.2 205.032 281.46 204.934C280.265 204.774 279.091 204.483 277.96 204.065C277.341 204.271 276.71 204.44 276.071 204.572C276.042 204.456 276.016 204.34 275.991 204.21C275.796 203.287 275.699 202.346 275.701 201.402C275.701 195.515 279.346 190.746 283.846 190.746C288.345 190.746 291.987 195.533 291.987 201.409Z" fill="black"/>
<path d="M309.361 181.559C309.365 178.968 308.757 176.413 307.588 174.101L298.01 177.079L306.419 172.136C305.008 170.1 303.158 168.406 301.006 167.18C298.853 165.954 296.452 165.227 293.981 165.051C293.588 164.455 293.156 163.884 292.689 163.343L278.934 167.624L290.217 160.991C288.058 159.336 285.525 158.237 282.841 157.793C280.157 157.349 277.404 157.573 274.828 158.446C272.251 159.318 269.929 160.813 268.067 162.796C266.206 164.779 264.862 167.191 264.154 169.817L275.937 183.375L263.155 174.134C259.918 176.429 257.613 179.811 256.661 183.663C255.708 187.515 256.172 191.581 257.968 195.12C259.763 198.659 262.771 201.435 266.442 202.943C270.114 204.45 274.205 204.589 277.971 203.334C281.377 204.586 285.099 204.689 288.57 203.627C290.989 204.16 293.497 204.143 295.909 203.578C298.32 203.014 300.575 201.916 302.507 200.366C304.438 198.816 305.997 196.852 307.07 194.62C308.142 192.388 308.7 189.944 308.703 187.467C308.703 187.106 308.703 186.744 308.666 186.382C309.135 184.817 309.37 183.192 309.361 181.559Z" fill="#1A3B5D"/>
<path opacity="0.1" d="M309.075 184.627C304.017 183.669 298.83 183.602 293.749 184.432C287.998 185.383 282.119 187.475 276.494 185.948C273.193 185.05 270.341 182.973 267.115 181.819C264.004 180.734 260.652 180.533 257.433 181.24C256.206 184.174 255.85 187.398 256.408 190.528C256.965 193.658 258.412 196.562 260.576 198.892C262.74 201.222 265.53 202.88 268.611 203.668C271.692 204.455 274.936 204.34 277.953 203.334C281.359 204.586 285.081 204.689 288.552 203.627C290.971 204.16 293.479 204.143 295.89 203.578C298.302 203.014 300.557 201.916 302.489 200.366C304.42 198.816 305.979 196.852 307.052 194.62C308.124 192.388 308.682 189.944 308.685 187.467C308.685 187.106 308.685 186.744 308.648 186.382C308.823 185.805 308.966 185.219 309.075 184.627Z" fill="black"/>
</g>
<defs>
<clipPath id="clip0_219_1411">
<rect width="396" height="275" fill="white" transform="translate(0 0.5)"/>
</clipPath>
</defs>
</svg>
