<svg width="375" height="250" viewBox="0 0 375 250" fill="none" xmlns="http://www.w3.org/2000/svg">
<path d="M346.445 229.367L343.137 230.779L336.124 218.671L341.007 216.587L346.445 229.367Z" fill="#FFB6B6"/>
<path d="M319.106 232.503L315.51 232.502L313.799 218.61H319.106L319.106 232.503Z" fill="#FFB6B6"/>
<path d="M319.232 236.26L308.173 236.26V236.12C308.174 234.976 308.627 233.88 309.434 233.071C310.242 232.263 311.336 231.809 312.478 231.809L314.498 230.274L318.267 231.809L319.232 231.809L319.232 236.26Z" fill="#2F2E41"/>
<path d="M348.457 231.773L338.283 236.115L338.228 235.986C337.781 234.934 337.769 233.747 338.195 232.687C338.621 231.626 339.45 230.778 340.5 230.33L341.758 228.124L345.826 228.057L346.714 227.678L348.457 231.773Z" fill="#2F2E41"/>
<path d="M315.578 150.28L310.113 183.612L311.6 188.579L309.648 192.097L312.514 222.991L311.351 225.556L314.602 227.564H321.217L321.568 199.596L323.202 195.489V193.226L326.528 176.172L327.14 195.68L328.108 199.793L327.295 202.721L328.357 204.773L337.458 224.345H344.875L344.302 219.919C345.631 219.245 342.306 217.275 341.987 215.818L343.079 213.357L341.987 208.708L340.986 199.624L342.042 180.448L341.545 154.626C339.054 151.282 336.292 148.703 332.868 147.981L315.578 150.28Z" fill="#2F2E41"/>
<path d="M328.888 106.384C333.028 106.384 336.384 103.023 336.384 98.8769C336.384 94.7307 333.028 91.3694 328.888 91.3694C324.748 91.3694 321.392 94.7307 321.392 98.8769C321.392 103.023 324.748 106.384 328.888 106.384Z" fill="#FFB6B6"/>
<path d="M297.983 158.156C297.889 157.734 297.889 157.297 297.983 156.875C298.076 156.454 298.261 156.058 298.524 155.715C298.787 155.373 299.121 155.092 299.504 154.893C299.887 154.694 300.308 154.582 300.739 154.564L303.759 144.51L307.25 148.698L303.847 157.603C303.829 158.33 303.546 159.025 303.051 159.557C302.556 160.089 301.883 160.42 301.16 160.488C300.437 160.556 299.714 160.356 299.129 159.926C298.543 159.497 298.136 158.866 297.983 158.156Z" fill="#FFB6B6"/>
<path d="M317.57 116.831L316.217 114.355L314.473 114.938C314.473 114.938 312.548 116.182 309.853 120.879C308.606 123.051 305.911 136.981 305.911 136.981L299.612 153.687L306.034 154.774L311.392 141.007L317.604 127.832L317.57 116.831Z" fill="#1A3B5D"/>
<path d="M328.61 150.175C333.888 150.175 339.213 151.216 341.394 154.936C341.337 154.127 341.194 152.725 341.045 151.438L340.5 147.98L341.053 144.809L341.783 144.077L340.475 142.766L341.367 136.148L344.314 120.556C344.545 119.329 344.365 118.061 343.802 116.947C343.239 115.834 342.324 114.938 341.199 114.399L338.368 113.035L333.778 108.771L325.475 108.709L322.767 112.236L315.636 114.662L316.833 139.461L316.048 141.294C316.224 141.456 316.595 141.802 316.796 142.024C317.08 142.339 316.718 143.961 316.477 144.899L316.146 147.399L317.189 148.145L315.833 149.75L315.562 151.787C316.908 151.468 322.73 150.175 328.61 150.175Z" fill="#1A3B5D"/>
<path d="M330.806 106.017C330.838 105.946 330.87 105.875 330.901 105.804C330.889 105.805 330.877 105.806 330.865 105.807L330.806 106.017Z" fill="#2F2E41"/>
<path d="M336.592 91.7109C336.236 91.3746 335.774 91.1742 335.285 91.1449C334.801 91.1606 334.309 91.599 334.409 92.0742C333.519 90.4954 332.102 89.2811 330.407 88.6444C328.712 88.0078 326.847 87.9895 325.139 88.5928C323.935 89.0185 322.753 89.8702 322.477 91.1192C322.45 91.4472 322.352 91.7654 322.19 92.0518C322.05 92.205 321.869 92.3138 321.668 92.3648C321.467 92.4158 321.255 92.4068 321.059 92.3389L321.047 92.3354C320.98 92.3125 320.908 92.3102 320.839 92.3289C320.771 92.3476 320.71 92.3865 320.664 92.4404C320.618 92.4944 320.589 92.5609 320.581 92.6314C320.573 92.702 320.586 92.7733 320.619 92.8361L320.96 93.4728C320.53 93.5688 320.084 93.5593 319.659 93.4451C319.588 93.4266 319.513 93.4304 319.445 93.456C319.377 93.4816 319.318 93.5278 319.277 93.5882C319.236 93.6486 319.214 93.7203 319.215 93.7934C319.216 93.8666 319.24 93.9375 319.283 93.9967C319.849 94.7729 320.589 95.406 321.443 95.8455C322.297 96.2851 323.241 96.5189 324.201 96.5285C325.563 96.5202 326.939 96.0501 328.264 96.3638C328.777 96.4851 329.256 96.7199 329.667 97.0509C330.077 97.3819 330.408 97.8008 330.636 98.2767C330.864 98.7526 330.982 99.2735 330.982 99.8012C330.983 100.329 330.865 100.85 330.638 101.326C331.046 100.88 331.833 100.986 332.249 101.423C332.441 101.657 332.583 101.928 332.666 102.22C332.749 102.511 332.771 102.816 332.732 103.116C332.621 104.036 332.348 104.929 331.926 105.753C333.537 105.704 335.094 105.16 336.386 104.196C337.678 103.232 338.644 101.894 339.153 100.363C339.661 98.8318 339.689 97.181 339.231 95.6337C338.773 94.0864 337.852 92.7171 336.592 91.7109Z" fill="#2F2E41"/>
<path d="M52.2031 85.6239C49.1736 86.5963 45.8978 86.4585 42.9604 85.2351C40.0231 84.0118 37.6156 81.7825 36.1678 78.9454C35.8768 78.3704 36.7554 77.8905 37.0468 78.4663C38.39 81.1107 40.6328 83.1871 43.3704 84.3207C46.108 85.4543 49.16 85.5704 51.9756 84.6482C52.5877 84.4485 52.8116 85.4253 52.2031 85.6239Z" fill="white"/>
<path d="M69.9511 106.612C72.9782 100.847 73.7248 94.1518 72.0421 87.8606C71.8748 87.2374 72.8493 87.0103 73.0163 87.6327C74.7552 94.1828 73.9641 101.149 70.8008 107.14C70.4989 107.711 69.6508 107.179 69.9511 106.612Z" fill="white"/>
<path d="M46.2402 57.0571C47.4906 56.9255 48.6889 56.4848 49.7272 55.7748C50.7656 55.0648 51.6117 54.1076 52.1894 52.9891C52.4839 52.4147 53.3318 52.9472 53.0392 53.5179C52.3951 54.7507 51.4595 55.8067 50.3139 56.5937C49.1684 57.3808 47.8479 57.8748 46.4677 58.0328C46.3389 58.0586 46.205 58.0343 46.0934 57.9649C45.9818 57.8954 45.9008 57.786 45.8669 57.6589C45.8374 57.5295 45.8601 57.3938 45.93 57.2811C45.9999 57.1684 46.1114 57.0879 46.2402 57.0571Z" fill="white"/>
<path d="M124.494 36.7321C110.817 49.3431 101.073 66.412 97.4668 84.7062C96.6872 88.6614 96.2399 92.7416 96.726 96.7633C97.2124 100.787 98.7874 104.278 101.191 107.508C103.389 110.46 105.979 113.225 107.421 116.661C108.942 120.283 108.631 124.198 107.001 127.726C105.008 132.043 101.584 135.386 98.1225 138.537C94.2792 142.037 90.2319 145.611 88.2595 150.557C88.0205 151.156 87.106 150.75 87.3446 150.151C90.7763 141.546 99.8536 137.358 104.729 129.783C107.004 126.248 108.229 122.005 106.823 117.899C105.593 114.309 102.925 111.456 100.674 108.486C98.3107 105.367 96.5909 102.031 95.9174 98.1429C95.2284 94.1659 95.5173 90.0596 96.1926 86.1018C97.7156 77.1761 100.86 68.4493 105.069 60.4511C109.906 51.2578 116.278 42.9609 123.908 35.9195C124.381 35.4839 124.963 36.2994 124.494 36.7321Z" fill="white"/>
<path d="M98.3258 78.6978C95.3225 77.6475 92.7897 75.5621 91.1798 72.814C89.5699 70.066 88.9877 66.8343 89.5372 63.6961C89.6506 63.0615 90.6406 63.2081 90.527 63.8435C90.0099 66.7649 90.5525 69.7752 92.0569 72.3311C93.5613 74.887 95.9283 76.8201 98.7308 77.7816C99.3395 77.9912 98.9311 78.9063 98.3258 78.6978Z" fill="white"/>
<path d="M99.8802 106.158C105.762 103.38 110.383 98.4847 112.822 92.4467C113.063 91.8483 113.977 92.2545 113.736 92.8522C111.187 99.1307 106.368 104.216 100.241 107.092C99.6565 107.366 99.2991 106.43 99.8802 106.158Z" fill="white"/>
<path d="M110.737 52.2932C111.815 52.9421 113.036 53.3128 114.292 53.372C115.548 53.4313 116.799 53.1771 117.933 52.6325C118.513 52.3514 118.87 53.2879 118.293 53.5671C117.038 54.1631 115.656 54.442 114.268 54.3797C112.881 54.3173 111.529 53.9155 110.332 53.2094C110.214 53.1523 110.122 53.0522 110.074 52.9295C110.027 52.8067 110.028 52.6705 110.077 52.5485C110.132 52.4275 110.231 52.3328 110.355 52.2849C110.479 52.2371 110.616 52.2401 110.737 52.2932Z" fill="white"/>
<path d="M204.997 13.6463C201.657 31.963 204.138 51.4669 212.256 68.2485C214.011 71.8766 216.107 75.4041 218.912 78.3221C221.719 81.2414 225.076 83.0791 228.936 84.2081C232.466 85.2403 236.196 85.8867 239.413 87.7602C242.805 89.7349 244.91 93.0484 245.73 96.8483C246.733 101.497 246.008 106.23 245.139 110.834C244.174 115.946 243.091 121.24 244.489 126.378C244.659 127.001 243.684 127.228 243.515 126.606C241.082 117.666 245.812 108.849 245.151 99.8604C244.843 95.6662 243.27 91.5398 239.68 89.1097C236.54 86.9848 232.694 86.3149 229.112 85.3008C225.35 84.2359 221.971 82.6094 219.096 79.9112C216.155 77.1512 213.917 73.6984 212.078 70.1311C207.928 62.0861 205.192 53.2223 203.745 44.298C202.081 34.0408 202.181 23.574 204.041 13.3506C204.156 12.7179 205.111 13.0177 204.997 13.6463Z" fill="white"/>
<path d="M209.33 62.9331C206.301 63.9055 203.025 63.7677 200.087 62.5444C197.15 61.321 194.742 59.0917 193.295 56.2547C193.004 55.6796 193.882 55.1997 194.174 55.7756C195.517 58.4199 197.76 60.4963 200.497 61.6299C203.235 62.7635 206.287 62.8796 209.102 61.9574C209.715 61.7577 209.939 62.7346 209.33 62.9331Z" fill="white"/>
<path d="M227.078 83.9209C230.105 78.1565 230.852 71.4611 229.169 65.1698C229.002 64.5466 229.976 64.3195 230.143 64.9419C231.882 71.4921 231.091 78.4581 227.928 84.4497C227.626 85.0206 226.778 84.4887 227.078 83.9209Z" fill="white"/>
<path d="M203.367 34.3663C204.618 34.2347 205.816 33.7941 206.854 33.0841C207.893 32.374 208.739 31.4168 209.316 30.2983C209.611 29.7239 210.459 30.2565 210.166 30.8272C209.522 32.0599 208.586 33.1159 207.441 33.903C206.295 34.69 204.975 35.1841 203.595 35.3421C203.466 35.3679 203.332 35.3436 203.22 35.2741C203.109 35.2047 203.028 35.0952 202.994 34.9681C202.964 34.8388 202.987 34.703 203.057 34.5903C203.127 34.4776 203.238 34.3971 203.367 34.3663Z" fill="white"/>
<path d="M281.621 14.0413C267.943 26.6523 258.2 43.7212 254.594 62.0154C253.814 65.9706 253.367 70.0508 253.853 74.0725C254.339 78.0961 255.914 81.5872 258.318 84.8167C260.516 87.7692 263.105 90.5344 264.548 93.9705C266.069 97.5924 265.758 101.507 264.128 105.036C262.135 109.353 258.711 112.695 255.249 115.847C251.406 119.346 247.359 122.92 245.386 127.866C245.147 128.465 244.233 128.059 244.472 127.46C247.903 118.855 256.981 114.667 261.856 107.092C264.131 103.557 265.356 99.3141 263.95 95.2087C262.72 91.6187 260.052 88.765 257.801 85.7948C255.438 82.676 253.718 79.34 253.044 75.4521C252.355 71.4751 252.644 67.3688 253.32 63.411C254.842 54.4853 257.987 45.7586 262.196 37.7603C267.033 28.567 273.405 20.2701 281.035 13.2287C281.508 12.7931 282.09 13.6086 281.621 14.0413Z" fill="white"/>
<path d="M255.453 56.007C252.449 54.9567 249.917 52.8713 248.307 50.1233C246.697 47.3752 246.115 44.1435 246.664 41.0053C246.777 40.3707 247.767 40.5173 247.654 41.1528C247.137 44.0742 247.679 47.0844 249.184 49.6403C250.688 52.1962 253.055 54.1293 255.858 55.0908C256.466 55.3004 256.058 56.2155 255.453 56.007Z" fill="white"/>
<path d="M257.007 83.4667C262.889 80.6896 267.51 75.7939 269.949 69.7559C270.19 69.1575 271.104 69.5638 270.863 70.1615C268.314 76.4399 263.495 81.5249 257.368 84.4014C256.783 84.6751 256.426 83.739 257.007 83.4667Z" fill="white"/>
<path d="M267.864 29.6024C268.942 30.2513 270.163 30.622 271.419 30.6813C272.675 30.7405 273.926 30.4864 275.06 29.9417C275.64 29.6607 275.997 30.5972 275.42 30.8764C274.165 31.4723 272.783 31.7513 271.395 31.6889C270.008 31.6265 268.656 31.2248 267.459 30.5187C267.341 30.4616 267.249 30.3615 267.201 30.2387C267.154 30.116 267.155 29.9797 267.204 29.8578C267.259 29.7367 267.358 29.642 267.482 29.5942C267.605 29.5464 267.743 29.5493 267.864 29.6024Z" fill="white"/>
<path d="M79.9043 231.483L83.3563 234.161L96.7775 236.493L111.695 199.353C111.695 199.353 120.83 170.731 146.409 176.586L228.627 175.122C228.627 175.122 253.871 172.531 258.042 184.455C258.833 186.713 280.15 236.607 280.15 236.607L295.096 234.494L293.305 191.957L257.806 109.429L196.105 105.57L132.524 109.978L79.9043 231.483Z" fill="#3F3D56"/>
<path d="M148.236 179.148C161.354 179.148 171.988 168.498 171.988 155.359C171.988 142.221 161.354 131.571 148.236 131.571C135.119 131.571 124.485 142.221 124.485 155.359C124.485 168.498 135.119 179.148 148.236 179.148Z" fill="#2F2E41"/>
<path d="M227.896 179.148C241.014 179.148 251.648 168.498 251.648 155.359C251.648 142.221 241.014 131.571 227.896 131.571C214.778 131.571 204.144 142.221 204.144 155.359C204.144 168.498 214.778 179.148 227.896 179.148Z" fill="#2F2E41"/>
<path d="M120.465 77.4056L130.245 75.4849C130.245 75.4849 203.877 64.9623 250.418 77.4056L246.897 87.2871L123.754 86.5551L120.465 77.4056Z" fill="#E6E6E6"/>
<path d="M219.743 128.46H157.255C149.667 128.46 143.11 123.198 141.663 115.948L134.824 81.691C134.673 80.9434 134.679 80.1725 134.842 79.4274C135.005 78.6822 135.321 77.9794 135.771 77.3636C136.241 76.7175 136.839 76.1752 137.527 75.7703C138.215 75.3653 138.979 75.1064 139.771 75.0095C172.729 70.9123 205.363 70.9053 236.77 74.9883C237.551 75.0841 238.304 75.3399 238.983 75.7398C239.661 76.1398 240.25 76.6752 240.713 77.3128C241.159 77.9197 241.476 78.6122 241.644 79.3471C241.812 80.082 241.827 80.8437 241.689 81.5847L235.376 115.737C234.013 123.109 227.439 128.46 219.743 128.46Z" fill="#1A3B5D"/>
<path d="M92.6681 82.9828L92.9401 78.0805C92.9826 77.3168 93.2091 76.5747 93.6004 75.9179C93.9917 75.261 94.5361 74.7088 95.187 74.3087C99.1325 71.8844 109.775 66.547 123.357 69.3449C124.311 69.5426 125.181 70.0297 125.849 70.7399C126.516 71.4501 126.949 72.349 127.089 73.3144L127.453 75.8652L92.6681 82.9828Z" fill="#3F3D56"/>
<path d="M284.195 82.9828L249.41 75.8652L249.995 71.7672C250.062 71.2833 250.272 70.8306 250.599 70.4674C250.925 70.1042 251.352 69.847 251.826 69.7289C267.489 65.792 279.478 72.7835 282.78 75.0201C283.093 75.2332 283.354 75.5155 283.541 75.8453C283.728 76.1751 283.836 76.5436 283.859 76.9222L284.195 82.9828Z" fill="#3F3D56"/>
<path d="M81.6235 234.68C80.7852 234.689 79.9619 234.457 79.2513 234.012C69.9374 228.565 64.1308 218.582 62.006 204.351C60.2508 192.595 60.9838 177.84 64.1843 160.494C69.8587 129.742 81.7517 99.0036 86.6017 87.2154C87.2442 85.6594 88.2426 84.2764 89.5164 83.1777C90.7903 82.0789 92.3041 81.2952 93.9357 80.8897C103.934 78.4267 121.388 74.2948 125.946 74.2948C132.193 74.2948 135.573 80.1842 135.606 80.2437L135.625 80.2923L141.111 104.118V104.462C144.137 114.717 141.888 122.126 139.467 126.535C136.84 131.321 133.44 133.71 133.406 133.734C128.067 137.805 119.369 150.919 110.712 167.954C101.716 185.657 95.0471 203.125 92.8732 214.682C90.2124 228.827 86.3119 233.157 83.5083 234.299C82.9108 234.548 82.2705 234.677 81.6235 234.68Z" fill="#E6E6E6"/>
<path d="M217.683 125.532H158.64C155.155 125.527 151.78 124.311 149.092 122.09C146.403 119.87 144.567 116.784 143.898 113.359L137.436 80.0412C137.293 79.3037 137.302 78.5446 137.463 77.8107C137.623 77.0769 137.933 76.3838 138.372 75.7744C138.81 75.165 139.369 74.6521 140.014 74.2675C140.658 73.8829 141.375 73.6347 142.119 73.5383C173.261 69.5534 204.097 69.5467 233.773 73.5176C234.507 73.6176 235.212 73.8653 235.848 74.2459C236.483 74.6265 237.035 75.132 237.47 75.7319C237.905 76.3318 238.214 77.0138 238.379 77.7367C238.544 78.4596 238.561 79.2084 238.429 79.938L232.464 113.153C231.843 116.626 230.022 119.769 227.319 122.032C224.617 124.296 221.206 125.534 217.683 125.532Z" fill="#E6E6E6"/>
<path d="M295.241 234.681C294.593 234.678 293.953 234.548 293.355 234.299C290.551 233.157 286.651 228.827 283.99 214.682C281.816 203.125 275.147 185.657 266.151 167.954C257.494 150.919 248.796 137.805 243.451 133.729C243.423 133.71 240.023 131.321 237.396 126.535C234.975 122.126 232.726 114.717 235.752 104.462L235.757 104.077L241.244 80.2666L241.257 80.2437C241.29 80.1842 244.67 74.2947 250.917 74.2947C255.475 74.2947 272.929 78.4267 282.927 80.8897C284.559 81.2953 286.073 82.0791 287.346 83.1778C288.62 84.2765 289.619 85.6595 290.261 87.2154C295.111 99.0036 307.004 129.742 312.679 160.494C315.879 177.84 316.612 192.595 314.857 204.351C312.732 218.582 306.926 228.565 297.599 234.02C296.892 234.461 296.074 234.69 295.241 234.681Z" fill="#E6E6E6"/>
<path d="M148.236 165.607C156.107 165.607 162.487 159.216 162.487 151.334C162.487 143.451 156.107 137.06 148.236 137.06C140.366 137.06 133.985 143.451 133.985 151.334C133.985 159.216 140.366 165.607 148.236 165.607Z" fill="#3F3D56"/>
<path d="M148.236 160.849C153.483 160.849 157.737 156.589 157.737 151.334C157.737 146.078 153.483 141.818 148.236 141.818C142.989 141.818 138.736 146.078 138.736 151.334C138.736 156.589 142.989 160.849 148.236 160.849Z" fill="#2F2E41"/>
<path d="M227.896 165.607C235.767 165.607 242.147 159.216 242.147 151.334C242.147 143.451 235.767 137.06 227.896 137.06C220.025 137.06 213.645 143.451 213.645 151.334C213.645 159.216 220.025 165.607 227.896 165.607Z" fill="#3F3D56"/>
<path d="M227.896 160.849C233.143 160.849 237.397 156.589 237.397 151.334C237.397 146.078 233.143 141.818 227.896 141.818C222.649 141.818 218.395 146.078 218.395 151.334C218.395 156.589 222.649 160.849 227.896 160.849Z" fill="#2F2E41"/>
<path d="M179.296 134.133C179.902 134.133 180.392 133.641 180.392 133.035C180.392 132.428 179.902 131.937 179.296 131.937C178.691 131.937 178.2 132.428 178.2 133.035C178.2 133.641 178.691 134.133 179.296 134.133Z" fill="#2F2E41"/>
<path d="M184.047 134.133C184.652 134.133 185.143 133.641 185.143 133.035C185.143 132.428 184.652 131.937 184.047 131.937C183.441 131.937 182.95 132.428 182.95 133.035C182.95 133.641 183.441 134.133 184.047 134.133Z" fill="#2F2E41"/>
<path d="M181.854 138.158C182.46 138.158 182.95 137.667 182.95 137.06C182.95 136.454 182.46 135.962 181.854 135.962C181.249 135.962 180.758 136.454 180.758 137.06C180.758 137.667 181.249 138.158 181.854 138.158Z" fill="#2F2E41"/>
<path d="M186.239 138.158C186.844 138.158 187.335 137.667 187.335 137.06C187.335 136.454 186.844 135.962 186.239 135.962C185.634 135.962 185.143 136.454 185.143 137.06C185.143 137.667 185.634 138.158 186.239 138.158Z" fill="#2F2E41"/>
<path d="M190.624 138.158C191.229 138.158 191.72 137.667 191.72 137.06C191.72 136.454 191.229 135.962 190.624 135.962C190.019 135.962 189.528 136.454 189.528 137.06C189.528 137.667 190.019 138.158 190.624 138.158Z" fill="#2F2E41"/>
<path d="M195.009 138.158C195.614 138.158 196.105 137.667 196.105 137.06C196.105 136.454 195.614 135.962 195.009 135.962C194.403 135.962 193.913 136.454 193.913 137.06C193.913 137.667 194.403 138.158 195.009 138.158Z" fill="#2F2E41"/>
<path d="M188.797 134.133C189.402 134.133 189.893 133.641 189.893 133.035C189.893 132.428 189.402 131.937 188.797 131.937C188.191 131.937 187.701 132.428 187.701 133.035C187.701 133.641 188.191 134.133 188.797 134.133Z" fill="#2F2E41"/>
<path d="M193.547 134.133C194.153 134.133 194.644 133.641 194.644 133.035C194.644 132.428 194.153 131.937 193.547 131.937C192.942 131.937 192.451 132.428 192.451 133.035C192.451 133.641 192.942 134.133 193.547 134.133Z" fill="#2F2E41"/>
<path d="M198.298 134.133C198.903 134.133 199.394 133.641 199.394 133.035C199.394 132.428 198.903 131.937 198.298 131.937C197.692 131.937 197.201 132.428 197.201 133.035C197.201 133.641 197.692 134.133 198.298 134.133Z" fill="#2F2E41"/>
<path d="M193.182 166.888H183.681C183.245 166.888 182.827 166.714 182.518 166.405C182.21 166.096 182.037 165.678 182.037 165.241C182.037 164.804 182.21 164.385 182.518 164.076C182.827 163.767 183.245 163.594 183.681 163.594H193.182C193.618 163.594 194.036 163.767 194.345 164.076C194.653 164.385 194.826 164.804 194.826 165.241C194.826 165.678 194.653 166.096 194.345 166.405C194.036 166.714 193.618 166.888 193.182 166.888Z" fill="#2F2E41"/>
<path d="M130.274 95.297C129.661 95.2953 129.066 95.0867 128.586 94.7049C128.106 94.3232 127.768 93.7904 127.627 93.1927L126.17 86.9974C126.005 86.2931 126.126 85.5522 126.506 84.9373C126.887 84.3224 127.495 83.8838 128.198 83.718C128.901 83.5521 129.641 83.6726 130.255 84.0528C130.87 84.4331 131.308 85.042 131.474 85.7459L132.931 91.9413C133.025 92.3423 133.027 92.7594 132.937 93.1614C132.847 93.5633 132.668 93.9397 132.413 94.2624C132.157 94.5851 131.832 94.8458 131.462 95.0249C131.091 95.2041 130.685 95.2971 130.274 95.297Z" fill="#3F3D56"/>
<path d="M246.954 94.931C246.543 94.9311 246.137 94.8381 245.767 94.6589C245.397 94.4798 245.072 94.2191 244.816 93.8964C244.56 93.5737 244.381 93.1973 244.291 92.7954C244.201 92.3935 244.203 91.9764 244.297 91.5753L245.754 85.38C245.92 84.6761 246.359 84.0671 246.973 83.6869C247.587 83.3066 248.327 83.1862 249.03 83.352C249.733 83.5178 250.342 83.9564 250.722 84.5713C251.102 85.1862 251.223 85.9272 251.059 86.6314L249.602 92.8268C249.461 93.4245 249.123 93.9572 248.643 94.339C248.162 94.7207 247.568 94.9293 246.954 94.931Z" fill="#3F3D56"/>
<path d="M110.171 113.584C109.274 113.584 108.399 113.308 107.665 112.792L104.607 110.648C104.031 110.244 103.561 109.708 103.237 109.083C102.912 108.459 102.743 107.766 102.743 107.062V100.495C102.744 99.1767 103.268 97.9125 104.199 96.98C105.13 96.0476 106.392 95.5231 107.709 95.5216H112.393C113.71 95.5231 114.972 96.0476 115.903 96.98C116.834 97.9125 117.358 99.1767 117.359 100.495V107.127C117.358 107.812 117.196 108.488 116.888 109.1C116.579 109.712 116.131 110.242 115.581 110.65L112.763 112.73C112.012 113.285 111.104 113.584 110.171 113.584Z" fill="#3F3D56"/>
<path d="M112.393 137.609H107.709C106.392 137.608 105.13 137.083 104.199 136.151C103.268 135.218 102.744 133.954 102.743 132.636V126.069C102.743 125.365 102.912 124.672 103.237 124.048C103.561 123.423 104.031 122.887 104.607 122.483L107.665 120.339C108.414 119.813 109.309 119.536 110.224 119.547C111.139 119.558 112.027 119.857 112.763 120.401L115.581 122.481C116.131 122.888 116.579 123.419 116.888 124.031C117.196 124.643 117.358 125.319 117.359 126.004V132.636C117.358 133.954 116.834 135.218 115.903 136.151C114.972 137.083 113.71 137.608 112.393 137.609Z" fill="#3F3D56"/>
<path d="M127.009 123.885H120.453C119.75 123.885 119.058 123.715 118.435 123.39C117.812 123.065 117.276 122.594 116.873 122.018L114.732 118.955C114.207 118.205 113.93 117.308 113.941 116.392C113.953 115.476 114.251 114.586 114.794 113.849L116.87 111.026C117.277 110.475 117.808 110.027 118.418 109.718C119.029 109.409 119.704 109.247 120.388 109.246H127.009C128.326 109.247 129.588 109.772 130.519 110.704C131.45 111.637 131.974 112.901 131.975 114.22V118.911C131.974 120.23 131.45 121.494 130.519 122.427C129.588 123.359 128.326 123.884 127.009 123.885Z" fill="#3F3D56"/>
<path d="M99.2834 123.885H92.7267C91.4101 123.884 90.1479 123.359 89.2169 122.427C88.2859 121.494 87.7622 120.23 87.7607 118.911V114.22C87.7622 112.901 88.2859 111.637 89.2169 110.704C90.1479 109.772 91.4101 109.247 92.7267 109.246H99.3479C100.032 109.247 100.707 109.409 101.318 109.718C101.929 110.027 102.459 110.475 102.866 111.026L104.942 113.849C105.485 114.586 105.784 115.476 105.795 116.392C105.806 117.308 105.529 118.205 105.004 118.955L102.864 122.018C102.46 122.594 101.925 123.065 101.301 123.39C100.678 123.715 99.986 123.885 99.2834 123.885Z" fill="#3F3D56"/>
<path d="M266.995 106.318C271.637 106.318 275.399 102.549 275.399 97.9005C275.399 93.2516 271.637 89.4829 266.995 89.4829C262.353 89.4829 258.59 93.2516 258.59 97.9005C258.59 102.549 262.353 106.318 266.995 106.318Z" fill="#3F3D56"/>
<path d="M285.631 125.715C290.273 125.715 294.035 121.946 294.035 117.297C294.035 112.649 290.273 108.88 285.631 108.88C280.989 108.88 277.226 112.649 277.226 117.297C277.226 121.946 280.989 125.715 285.631 125.715Z" fill="#3F3D56"/>
<path d="M266.995 144.014C271.637 144.014 275.399 140.245 275.399 135.596C275.399 130.948 271.637 127.179 266.995 127.179C262.353 127.179 258.59 130.948 258.59 135.596C258.59 140.245 262.353 144.014 266.995 144.014Z" fill="#3F3D56"/>
<path d="M248.359 125.349C253.001 125.349 256.763 121.58 256.763 116.931C256.763 112.283 253.001 108.514 248.359 108.514C243.717 108.514 239.955 112.283 239.955 116.931C239.955 121.58 243.717 125.349 248.359 125.349Z" fill="#3F3D56"/>
<path d="M285.631 122.787C284.547 122.787 283.487 122.465 282.586 121.862C281.684 121.259 280.982 120.401 280.567 119.398C280.152 118.395 280.044 117.291 280.255 116.226C280.467 115.162 280.989 114.183 281.755 113.416C282.522 112.648 283.498 112.125 284.562 111.913C285.625 111.701 286.727 111.81 287.729 112.226C288.73 112.641 289.586 113.345 290.188 114.247C290.791 115.15 291.112 116.212 291.112 117.297C291.11 118.753 290.532 120.148 289.505 121.177C288.477 122.207 287.084 122.785 285.631 122.787ZM285.631 112.54C284.691 112.54 283.773 112.819 282.992 113.341C282.211 113.864 281.602 114.607 281.242 115.477C280.883 116.346 280.789 117.303 280.972 118.226C281.155 119.149 281.608 119.996 282.272 120.662C282.936 121.327 283.783 121.78 284.704 121.964C285.626 122.147 286.581 122.053 287.449 121.693C288.317 121.333 289.059 120.723 289.581 119.941C290.103 119.158 290.381 118.238 290.381 117.297C290.38 116.036 289.879 114.827 288.988 113.935C288.098 113.043 286.89 112.541 285.631 112.54Z" fill="#E6E6E6"/>
<path d="M272.868 101.985L261.853 101.829L267.495 92.3523L272.868 101.985ZM263.129 101.115L271.613 101.235L267.475 93.8163L263.129 101.115Z" fill="#E6E6E6"/>
<path d="M252.744 121.323H243.974V112.54H252.744V121.323ZM244.705 120.591H252.013V113.272H244.705V120.591Z" fill="#E6E6E6"/>
<path d="M271.53 139.376L267.512 135.359L271.056 131.817L270.539 131.299L266.995 134.842L263.451 131.299L262.935 131.817L266.478 135.359L262.46 139.376L262.976 139.894L266.995 135.876L271.014 139.894L271.53 139.376Z" fill="#E6E6E6"/>
<path opacity="0.2" d="M336.971 139.073L322.788 149.765L338.798 142.733L336.971 139.073Z" fill="black"/>
<path d="M74.606 152.248L56.7008 152.98L54.5084 140.903L69.8556 136.145L74.606 152.248Z" fill="#A0616A"/>
<path d="M68.023 122.649L64.0294 118.577L68.9261 111.078L77.3071 97.1051C77.0333 96.5032 76.9484 95.8322 77.0636 95.1808C77.1788 94.5295 77.4887 93.9286 77.9524 93.4575C78.416 92.9864 79.0115 92.6674 79.6602 92.5427C80.3088 92.4179 80.9799 92.4934 81.5848 92.759C82.1896 93.0246 82.6997 93.4678 83.0476 94.0301C83.3955 94.5924 83.5647 95.2472 83.533 95.9079C83.5012 96.5686 83.2699 97.2041 82.8696 97.7303C82.4694 98.2565 81.9191 98.6486 81.2916 98.8547L74.3737 113.772L68.023 122.649Z" fill="#A0616A"/>
<path d="M63.599 131.947C63.1301 132.674 62.462 133.251 61.6745 133.608C60.8871 133.965 60.0136 134.088 59.1585 133.961C58.3447 133.865 57.5765 133.533 56.9485 133.005C56.3204 132.478 55.8598 131.779 55.6231 130.993C55.4488 130.435 55.398 129.846 55.4744 129.266C55.5507 128.687 55.7523 128.131 56.0652 127.638C58.7368 123.127 63.6642 117.17 63.7136 117.111L63.792 117.016L72.1027 118.819L63.599 131.947Z" fill="#1A3B5D"/>
<path d="M70.3383 231.773L75.3039 231.772L77.6659 212.589L70.3372 212.59L70.3383 231.773Z" fill="#A0616A"/>
<path d="M69.0715 230.149L78.8506 230.149H78.851C80.5038 230.149 82.0889 230.806 83.2576 231.977C84.4263 233.147 85.0829 234.735 85.083 236.39V236.593L69.0718 236.594L69.0715 230.149Z" fill="#2F2E41"/>
<path d="M31.6742 229.62L36.5838 230.363L41.7829 211.75L35.3465 210.652L31.6742 229.62Z" fill="#A0616A"/>
<path d="M30.6641 227.825L40.3334 229.288L40.3337 229.289C41.968 229.536 43.4371 230.424 44.4179 231.756C45.3988 233.088 45.8111 234.756 45.5641 236.393L45.5339 236.594L29.7025 234.197L30.6641 227.825Z" fill="#2F2E41"/>
<path d="M55.9699 149.321L73.1442 146.393L78.4582 157.363L78.6607 228.963L69.2349 228.904L65.2947 170.953L40.1827 224.501L30.0569 223.284L52.1312 165.882C52.1312 165.882 50.9161 155.741 54.7639 150.67L55.9699 149.321Z" fill="#2F2E41"/>
<path d="M49.5941 127.706C49.3316 126.917 49.3037 126.068 49.5138 125.262C49.7239 124.457 50.163 123.73 50.7776 123.17L53.2184 120.948L60.0995 119.787L64.4019 119.004L71.3172 139.073L54.5217 146.802C53.0478 146.483 52.459 145.675 53.3167 144.07L49.5941 127.706Z" fill="#1A3B5D"/>
<path d="M65.0081 134.478L69.8127 131.407L76.1251 137.757L88.0407 148.86C88.6854 148.716 89.3584 148.771 89.9709 149.019C90.5833 149.267 91.1062 149.695 91.4705 150.247C91.8347 150.798 92.0232 151.448 92.0109 152.109C91.9985 152.771 91.786 153.413 91.4015 153.95C91.0169 154.488 90.4784 154.896 89.8572 155.121C89.2359 155.345 88.5613 155.376 87.9224 155.208C87.2836 155.04 86.7106 154.682 86.2794 154.181C85.8482 153.68 85.579 153.06 85.5075 152.402L72.3667 142.538L65.0081 134.478Z" fill="#A0616A"/>
<path d="M56.8407 128.22C56.2273 127.61 55.8022 126.836 55.6163 125.99C55.4303 125.145 55.4915 124.264 55.7923 123.452C56.0548 122.675 56.5382 121.991 57.1832 121.485C57.8281 120.978 58.6066 120.672 59.4231 120.602C60.004 120.546 60.5899 120.619 61.1401 120.813C61.6903 121.008 62.1915 121.32 62.6087 121.729C66.4623 125.28 71.2623 131.341 71.3103 131.401L71.3865 131.498L67.9058 139.268L56.8407 128.22Z" fill="#1A3B5D"/>
<path d="M57.0796 117.345C61.2512 117.345 64.633 113.958 64.633 109.78C64.633 105.602 61.2512 102.215 57.0796 102.215C52.908 102.215 49.5262 105.602 49.5262 109.78C49.5262 113.958 52.908 117.345 57.0796 117.345Z" fill="#A0616A"/>
<path d="M50.9643 120.557C49.7929 120.557 48.6227 120.486 47.46 120.343L47.3006 120.324L46.0839 113.708C45.5679 110.904 46.1433 108.008 47.6919 105.615C49.2404 103.222 51.6448 101.514 54.4115 100.84C54.5961 100.793 54.79 100.798 54.972 100.855C55.1539 100.911 55.3168 101.017 55.4427 101.16L55.7328 101.059C56.8438 100.671 58.0202 100.506 59.1948 100.573C60.3695 100.64 61.5194 100.939 62.5789 101.451C63.6384 101.964 64.5867 102.68 65.3698 103.56C66.1528 104.439 66.7552 105.464 67.1426 106.577L67.2145 106.784L65.2781 107.46C64.6747 107.671 64.1259 108.014 63.6714 108.463C63.217 108.913 62.8683 109.459 62.6509 110.061C62.4335 110.663 62.3528 111.305 62.4146 111.942C62.4764 112.579 62.6791 113.195 63.0082 113.743L64.988 117.044L64.7772 117.15C60.5041 119.357 55.7719 120.524 50.9643 120.557Z" fill="#2F2E41"/>
<path d="M310.464 152.215C310.552 151.792 310.731 151.393 310.989 151.047C311.246 150.701 311.577 150.416 311.957 150.211C312.337 150.007 312.757 149.888 313.187 149.864C313.618 149.84 314.048 149.911 314.449 150.071L321.319 142.141L322.788 147.395L316.039 154.119C315.725 154.775 315.182 155.293 314.513 155.575C313.843 155.856 313.094 155.882 312.407 155.647C311.72 155.412 311.143 154.933 310.785 154.301C310.426 153.668 310.313 152.926 310.464 152.215Z" fill="#FFB6B6"/>
<path d="M341.119 117.352L343.934 117.2L344.357 118.991C344.357 118.991 344.316 121.286 341.75 126.054C339.183 130.823 319.301 152.055 319.301 152.055L314.995 147.161L325.638 136.182L332.083 124.674L341.119 117.352Z" fill="#1A3B5D"/>
</svg>
