<svg width="375" height="800" viewBox="0 0 375 800" fill="none" xmlns="http://www.w3.org/2000/svg">
<g opacity="0.07">
<path d="M173.244 279.003L161.741 288.149L171.751 291.521L183.383 281.428L173.244 279.003ZM185.052 282.605L172.715 293.03L178.053 308.222L178.944 307.358L179.386 305.538C179.087 305.322 178.831 304.97 178.658 304.54C178.486 304.11 178.408 303.627 178.438 303.168C178.466 302.723 178.594 302.327 178.802 302.039C179.009 301.752 179.285 301.59 179.587 301.577C179.712 301.572 179.839 301.593 179.965 301.639C180.076 301.68 180.185 301.74 180.29 301.818L181.12 298.402C181.13 298.361 181.143 298.32 181.157 298.281L181.163 298.266C181.173 298.239 181.184 298.213 181.197 298.187L181.206 298.169C181.218 298.144 181.231 298.12 181.245 298.097C181.262 298.068 181.281 298.04 181.3 298.013L181.307 298.004C181.325 297.98 181.344 297.957 181.364 297.935C181.385 297.911 181.408 297.888 181.432 297.867L181.432 297.867C181.448 297.853 181.464 297.84 181.48 297.827C181.489 297.819 181.499 297.811 181.508 297.804C181.525 297.792 181.543 297.78 181.561 297.769C181.57 297.763 181.579 297.757 181.589 297.751C181.604 297.743 181.619 297.735 181.635 297.727C181.648 297.72 181.661 297.713 181.674 297.706C181.69 297.7 181.705 297.694 181.72 297.689C181.734 297.683 181.749 297.677 181.763 297.672C181.777 297.668 181.791 297.664 181.805 297.661C181.821 297.656 181.838 297.651 181.854 297.647C181.872 297.644 181.89 297.641 181.908 297.639C181.92 297.637 181.933 297.635 181.946 297.633H181.947L181.948 297.633L185.462 297.3C185.543 296.967 185.685 296.687 185.875 296.488C186.065 296.288 186.295 296.178 186.541 296.167C186.666 296.162 186.794 296.183 186.92 296.229C187.261 296.353 187.578 296.655 187.811 297.078L189.174 296.949L185.052 282.604L185.052 282.605ZM173.082 283.486C173.525 283.496 173.899 283.603 174.143 283.787C174.387 283.972 174.485 284.223 174.42 284.498C174.346 284.815 174.062 285.139 173.632 285.4C173.202 285.661 172.661 285.836 172.127 285.889C171.863 285.915 171.609 285.909 171.379 285.873C171.148 285.837 170.947 285.771 170.787 285.678C170.626 285.586 170.508 285.469 170.441 285.334C170.374 285.199 170.359 285.049 170.396 284.892C170.432 284.735 170.521 284.575 170.656 284.42C170.791 284.265 170.97 284.119 171.183 283.99C171.396 283.861 171.639 283.751 171.897 283.667C172.155 283.584 172.424 283.527 172.688 283.501C172.823 283.488 172.954 283.483 173.082 283.486H173.082ZM183.557 286.211C183.682 286.206 183.809 286.227 183.936 286.273C184.306 286.407 184.647 286.751 184.885 287.227C185.122 287.704 185.236 288.275 185.201 288.815C185.184 289.083 185.131 289.334 185.045 289.556C184.959 289.777 184.842 289.965 184.7 290.107C184.558 290.249 184.394 290.343 184.218 290.383C184.042 290.424 183.857 290.411 183.674 290.345C183.49 290.278 183.312 290.159 183.149 289.996C182.986 289.832 182.842 289.626 182.724 289.39C182.607 289.154 182.518 288.892 182.464 288.62C182.41 288.347 182.391 288.069 182.408 287.802C182.436 287.357 182.564 286.96 182.772 286.673C182.979 286.386 183.255 286.224 183.557 286.211ZM161.27 290.17L166.181 303.395L176.029 308.075L171.223 293.523L161.27 290.17V290.17ZM176.725 292.19C176.85 292.185 176.977 292.206 177.104 292.251C177.474 292.386 177.815 292.729 178.053 293.206C178.29 293.683 178.404 294.254 178.369 294.794C178.352 295.061 178.299 295.313 178.213 295.534C178.127 295.756 178.01 295.943 177.868 296.085C177.726 296.227 177.562 296.321 177.386 296.362C177.21 296.403 177.025 296.39 176.842 296.323C176.471 296.189 176.13 295.845 175.893 295.369C175.655 294.892 175.541 294.321 175.576 293.781C175.605 293.336 175.732 292.939 175.94 292.652C176.148 292.365 176.423 292.203 176.725 292.19ZM168.874 293.699C169.133 293.683 169.458 293.853 169.786 294.176C170.113 294.499 170.42 294.951 170.646 295.446C170.766 295.708 170.86 295.974 170.923 296.229C170.986 296.484 171.016 296.724 171.012 296.933C171.008 297.143 170.969 297.319 170.899 297.451C170.829 297.583 170.728 297.669 170.602 297.704C170.348 297.774 170.008 297.63 169.657 297.306C169.305 296.981 168.972 296.502 168.73 295.973C168.488 295.444 168.356 294.909 168.364 294.486C168.373 294.062 168.52 293.785 168.774 293.715C168.806 293.706 168.839 293.701 168.874 293.699ZM196.401 298.358L184.685 299.468L196.574 308.73L208.446 306.765L196.401 298.358V298.358ZM166.14 299.477C166.399 299.461 166.724 299.632 167.051 299.954C167.379 300.277 167.686 300.73 167.912 301.225C168.155 301.753 168.286 302.288 168.278 302.712C168.269 303.135 168.122 303.412 167.868 303.482C167.614 303.552 167.274 303.409 166.923 303.084C166.571 302.76 166.238 302.28 165.996 301.751C165.753 301.222 165.622 300.688 165.63 300.264C165.639 299.841 165.786 299.564 166.04 299.494C166.072 299.485 166.106 299.479 166.141 299.477L166.14 299.477ZM182.587 300.383L178.246 318.25L190.329 329.776L195.256 310.253L182.587 300.383V300.383ZM195.858 301.677C196.182 301.683 196.539 301.737 196.898 301.834C197.257 301.931 197.606 302.067 197.916 302.231C198.167 302.364 198.386 302.512 198.561 302.666C198.737 302.821 198.865 302.98 198.939 303.133C199.013 303.286 199.031 303.431 198.992 303.56C198.953 303.688 198.857 303.798 198.711 303.882C198.565 303.966 198.371 304.023 198.141 304.05C197.91 304.077 197.647 304.073 197.367 304.039C197.086 304.005 196.794 303.941 196.507 303.851C196.22 303.76 195.943 303.646 195.692 303.513C195.187 303.245 194.819 302.921 194.67 302.611C194.52 302.302 194.602 302.032 194.897 301.862C195.121 301.733 195.456 301.669 195.858 301.677L195.858 301.677ZM209.715 308.664L197.082 310.755L192.189 330.144L204.343 326.463L209.715 308.664ZM190.715 309.916C190.863 309.916 191.012 309.953 191.158 310.025C191.371 310.13 191.574 310.309 191.757 310.55C191.939 310.792 192.098 311.092 192.223 311.433C192.347 311.775 192.437 312.151 192.485 312.54C192.533 312.929 192.539 313.323 192.503 313.701C192.431 314.463 192.191 315.11 191.836 315.499C191.481 315.888 191.04 315.987 190.611 315.774C190.399 315.669 190.195 315.491 190.013 315.249C189.83 315.007 189.672 314.707 189.547 314.366C189.422 314.025 189.333 313.649 189.284 313.26C189.236 312.871 189.23 312.476 189.266 312.099C189.326 311.47 189.5 310.917 189.761 310.522C190.023 310.128 190.358 309.915 190.715 309.916ZM206.818 311.264C207.159 311.253 207.442 311.422 207.62 311.743C207.829 312.12 207.879 312.679 207.758 313.297C207.637 313.915 207.355 314.541 206.975 315.038C206.594 315.534 206.146 315.861 205.729 315.945C205.311 316.029 204.959 315.865 204.75 315.487C204.541 315.11 204.491 314.551 204.612 313.933C204.733 313.315 205.015 312.689 205.395 312.192C205.611 311.91 205.852 311.68 206.098 311.52C206.345 311.359 206.591 311.272 206.818 311.264L206.818 311.264ZM199.639 312.5C199.98 312.489 200.262 312.658 200.441 312.979C200.65 313.356 200.7 313.915 200.579 314.533C200.458 315.151 200.176 315.777 199.795 316.274C199.415 316.77 198.966 317.097 198.549 317.181C198.132 317.265 197.78 317.1 197.571 316.723C197.361 316.346 197.312 315.786 197.433 315.169C197.554 314.551 197.836 313.925 198.216 313.428C198.432 313.146 198.673 312.916 198.919 312.755C199.165 312.595 199.412 312.507 199.639 312.5H199.639ZM181.455 314.042C181.603 314.042 181.752 314.079 181.898 314.151C182.111 314.257 182.314 314.435 182.497 314.677C182.68 314.918 182.838 315.218 182.963 315.56C183.088 315.901 183.177 316.277 183.225 316.666C183.273 317.055 183.279 317.45 183.243 317.827C183.208 318.205 183.13 318.558 183.016 318.866C182.901 319.175 182.752 319.433 182.576 319.625C182.4 319.818 182.202 319.941 181.992 319.989C181.781 320.036 181.564 320.006 181.351 319.901C181.139 319.796 180.935 319.617 180.753 319.375C180.57 319.134 180.412 318.834 180.287 318.492C180.162 318.151 180.073 317.775 180.025 317.386C179.976 316.997 179.97 316.602 180.006 316.225C180.066 315.597 180.24 315.043 180.501 314.649C180.763 314.254 181.098 314.041 181.455 314.042L181.455 314.042ZM203.64 321.096C203.981 321.085 204.263 321.253 204.441 321.574C204.651 321.952 204.7 322.511 204.579 323.129C204.458 323.747 204.177 324.373 203.796 324.869C203.415 325.366 202.967 325.692 202.55 325.776C202.133 325.861 201.781 325.696 201.571 325.318C201.362 324.941 201.312 324.382 201.433 323.764C201.554 323.146 201.836 322.52 202.217 322.023C202.433 321.741 202.673 321.511 202.92 321.351C203.166 321.19 203.412 321.103 203.64 321.095V321.096ZM196.289 323.354C196.63 323.343 196.913 323.512 197.091 323.833C197.301 324.21 197.35 324.769 197.229 325.387C197.108 326.005 196.826 326.631 196.446 327.128C196.257 327.374 196.05 327.58 195.837 327.736C195.623 327.892 195.406 327.993 195.2 328.035C194.993 328.077 194.8 328.058 194.633 327.979C194.465 327.9 194.325 327.764 194.221 327.577C194.012 327.199 193.962 326.64 194.083 326.022C194.204 325.404 194.486 324.778 194.867 324.282C195.083 324 195.323 323.77 195.57 323.609C195.816 323.449 196.062 323.361 196.29 323.354L196.289 323.354Z" fill="#1A3B5D"/>
</g>
<g opacity="0.07">
<path d="M283.826 416.456L272.324 425.603L282.333 428.974L293.965 418.882L283.826 416.456ZM295.634 420.058L283.298 430.483L288.635 445.676L289.527 444.812L289.969 442.992C289.669 442.775 289.413 442.424 289.241 441.994C289.068 441.564 288.991 441.08 289.02 440.622C289.048 440.177 289.176 439.78 289.384 439.493C289.591 439.206 289.867 439.043 290.169 439.031C290.294 439.026 290.421 439.047 290.547 439.093C290.658 439.134 290.767 439.194 290.873 439.271L291.702 435.855C291.713 435.814 291.725 435.774 291.739 435.735L291.745 435.72C291.756 435.693 291.767 435.666 291.779 435.64L291.788 435.623C291.8 435.598 291.813 435.574 291.827 435.55C291.844 435.521 291.863 435.493 291.883 435.467L291.89 435.458C291.907 435.434 291.926 435.411 291.946 435.389C291.968 435.365 291.99 435.342 292.014 435.32L292.014 435.32C292.03 435.306 292.046 435.293 292.062 435.281C292.072 435.273 292.081 435.265 292.09 435.258C292.107 435.246 292.125 435.234 292.143 435.223C292.152 435.217 292.161 435.211 292.171 435.205C292.186 435.196 292.201 435.188 292.217 435.181C292.23 435.173 292.243 435.167 292.257 435.16C292.272 435.154 292.287 435.148 292.302 435.142C292.316 435.137 292.331 435.131 292.345 435.126C292.359 435.122 292.373 435.118 292.387 435.114C292.404 435.109 292.42 435.105 292.436 435.101C292.454 435.098 292.472 435.095 292.49 435.093C292.503 435.091 292.516 435.089 292.528 435.087H292.53L292.531 435.087L296.044 434.754C296.125 434.421 296.267 434.141 296.457 433.941C296.647 433.742 296.877 433.631 297.124 433.621C297.248 433.616 297.376 433.636 297.502 433.682C297.843 433.807 298.16 434.109 298.393 434.531L299.756 434.402L295.634 420.058L295.634 420.058ZM283.665 420.94C284.107 420.95 284.482 421.056 284.725 421.241C284.969 421.425 285.067 421.677 285.002 421.952C284.928 422.268 284.644 422.593 284.215 422.854C283.785 423.114 283.243 423.29 282.71 423.342C282.445 423.368 282.191 423.363 281.961 423.327C281.731 423.291 281.53 423.224 281.369 423.132C281.208 423.039 281.091 422.922 281.024 422.787C280.957 422.652 280.941 422.502 280.978 422.345C281.015 422.189 281.103 422.028 281.238 421.874C281.373 421.719 281.552 421.573 281.765 421.444C281.978 421.315 282.221 421.205 282.479 421.121C282.737 421.037 283.006 420.981 283.271 420.955C283.405 420.942 283.537 420.937 283.664 420.94H283.665ZM294.139 423.665C294.264 423.66 294.392 423.681 294.518 423.726C294.888 423.861 295.23 424.204 295.467 424.681C295.704 425.158 295.818 425.729 295.784 426.269C295.766 426.536 295.713 426.788 295.627 427.01C295.541 427.231 295.424 427.418 295.282 427.56C295.14 427.702 294.976 427.796 294.8 427.837C294.624 427.878 294.439 427.865 294.256 427.798C294.073 427.732 293.894 427.613 293.731 427.449C293.569 427.286 293.424 427.08 293.307 426.844C293.189 426.608 293.101 426.346 293.046 426.073C292.992 425.801 292.973 425.523 292.99 425.256C293.019 424.811 293.146 424.414 293.354 424.127C293.562 423.839 293.838 423.677 294.139 423.665ZM271.852 427.624L276.763 440.849L286.612 445.529L281.806 430.977L271.852 427.624V427.624ZM287.307 429.644C287.432 429.639 287.56 429.659 287.686 429.705C288.056 429.839 288.398 430.183 288.635 430.66C288.872 431.136 288.986 431.708 288.951 432.248C288.934 432.515 288.881 432.767 288.795 432.988C288.709 433.21 288.592 433.397 288.45 433.539C288.308 433.681 288.144 433.775 287.968 433.816C287.792 433.857 287.607 433.843 287.424 433.777C287.054 433.642 286.712 433.299 286.475 432.822C286.237 432.345 286.124 431.774 286.158 431.234C286.187 430.789 286.315 430.393 286.522 430.106C286.73 429.818 287.006 429.656 287.307 429.644ZM279.457 431.152C279.716 431.137 280.04 431.307 280.368 431.63C280.695 431.952 281.002 432.405 281.228 432.899C281.348 433.161 281.443 433.428 281.505 433.683C281.568 433.938 281.598 434.177 281.594 434.387C281.59 434.597 281.552 434.773 281.481 434.905C281.411 435.037 281.31 435.123 281.184 435.157C280.93 435.227 280.59 435.084 280.239 434.759C279.888 434.435 279.554 433.955 279.312 433.426C279.07 432.898 278.938 432.363 278.947 431.939C278.955 431.516 279.102 431.239 279.356 431.169C279.388 431.16 279.422 431.154 279.457 431.152ZM306.983 435.812L295.267 436.922L307.156 446.184L319.028 444.219L306.983 435.812V435.812ZM276.722 436.931C276.981 436.915 277.306 437.085 277.634 437.408C277.961 437.731 278.268 438.184 278.494 438.678C278.737 439.207 278.868 439.742 278.86 440.166C278.852 440.589 278.704 440.866 278.45 440.936C278.196 441.006 277.856 440.863 277.505 440.538C277.154 440.213 276.82 439.734 276.578 439.205C276.336 438.676 276.204 438.141 276.213 437.718C276.221 437.294 276.368 437.017 276.622 436.947C276.654 436.939 276.688 436.933 276.723 436.931L276.722 436.931ZM293.169 437.836L288.828 455.704L300.911 467.229L305.838 447.706L293.169 437.836V437.836ZM306.44 439.13C306.765 439.137 307.122 439.191 307.48 439.288C307.839 439.384 308.188 439.521 308.498 439.685C308.749 439.817 308.968 439.965 309.144 440.12C309.319 440.275 309.447 440.433 309.521 440.586C309.595 440.74 309.613 440.885 309.574 441.013C309.535 441.142 309.439 441.251 309.293 441.335C309.147 441.42 308.954 441.477 308.723 441.504C308.492 441.531 308.229 441.527 307.949 441.493C307.668 441.459 307.376 441.395 307.089 441.304C306.802 441.214 306.525 441.099 306.275 440.967C305.769 440.699 305.401 440.374 305.252 440.065C305.103 439.755 305.185 439.486 305.479 439.316C305.703 439.187 306.038 439.122 306.44 439.131L306.44 439.13ZM320.297 446.118L307.665 448.209L302.771 467.598L314.925 463.916L320.297 446.118ZM301.297 447.369C301.445 447.37 301.594 447.406 301.74 447.479C301.953 447.584 302.156 447.762 302.339 448.004C302.522 448.246 302.68 448.546 302.805 448.887C302.93 449.228 303.019 449.604 303.067 449.993C303.115 450.382 303.121 450.777 303.086 451.155C303.013 451.917 302.773 452.564 302.418 452.953C302.063 453.341 301.623 453.44 301.193 453.228C300.981 453.123 300.777 452.944 300.595 452.703C300.412 452.461 300.254 452.161 300.129 451.82C300.004 451.478 299.915 451.102 299.867 450.713C299.818 450.324 299.812 449.93 299.848 449.552C299.908 448.924 300.082 448.37 300.344 447.976C300.605 447.582 300.94 447.369 301.297 447.369ZM317.4 448.718C317.741 448.707 318.024 448.875 318.202 449.196C318.412 449.574 318.461 450.133 318.34 450.751C318.219 451.369 317.937 451.995 317.557 452.492C317.176 452.988 316.728 453.314 316.311 453.399C315.894 453.483 315.542 453.318 315.332 452.941C315.123 452.564 315.073 452.005 315.194 451.387C315.315 450.769 315.597 450.143 315.977 449.646C316.194 449.364 316.434 449.134 316.68 448.973C316.927 448.813 317.173 448.725 317.4 448.718L317.4 448.718ZM310.221 449.954C310.562 449.942 310.845 450.111 311.023 450.432C311.232 450.81 311.282 451.369 311.161 451.987C311.04 452.605 310.758 453.231 310.377 453.727C309.997 454.224 309.549 454.55 309.131 454.634C308.714 454.719 308.362 454.554 308.153 454.177C307.943 453.799 307.894 453.24 308.015 452.622C308.136 452.004 308.418 451.378 308.798 450.882C309.015 450.6 309.255 450.37 309.501 450.209C309.748 450.048 309.994 449.961 310.221 449.954H310.221ZM292.037 451.495C292.185 451.496 292.334 451.533 292.48 451.605C292.693 451.71 292.896 451.889 293.079 452.13C293.262 452.372 293.42 452.672 293.545 453.013C293.67 453.355 293.759 453.731 293.807 454.12C293.855 454.509 293.862 454.903 293.826 455.281C293.79 455.658 293.712 456.011 293.598 456.32C293.483 456.629 293.334 456.886 293.158 457.079C292.983 457.272 292.784 457.395 292.574 457.442C292.364 457.489 292.146 457.46 291.933 457.354C291.721 457.249 291.517 457.071 291.335 456.829C291.152 456.587 290.994 456.287 290.869 455.946C290.744 455.605 290.655 455.229 290.607 454.84C290.559 454.451 290.552 454.056 290.588 453.679C290.648 453.05 290.822 452.497 291.084 452.102C291.345 451.708 291.68 451.495 292.037 451.495L292.037 451.495ZM314.222 458.549C314.563 458.538 314.845 458.707 315.023 459.028C315.233 459.405 315.283 459.964 315.162 460.582C315.041 461.2 314.759 461.826 314.378 462.323C313.998 462.819 313.549 463.146 313.132 463.23C312.715 463.314 312.363 463.15 312.154 462.772C311.944 462.395 311.895 461.836 312.016 461.218C312.137 460.6 312.418 459.974 312.799 459.477C313.015 459.195 313.255 458.965 313.502 458.804C313.748 458.644 313.994 458.556 314.222 458.549V458.549ZM306.872 460.808C307.213 460.797 307.495 460.965 307.673 461.286C307.883 461.664 307.932 462.223 307.811 462.841C307.69 463.459 307.409 464.085 307.028 464.582C306.84 464.827 306.633 465.034 306.419 465.19C306.205 465.345 305.989 465.447 305.782 465.488C305.575 465.53 305.383 465.511 305.215 465.433C305.047 465.354 304.907 465.217 304.803 465.03C304.594 464.653 304.544 464.094 304.665 463.476C304.786 462.858 305.068 462.232 305.449 461.735C305.665 461.453 305.905 461.224 306.152 461.063C306.398 460.902 306.644 460.815 306.872 460.808L306.872 460.808Z" fill="#1A3B5D"/>
</g>
<g opacity="0.07">
<path d="M310.58 744.763L299.077 753.909L309.087 757.281L320.719 747.189L310.58 744.763ZM322.388 748.365L310.051 758.79L315.388 773.982L316.28 773.119L316.722 771.298C316.423 771.082 316.167 770.73 315.994 770.3C315.822 769.87 315.744 769.387 315.773 768.928C315.802 768.483 315.93 768.087 316.137 767.799C316.345 767.512 316.621 767.35 316.923 767.338C317.048 767.333 317.175 767.353 317.301 767.399C317.412 767.44 317.521 767.5 317.626 767.578L318.456 764.162C318.466 764.121 318.479 764.081 318.493 764.041L318.499 764.026C318.509 763.999 318.52 763.973 318.533 763.947L318.542 763.929C318.554 763.905 318.567 763.88 318.581 763.857C318.598 763.828 318.617 763.8 318.636 763.773L318.643 763.765C318.661 763.741 318.68 763.718 318.7 763.696C318.721 763.672 318.744 763.649 318.768 763.627L318.768 763.627C318.784 763.613 318.8 763.6 318.816 763.587C318.825 763.579 318.835 763.572 318.844 763.564C318.861 763.552 318.879 763.54 318.896 763.53C318.906 763.523 318.915 763.517 318.925 763.511C318.94 763.503 318.955 763.495 318.971 763.487C318.984 763.48 318.997 763.473 319.01 763.467C319.025 763.46 319.041 763.454 319.056 763.449C319.07 763.443 319.084 763.438 319.099 763.432C319.113 763.428 319.127 763.424 319.141 763.421C319.157 763.416 319.174 763.412 319.19 763.408C319.208 763.404 319.226 763.402 319.244 763.399C319.256 763.397 319.269 763.395 319.282 763.394H319.283L319.284 763.393L322.798 763.06C322.879 762.728 323.021 762.447 323.211 762.248C323.401 762.049 323.631 761.938 323.877 761.927C324.002 761.922 324.13 761.943 324.256 761.989C324.597 762.114 324.913 762.416 325.147 762.838L326.51 762.709L322.388 748.364L322.388 748.365ZM310.418 749.246C310.861 749.257 311.235 749.363 311.479 749.547C311.723 749.732 311.821 749.983 311.756 750.259C311.682 750.575 311.398 750.899 310.968 751.16C310.538 751.421 309.997 751.597 309.463 751.649C309.199 751.675 308.945 751.669 308.714 751.633C308.484 751.597 308.283 751.531 308.122 751.438C307.962 751.346 307.844 751.229 307.777 751.094C307.71 750.959 307.695 750.809 307.732 750.652C307.768 750.495 307.857 750.335 307.992 750.18C308.127 750.026 308.306 749.879 308.519 749.75C308.732 749.621 308.975 749.512 309.233 749.428C309.491 749.344 309.76 749.287 310.024 749.261C310.158 749.248 310.29 749.243 310.418 749.246H310.418ZM320.893 751.972C321.018 751.967 321.145 751.987 321.271 752.033C321.642 752.167 321.983 752.511 322.221 752.988C322.458 753.464 322.572 754.036 322.537 754.576C322.52 754.843 322.467 755.095 322.381 755.316C322.295 755.538 322.177 755.725 322.036 755.867C321.894 756.009 321.73 756.103 321.554 756.144C321.378 756.185 321.193 756.171 321.01 756.105C320.826 756.038 320.648 755.92 320.485 755.756C320.322 755.592 320.178 755.386 320.06 755.15C319.943 754.914 319.854 754.652 319.8 754.38C319.746 754.107 319.727 753.83 319.744 753.562C319.772 753.117 319.9 752.721 320.108 752.433C320.315 752.146 320.591 751.984 320.893 751.972ZM298.606 755.931L303.517 769.156L313.365 773.835L308.559 759.284L298.606 755.93V755.931ZM314.061 757.95C314.186 757.945 314.313 757.966 314.44 758.012C314.81 758.146 315.151 758.489 315.389 758.966C315.626 759.443 315.74 760.014 315.705 760.554C315.688 760.821 315.635 761.073 315.549 761.295C315.463 761.516 315.345 761.703 315.204 761.845C315.062 761.987 314.898 762.081 314.722 762.122C314.546 762.163 314.361 762.15 314.178 762.083C313.807 761.949 313.466 761.606 313.229 761.129C312.991 760.652 312.877 760.081 312.912 759.541C312.941 759.096 313.068 758.699 313.276 758.412C313.483 758.125 313.759 757.963 314.061 757.95ZM306.21 759.459C306.469 759.443 306.794 759.613 307.121 759.936C307.449 760.259 307.756 760.712 307.982 761.206C308.102 761.468 308.196 761.734 308.259 761.989C308.322 762.245 308.352 762.484 308.348 762.694C308.344 762.903 308.305 763.079 308.235 763.211C308.165 763.344 308.064 763.429 307.938 763.464C307.684 763.534 307.344 763.391 306.992 763.066C306.641 762.741 306.308 762.262 306.066 761.733C305.823 761.204 305.692 760.669 305.7 760.246C305.709 759.823 305.856 759.546 306.11 759.475C306.142 759.467 306.175 759.461 306.21 759.459ZM333.737 764.118L322.021 765.228L333.91 774.49L345.782 772.525L333.737 764.118V764.118ZM303.476 765.237C303.735 765.222 304.06 765.392 304.387 765.715C304.715 766.038 305.022 766.49 305.248 766.985C305.491 767.514 305.622 768.049 305.614 768.472C305.605 768.896 305.458 769.173 305.204 769.243C304.95 769.312 304.61 769.169 304.258 768.845C303.907 768.52 303.574 768.04 303.332 767.512C303.089 766.983 302.958 766.448 302.966 766.024C302.975 765.601 303.122 765.324 303.376 765.254C303.408 765.245 303.442 765.24 303.476 765.238L303.476 765.237ZM319.923 766.143L315.582 784.011L327.665 795.536L332.592 776.013L319.923 766.143V766.143ZM333.194 767.437C333.518 767.444 333.875 767.498 334.234 767.594C334.593 767.691 334.942 767.827 335.252 767.991C335.503 768.124 335.722 768.272 335.897 768.427C336.073 768.581 336.201 768.74 336.275 768.893C336.349 769.046 336.367 769.191 336.328 769.32C336.288 769.448 336.193 769.558 336.047 769.642C335.901 769.726 335.707 769.783 335.477 769.81C335.246 769.837 334.983 769.834 334.703 769.799C334.422 769.765 334.13 769.701 333.843 769.611C333.556 769.521 333.279 769.406 333.028 769.273C332.523 769.005 332.155 768.681 332.006 768.371C331.856 768.062 331.938 767.793 332.233 767.623C332.457 767.493 332.792 767.429 333.194 767.437L333.194 767.437ZM347.051 774.424L334.418 776.515L329.525 795.905L341.679 792.223L347.051 774.424ZM328.051 775.676C328.199 775.676 328.348 775.713 328.494 775.785C328.707 775.89 328.91 776.069 329.093 776.311C329.275 776.552 329.434 776.852 329.558 777.194C329.683 777.535 329.773 777.911 329.821 778.3C329.869 778.689 329.875 779.084 329.839 779.461C329.767 780.223 329.527 780.87 329.172 781.259C328.817 781.648 328.376 781.747 327.947 781.535C327.735 781.429 327.531 781.251 327.348 781.009C327.166 780.768 327.007 780.468 326.883 780.126C326.758 779.785 326.669 779.409 326.62 779.02C326.572 778.631 326.566 778.236 326.602 777.859C326.662 777.23 326.836 776.677 327.097 776.283C327.359 775.888 327.694 775.675 328.051 775.676ZM344.154 777.024C344.495 777.013 344.778 777.182 344.956 777.503C345.165 777.88 345.215 778.44 345.094 779.058C344.973 779.675 344.691 780.302 344.311 780.798C343.93 781.295 343.482 781.621 343.065 781.705C342.647 781.79 342.295 781.625 342.086 781.248C341.876 780.87 341.827 780.311 341.948 779.693C342.069 779.075 342.351 778.449 342.731 777.953C342.947 777.671 343.188 777.441 343.434 777.28C343.68 777.119 343.927 777.032 344.154 777.025L344.154 777.024ZM336.975 778.26C337.316 778.249 337.598 778.418 337.777 778.739C337.986 779.116 338.036 779.675 337.915 780.293C337.794 780.911 337.512 781.537 337.131 782.034C336.751 782.53 336.302 782.857 335.885 782.941C335.468 783.025 335.116 782.861 334.907 782.483C334.697 782.106 334.648 781.547 334.769 780.929C334.89 780.311 335.172 779.685 335.552 779.188C335.768 778.906 336.009 778.676 336.255 778.516C336.501 778.355 336.747 778.268 336.975 778.26H336.975ZM318.791 779.802C318.939 779.802 319.088 779.839 319.234 779.912C319.447 780.017 319.65 780.195 319.833 780.437C320.015 780.679 320.174 780.979 320.299 781.32C320.424 781.661 320.513 782.037 320.561 782.426C320.609 782.815 320.615 783.21 320.579 783.587C320.544 783.965 320.466 784.318 320.352 784.627C320.237 784.935 320.088 785.193 319.912 785.386C319.736 785.578 319.538 785.702 319.327 785.749C319.117 785.796 318.9 785.766 318.687 785.661C318.475 785.556 318.271 785.377 318.089 785.136C317.906 784.894 317.748 784.594 317.623 784.253C317.498 783.911 317.409 783.535 317.36 783.146C317.312 782.757 317.306 782.363 317.342 781.985C317.402 781.357 317.576 780.803 317.837 780.409C318.099 780.014 318.434 779.801 318.791 779.802L318.791 779.802ZM340.976 786.856C341.316 786.845 341.599 787.013 341.777 787.334C341.987 787.712 342.036 788.271 341.915 788.889C341.794 789.507 341.513 790.133 341.132 790.63C340.751 791.126 340.303 791.452 339.886 791.537C339.469 791.621 339.117 791.456 338.907 791.079C338.698 790.701 338.648 790.142 338.769 789.524C338.89 788.906 339.172 788.28 339.553 787.784C339.769 787.502 340.009 787.272 340.256 787.111C340.502 786.95 340.748 786.863 340.976 786.856V786.856ZM333.625 789.114C333.966 789.103 334.249 789.272 334.427 789.593C334.636 789.97 334.686 790.529 334.565 791.147C334.444 791.765 334.162 792.392 333.782 792.888C333.593 793.134 333.386 793.341 333.172 793.496C332.959 793.652 332.742 793.753 332.536 793.795C332.329 793.837 332.136 793.818 331.968 793.739C331.801 793.661 331.661 793.524 331.557 793.337C331.348 792.96 331.298 792.401 331.419 791.783C331.54 791.165 331.822 790.539 332.203 790.042C332.419 789.76 332.659 789.53 332.905 789.369C333.152 789.209 333.398 789.121 333.626 789.114L333.625 789.114Z" fill="#1A3B5D"/>
</g>
<g opacity="0.07">
<path d="M14.5053 413.49L3.00248 422.636L13.0118 426.008L24.644 415.915L14.5053 413.49ZM26.3132 417.092L13.9764 427.517L19.3136 442.709L20.2055 441.845L20.6475 440.025C20.3482 439.809 20.0917 439.457 19.9195 439.027C19.7473 438.597 19.6695 438.114 19.6986 437.655C19.7272 437.21 19.8551 436.814 20.0626 436.526C20.2702 436.239 20.546 436.077 20.8479 436.065C20.9727 436.059 21.0999 436.08 21.2262 436.126C21.3371 436.167 21.4463 436.227 21.5515 436.305L22.3813 432.889C22.3914 432.848 22.4037 432.807 22.4182 432.768L22.4242 432.753C22.4344 432.726 22.4455 432.7 22.4577 432.674L22.4671 432.656C22.4791 432.631 22.492 432.607 22.5058 432.584C22.5231 432.555 22.5417 432.527 22.5616 432.5L22.5685 432.491C22.5863 432.467 22.6052 432.445 22.6249 432.423C22.6465 432.398 22.6692 432.375 22.6928 432.354L22.6932 432.354C22.7089 432.34 22.7249 432.327 22.7413 432.314C22.7505 432.306 22.7597 432.299 22.7691 432.291C22.7863 432.279 22.8038 432.267 22.8216 432.256C22.8309 432.25 22.8403 432.244 22.8498 432.238C22.8649 432.23 22.8803 432.222 22.8958 432.214C22.9089 432.207 22.9221 432.2 22.9355 432.193C22.9506 432.187 22.9658 432.181 22.9812 432.176C22.9953 432.17 23.0096 432.164 23.024 432.159C23.038 432.155 23.0521 432.151 23.0662 432.148C23.0825 432.143 23.0989 432.138 23.1154 432.134C23.133 432.131 23.1508 432.128 23.1687 432.126C23.1815 432.124 23.1944 432.122 23.2073 432.121H23.2084L23.2094 432.12L26.7233 431.787C26.8038 431.454 26.9463 431.174 27.1361 430.975C27.3259 430.775 27.556 430.665 27.8025 430.654C27.9274 430.649 28.0547 430.67 28.181 430.716C28.5217 430.84 28.8386 431.142 29.0721 431.565L30.4352 431.436L26.3133 417.091L26.3132 417.092ZM14.3436 417.973C14.7858 417.983 15.1605 418.09 15.4043 418.274C15.648 418.459 15.7458 418.71 15.681 418.985C15.6067 419.302 15.3233 419.626 14.8934 419.887C14.4634 420.148 13.922 420.323 13.3884 420.376C13.1241 420.402 12.8697 420.396 12.6396 420.36C12.4096 420.324 12.2084 420.258 12.0476 420.165C11.8868 420.073 11.7695 419.956 11.7024 419.821C11.6354 419.686 11.6198 419.536 11.6567 419.379C11.6935 419.222 11.782 419.062 11.9171 418.907C12.0522 418.752 12.2314 418.606 12.4443 418.477C12.6572 418.348 12.8997 418.238 13.1579 418.154C13.4162 418.071 13.6851 418.014 13.9494 417.988C14.0836 417.975 14.2156 417.97 14.3434 417.973H14.3436ZM24.8183 420.698C24.9431 420.693 25.0704 420.714 25.1966 420.76C25.567 420.894 25.9084 421.238 26.1458 421.714C26.3832 422.191 26.4971 422.762 26.4624 423.302C26.4452 423.57 26.3921 423.821 26.306 424.043C26.2199 424.264 26.1026 424.452 25.9608 424.594C25.8189 424.736 25.6553 424.83 25.4793 424.871C25.3032 424.911 25.1182 424.898 24.9348 424.832C24.7514 424.765 24.5732 424.647 24.4103 424.483C24.2474 424.319 24.103 424.113 23.9855 423.877C23.8679 423.641 23.7795 423.379 23.7251 423.107C23.6708 422.834 23.6517 422.556 23.6688 422.289C23.6974 421.844 23.8253 421.447 24.0329 421.16C24.2405 420.873 24.5164 420.711 24.8183 420.698ZM2.53116 424.657L7.44214 437.883L17.2905 442.562L12.4844 428.01L2.53116 424.657V424.657ZM17.9863 426.677C18.1111 426.672 18.2385 426.693 18.3648 426.738C18.7351 426.873 19.0765 427.216 19.3139 427.693C19.5512 428.17 19.6651 428.741 19.6304 429.281C19.6132 429.548 19.56 429.8 19.474 430.021C19.3879 430.243 19.2706 430.43 19.1288 430.572C18.987 430.714 18.8234 430.808 18.6473 430.849C18.4713 430.89 18.2863 430.877 18.1029 430.81C17.7325 430.676 17.3911 430.332 17.1537 429.856C16.9163 429.379 16.8024 428.808 16.8371 428.268C16.8657 427.823 16.9936 427.426 17.2011 427.139C17.4086 426.852 17.6844 426.69 17.9863 426.677ZM10.1354 428.186C10.3944 428.17 10.7192 428.34 11.0466 428.663C11.374 428.986 11.6808 429.438 11.9073 429.933C12.0273 430.195 12.1214 430.461 12.1841 430.716C12.2468 430.971 12.277 431.211 12.2728 431.42C12.2687 431.63 12.2304 431.806 12.1601 431.938C12.0897 432.07 11.9887 432.156 11.8629 432.191C11.6087 432.261 11.2687 432.117 10.9176 431.793C10.5665 431.468 10.2332 430.989 9.99086 430.46C9.74864 429.931 9.61724 429.396 9.62555 428.973C9.63385 428.549 9.78119 428.272 10.0352 428.202C10.0671 428.193 10.1005 428.188 10.1354 428.186ZM37.6618 432.845L25.9463 433.955L37.8353 443.217L49.707 441.252L37.6618 432.845V432.845ZM7.40118 433.964C7.66021 433.948 7.98498 434.119 8.31245 434.441C8.63992 434.764 8.94672 435.217 9.1733 435.712C9.41565 436.24 9.54712 436.775 9.53879 437.199C9.53046 437.622 9.38301 437.899 9.12889 437.969C8.8747 438.039 8.53467 437.896 8.1836 437.571C7.83253 437.247 7.49917 436.767 7.25685 436.238C7.01456 435.709 6.88313 435.175 6.89146 434.751C6.89979 434.328 7.0472 434.051 7.30127 433.981C7.33325 433.972 7.36673 433.967 7.4016 433.964L7.40118 433.964ZM23.8483 434.87L19.5073 452.738L31.5899 464.263L36.5171 444.74L23.8483 434.87V434.87ZM37.1193 436.164C37.4435 436.17 37.8005 436.224 38.1591 436.321C38.5177 436.418 38.8672 436.554 39.1773 436.718C39.4277 436.851 39.647 436.999 39.8224 437.153C39.9979 437.308 40.1262 437.467 40.2 437.62C40.2739 437.773 40.2918 437.918 40.2527 438.047C40.2136 438.175 40.1183 438.285 39.9723 438.369C39.8263 438.453 39.6324 438.51 39.4017 438.537C39.171 438.564 38.908 438.561 38.6277 438.526C38.3473 438.492 38.0552 438.428 37.768 438.338C37.4807 438.247 37.204 438.133 36.9535 438C36.4478 437.732 36.0798 437.408 35.9307 437.098C35.7816 436.789 35.8634 436.519 36.1582 436.349C36.3823 436.22 36.7173 436.156 37.1192 436.164L37.1193 436.164ZM50.9764 443.151L38.3436 445.242L33.4502 464.631L45.6041 460.95L50.9764 443.151ZM31.9762 444.403C32.1238 444.403 32.2728 444.44 32.4191 444.512C32.6317 444.617 32.8351 444.796 33.0177 445.037C33.2004 445.279 33.3587 445.579 33.4836 445.92C33.6085 446.262 33.6976 446.638 33.7458 447.027C33.794 447.416 33.8003 447.81 33.7644 448.188C33.6918 448.95 33.4518 449.597 33.0969 449.986C32.7421 450.375 32.3016 450.474 31.8723 450.261C31.6597 450.156 31.4563 449.978 31.2736 449.736C31.0909 449.494 30.9326 449.194 30.8077 448.853C30.6828 448.512 30.5936 448.136 30.5455 447.747C30.4973 447.358 30.491 446.963 30.5269 446.586C30.5867 445.957 30.7608 445.404 31.0225 445.009C31.2843 444.615 31.6193 444.402 31.9762 444.403ZM48.0792 445.751C48.4202 445.74 48.7028 445.909 48.8811 446.23C49.0905 446.607 49.1402 447.166 49.0191 447.784C48.8981 448.402 48.6163 449.028 48.2357 449.525C47.8551 450.022 47.4069 450.348 46.9897 450.432C46.5725 450.516 46.2205 450.352 46.011 449.974C45.8016 449.597 45.7519 449.038 45.873 448.42C45.994 447.802 46.2758 447.176 46.6564 446.679C46.8726 446.397 47.1128 446.167 47.3592 446.007C47.6056 445.846 47.8518 445.759 48.0793 445.751L48.0792 445.751ZM40.9 446.987C41.241 446.976 41.5235 447.145 41.7018 447.466C41.9112 447.843 41.9609 448.402 41.8398 449.02C41.7188 449.638 41.437 450.264 41.0564 450.761C40.6757 451.257 40.2275 451.584 39.8103 451.668C39.3932 451.752 39.0411 451.587 38.8317 451.21C38.6223 450.833 38.5727 450.274 38.6938 449.656C38.8148 449.038 39.0967 448.412 39.4773 447.915C39.6934 447.633 39.9337 447.403 40.1801 447.242C40.4264 447.082 40.6726 446.994 40.9001 446.987H40.9ZM22.7162 448.529C22.8639 448.529 23.013 448.566 23.1594 448.638C23.3719 448.744 23.5753 448.922 23.758 449.164C23.9406 449.405 24.0989 449.705 24.2238 450.047C24.3488 450.388 24.4378 450.764 24.486 451.153C24.5342 451.542 24.5405 451.937 24.5046 452.314C24.4687 452.692 24.3912 453.045 24.2767 453.353C24.1622 453.662 24.0128 453.92 23.8371 454.112C23.6614 454.305 23.4628 454.428 23.2526 454.476C23.0425 454.523 22.8249 454.493 22.6124 454.388C22.3998 454.283 22.1964 454.104 22.0137 453.862C21.831 453.621 21.6727 453.321 21.5478 452.979C21.4229 452.638 21.3338 452.262 21.2856 451.873C21.2374 451.484 21.2311 451.09 21.267 450.712C21.3268 450.084 21.5009 449.53 21.7626 449.136C22.0243 448.741 22.3592 448.528 22.7161 448.529L22.7162 448.529ZM44.9007 455.583C45.2416 455.572 45.5241 455.74 45.7023 456.061C45.9118 456.439 45.9615 456.998 45.8405 457.616C45.7194 458.234 45.4377 458.86 45.0571 459.356C44.6765 459.853 44.2283 460.179 43.8111 460.263C43.3939 460.348 43.0418 460.183 42.8325 459.806C42.623 459.428 42.5734 458.869 42.6944 458.251C42.8154 457.633 43.0972 457.007 43.4778 456.51C43.694 456.228 43.9342 455.999 44.1806 455.838C44.427 455.677 44.6732 455.59 44.9007 455.582V455.583ZM37.5506 457.841C37.8915 457.83 38.174 457.999 38.3521 458.32C38.5616 458.697 38.6113 459.256 38.4903 459.874C38.3693 460.492 38.0875 461.118 37.7069 461.615C37.5184 461.861 37.3114 462.067 37.0976 462.223C36.8838 462.379 36.6674 462.48 36.4608 462.522C36.2543 462.564 36.0615 462.545 35.8936 462.466C35.7257 462.387 35.5859 462.251 35.4823 462.064C35.2729 461.686 35.2232 461.127 35.3443 460.509C35.4653 459.891 35.7471 459.265 36.1277 458.769C36.3439 458.487 36.5842 458.257 36.8306 458.096C37.077 457.936 37.3231 457.848 37.5507 457.841L37.5506 457.841Z" fill="#1A3B5D"/>
</g>
<g opacity="0.07">
<path d="M72.4718 578.632L60.9689 587.778L70.9783 591.15L82.6104 581.058L72.4718 578.632ZM84.2796 582.234L71.9429 592.659L77.2801 607.851L78.1719 606.988L78.614 605.167C78.3147 604.951 78.0582 604.599 77.886 604.169C77.7138 603.739 77.6359 603.256 77.6651 602.797C77.6937 602.352 77.8215 601.956 78.0291 601.668C78.2366 601.381 78.5125 601.219 78.8143 601.207C78.9391 601.202 79.0664 601.222 79.1926 601.268C79.3035 601.309 79.4128 601.369 79.518 601.447L80.3478 598.031C80.3578 597.99 80.3702 597.95 80.3846 597.91L80.3907 597.895C80.4009 597.868 80.412 597.842 80.4242 597.816L80.4336 597.798C80.4456 597.774 80.4585 597.749 80.4722 597.726C80.4896 597.697 80.5082 597.669 80.528 597.642L80.5349 597.633C80.5528 597.61 80.5716 597.587 80.5914 597.565C80.613 597.541 80.6357 597.518 80.6593 597.496L80.6597 597.496C80.6754 597.482 80.6914 597.469 80.7078 597.456C80.7169 597.448 80.7262 597.441 80.7356 597.433C80.7527 597.421 80.7702 597.409 80.788 597.398C80.7974 597.392 80.8068 597.386 80.8163 597.38C80.8314 597.372 80.8467 597.364 80.8622 597.356C80.8753 597.349 80.8886 597.342 80.902 597.336C80.917 597.329 80.9323 597.323 80.9476 597.318C80.9618 597.312 80.9761 597.306 80.9905 597.301C81.0045 597.297 81.0185 597.293 81.0327 597.29C81.049 597.285 81.0653 597.28 81.0818 597.277C81.0995 597.273 81.1173 597.271 81.1351 597.268C81.148 597.266 81.1609 597.264 81.1738 597.263H81.1748L81.1759 597.262L84.6898 596.929C84.7703 596.597 84.9128 596.316 85.1026 596.117C85.2923 595.918 85.5224 595.807 85.7689 595.796C85.8938 595.791 86.0212 595.812 86.1475 595.858C86.4881 595.983 86.8051 596.285 87.0386 596.707L88.4017 596.578L84.2797 582.233L84.2796 582.234ZM72.31 583.115C72.7522 583.126 73.127 583.232 73.3707 583.416C73.6145 583.601 73.7123 583.852 73.6475 584.127C73.5731 584.444 73.2898 584.768 72.8598 585.029C72.4299 585.29 71.8885 585.466 71.3548 585.518C71.0906 585.544 70.8361 585.538 70.6061 585.502C70.376 585.466 70.1749 585.4 70.0141 585.307C69.8533 585.215 69.736 585.098 69.6689 584.963C69.6018 584.828 69.5863 584.678 69.6232 584.521C69.6599 584.364 69.7484 584.204 69.8836 584.049C70.0187 583.894 70.1978 583.748 70.4107 583.619C70.6236 583.49 70.8661 583.38 71.1244 583.297C71.3826 583.213 71.6516 583.156 71.9158 583.13C72.05 583.117 72.182 583.112 72.3098 583.115H72.31ZM82.7848 585.841C82.9096 585.835 83.0368 585.856 83.1631 585.902C83.5335 586.036 83.8749 586.38 84.1123 586.857C84.3497 587.333 84.4635 587.905 84.4289 588.444C84.4117 588.712 84.3585 588.963 84.2725 589.185C84.1864 589.407 84.0691 589.594 83.9272 589.736C83.7854 589.878 83.6218 589.972 83.4457 590.013C83.2697 590.053 83.0847 590.04 82.9013 589.974C82.7179 589.907 82.5396 589.789 82.3767 589.625C82.2138 589.461 82.0695 589.255 81.9519 589.019C81.8344 588.783 81.7459 588.521 81.6916 588.249C81.6372 587.976 81.6181 587.699 81.6353 587.431C81.6639 586.986 81.7918 586.59 81.9993 586.302C82.2069 586.015 82.4829 585.853 82.7848 585.841ZM60.4976 589.799L65.4086 603.025L75.2569 607.704L70.4509 593.152L60.4976 589.799V589.799ZM75.9527 591.819C76.0776 591.814 76.2049 591.835 76.3312 591.881C76.7016 592.015 77.043 592.358 77.2803 592.835C77.5177 593.312 77.6315 593.883 77.5968 594.423C77.5796 594.69 77.5265 594.942 77.4405 595.164C77.3544 595.385 77.2371 595.572 77.0953 595.714C76.9534 595.856 76.7898 595.95 76.6138 595.991C76.4378 596.032 76.2528 596.019 76.0694 595.952C75.699 595.818 75.3575 595.475 75.1201 594.998C74.8828 594.521 74.7689 593.95 74.8036 593.41C74.8322 592.965 74.96 592.568 75.1676 592.281C75.3751 591.994 75.6509 591.832 75.9527 591.819ZM68.1019 593.328C68.3609 593.312 68.6856 593.482 69.013 593.805C69.3405 594.128 69.6472 594.581 69.8738 595.075C69.9938 595.337 70.0878 595.603 70.1505 595.858C70.2133 596.113 70.2434 596.353 70.2393 596.562C70.2352 596.772 70.1969 596.948 70.1265 597.08C70.0562 597.213 69.9552 597.298 69.8294 597.333C69.5752 597.403 69.2351 597.26 68.884 596.935C68.533 596.61 68.1996 596.131 67.9573 595.602C67.7151 595.073 67.5837 594.538 67.592 594.115C67.6003 593.692 67.7477 593.414 68.0016 593.344C68.0336 593.335 68.067 593.33 68.1019 593.328ZM95.6282 597.987L83.9128 599.097L95.8017 608.359L107.673 606.394L95.6282 597.987V597.987ZM65.3676 599.106C65.6267 599.091 65.9514 599.261 66.2789 599.584C66.6064 599.906 66.9132 600.359 67.1398 600.854C67.3821 601.383 67.5136 601.918 67.5052 602.341C67.4969 602.764 67.3495 603.042 67.0953 603.112C66.8412 603.181 66.5011 603.038 66.1501 602.714C65.799 602.389 65.4656 601.909 65.2233 601.38C64.981 600.852 64.8496 600.317 64.8579 599.893C64.8663 599.47 65.0137 599.193 65.2677 599.123C65.2997 599.114 65.3332 599.109 65.3681 599.107L65.3676 599.106ZM81.8147 600.012L77.4737 617.88L89.5564 629.405L94.4836 609.882L81.8147 600.012V600.012ZM95.0857 601.306C95.41 601.313 95.7669 601.367 96.1255 601.463C96.4842 601.56 96.8337 601.696 97.1438 601.86C97.3942 601.993 97.6134 602.141 97.7889 602.295C97.9644 602.45 98.0927 602.609 98.1665 602.762C98.2403 602.915 98.2582 603.06 98.2191 603.189C98.1801 603.317 98.0848 603.427 97.9388 603.511C97.7928 603.595 97.5989 603.652 97.3682 603.679C97.1375 603.706 96.8745 603.703 96.5941 603.668C96.3138 603.634 96.0217 603.57 95.7344 603.48C95.4472 603.389 95.1704 603.275 94.92 603.142C94.4142 602.874 94.0463 602.55 93.8972 602.24C93.748 601.931 93.8299 601.661 94.1247 601.491C94.3488 601.362 94.6837 601.298 95.0856 601.306L95.0857 601.306ZM108.943 608.293L96.31 610.384L91.4167 629.774L103.571 626.092L108.943 608.293ZM89.9426 609.545C90.0902 609.545 90.2392 609.582 90.3855 609.654C90.5981 609.759 90.8015 609.938 90.9842 610.18C91.1668 610.421 91.3252 610.721 91.4501 611.063C91.575 611.404 91.6641 611.78 91.7123 612.169C91.7605 612.558 91.7668 612.953 91.7309 613.33C91.6583 614.092 91.4182 614.739 91.0634 615.128C90.7085 615.517 90.268 615.616 89.8388 615.404C89.6262 615.298 89.4227 615.12 89.2401 614.878C89.0574 614.637 88.8991 614.337 88.7741 613.995C88.6492 613.654 88.5601 613.278 88.5119 612.889C88.4637 612.5 88.4574 612.105 88.4933 611.728C88.5532 611.099 88.7273 610.546 88.989 610.152C89.2508 609.757 89.5857 609.544 89.9426 609.545ZM106.046 610.893C106.387 610.882 106.669 611.051 106.848 611.372C107.057 611.749 107.107 612.308 106.986 612.926C106.865 613.544 106.583 614.171 106.202 614.667C105.822 615.164 105.373 615.49 104.956 615.574C104.539 615.658 104.187 615.494 103.977 615.117C103.768 614.739 103.718 614.18 103.839 613.562C103.96 612.944 104.242 612.318 104.623 611.821C104.839 611.539 105.079 611.31 105.326 611.149C105.572 610.988 105.818 610.901 106.046 610.893L106.046 610.893ZM98.8665 612.129C99.2074 612.118 99.49 612.287 99.6683 612.608C99.8777 612.985 99.9273 613.544 99.8063 614.162C99.6853 614.78 99.4034 615.406 99.0228 615.903C98.6422 616.399 98.194 616.726 97.7768 616.81C97.3596 616.894 97.0076 616.73 96.7982 616.352C96.5888 615.975 96.5392 615.416 96.6603 614.798C96.7813 614.18 97.0631 613.554 97.4437 613.057C97.6599 612.775 97.9002 612.545 98.1465 612.385C98.3929 612.224 98.6391 612.137 98.8666 612.129H98.8665ZM80.6827 613.671C80.8304 613.671 80.9794 613.708 81.1258 613.78C81.3384 613.886 81.5418 614.064 81.7244 614.306C81.9071 614.548 82.0654 614.848 82.1903 615.189C82.3152 615.53 82.4043 615.906 82.4525 616.295C82.5006 616.684 82.5069 617.079 82.471 617.456C82.4351 617.834 82.3577 618.187 82.2432 618.495C82.1286 618.804 81.9792 619.062 81.8035 619.254C81.6278 619.447 81.4292 619.57 81.2191 619.618C81.009 619.665 80.7914 619.635 80.5788 619.53C80.3662 619.425 80.1628 619.246 79.9802 619.005C79.7975 618.763 79.6392 618.463 79.5143 618.122C79.3893 617.78 79.3003 617.404 79.2521 617.015C79.2039 616.626 79.1976 616.232 79.2335 615.854C79.2933 615.226 79.4673 614.672 79.729 614.278C79.9907 613.883 80.3257 613.67 80.6826 613.671L80.6827 613.671ZM102.867 620.725C103.208 620.714 103.491 620.882 103.669 621.203C103.878 621.581 103.928 622.14 103.807 622.758C103.686 623.376 103.404 624.002 103.024 624.498C102.643 624.995 102.195 625.321 101.778 625.405C101.36 625.49 101.008 625.325 100.799 624.948C100.589 624.57 100.54 624.011 100.661 623.393C100.782 622.775 101.064 622.149 101.444 621.653C101.66 621.371 101.901 621.141 102.147 620.98C102.394 620.819 102.64 620.732 102.867 620.725V620.725ZM95.517 622.983C95.8579 622.972 96.1404 623.141 96.3186 623.462C96.528 623.839 96.5777 624.398 96.4567 625.016C96.3357 625.634 96.054 626.26 95.6734 626.757C95.4849 627.003 95.2778 627.21 95.064 627.365C94.8502 627.521 94.6339 627.622 94.4273 627.664C94.2207 627.706 94.028 627.687 93.8601 627.608C93.6922 627.53 93.5524 627.393 93.4487 627.206C93.2393 626.829 93.1897 626.269 93.3107 625.652C93.4318 625.034 93.7136 624.407 94.0942 623.911C94.3104 623.629 94.5506 623.399 94.797 623.238C95.0434 623.078 95.2896 622.99 95.5171 622.983L95.517 622.983Z" fill="#1A3B5D"/>
</g>
<g opacity="0.07">
<path d="M322.174 133.638L310.671 142.784L320.68 146.156L332.312 136.064L322.174 133.638ZM333.981 137.24L321.645 147.665L326.982 162.858L327.874 161.994L328.316 160.173C328.016 159.957 327.76 159.606 327.588 159.175C327.416 158.745 327.338 158.262 327.367 157.804C327.395 157.358 327.523 156.962 327.731 156.675C327.938 156.387 328.214 156.225 328.516 156.213C328.641 156.208 328.768 156.228 328.894 156.274C329.005 156.315 329.114 156.375 329.22 156.453L330.049 153.037C330.06 152.996 330.072 152.956 330.086 152.916L330.092 152.902C330.103 152.875 330.114 152.848 330.126 152.822L330.135 152.804C330.147 152.78 330.16 152.756 330.174 152.732C330.191 152.703 330.21 152.675 330.23 152.648L330.237 152.64C330.255 152.616 330.273 152.593 330.293 152.571C330.315 152.547 330.337 152.524 330.361 152.502L330.361 152.502C330.377 152.488 330.393 152.475 330.41 152.462C330.419 152.454 330.428 152.447 330.437 152.439C330.454 152.427 330.472 152.416 330.49 152.405C330.499 152.398 330.508 152.392 330.518 152.386C330.533 152.378 330.548 152.37 330.564 152.362C330.577 152.355 330.59 152.348 330.604 152.342C330.619 152.335 330.634 152.33 330.649 152.324C330.664 152.318 330.678 152.313 330.692 152.308C330.706 152.303 330.72 152.299 330.734 152.296C330.751 152.291 330.767 152.287 330.784 152.283C330.801 152.279 330.819 152.277 330.837 152.275C330.85 152.272 330.863 152.27 330.876 152.269H330.877L330.878 152.268L334.392 151.936C334.472 151.603 334.615 151.322 334.804 151.123C334.994 150.924 335.224 150.813 335.471 150.803C335.596 150.797 335.723 150.818 335.849 150.864C336.19 150.989 336.507 151.291 336.74 151.713L338.103 151.584L333.981 137.24L333.981 137.24ZM322.012 138.121C322.454 138.132 322.829 138.238 323.072 138.423C323.316 138.607 323.414 138.858 323.349 139.134C323.275 139.45 322.992 139.774 322.562 140.035C322.132 140.296 321.59 140.472 321.057 140.524C320.792 140.55 320.538 140.545 320.308 140.508C320.078 140.472 319.877 140.406 319.716 140.314C319.555 140.221 319.438 140.104 319.371 139.969C319.304 139.834 319.288 139.684 319.325 139.527C319.362 139.37 319.45 139.21 319.585 139.055C319.72 138.901 319.9 138.755 320.112 138.625C320.325 138.496 320.568 138.387 320.826 138.303C321.084 138.219 321.353 138.162 321.618 138.137C321.752 138.124 321.884 138.118 322.012 138.121H322.012ZM332.486 140.847C332.611 140.842 332.739 140.862 332.865 140.908C333.235 141.043 333.577 141.386 333.814 141.863C334.051 142.339 334.165 142.911 334.131 143.451C334.113 143.718 334.06 143.97 333.974 144.191C333.888 144.413 333.771 144.6 333.629 144.742C333.487 144.884 333.323 144.978 333.147 145.019C332.971 145.06 332.786 145.046 332.603 144.98C332.42 144.913 332.241 144.795 332.078 144.631C331.916 144.467 331.771 144.261 331.654 144.025C331.536 143.789 331.448 143.528 331.393 143.255C331.339 142.983 331.32 142.705 331.337 142.437C331.366 141.992 331.493 141.596 331.701 141.308C331.909 141.021 332.185 140.859 332.486 140.847ZM310.199 144.806L315.11 158.031L324.959 162.71L320.153 148.159L310.199 144.806V144.806ZM325.654 146.826C325.779 146.82 325.907 146.841 326.033 146.887C326.403 147.021 326.745 147.365 326.982 147.841C327.219 148.318 327.333 148.889 327.299 149.429C327.281 149.697 327.228 149.948 327.142 150.17C327.056 150.391 326.939 150.578 326.797 150.72C326.655 150.862 326.492 150.957 326.316 150.997C326.139 151.038 325.954 151.025 325.771 150.959C325.401 150.824 325.059 150.481 324.822 150.004C324.584 149.527 324.471 148.956 324.505 148.416C324.534 147.971 324.662 147.574 324.869 147.287C325.077 147 325.353 146.838 325.654 146.826ZM317.804 148.334C318.063 148.318 318.387 148.488 318.715 148.811C319.042 149.134 319.349 149.587 319.575 150.081C319.696 150.343 319.79 150.609 319.852 150.864C319.915 151.12 319.945 151.359 319.941 151.569C319.937 151.778 319.899 151.954 319.828 152.086C319.758 152.219 319.657 152.305 319.531 152.339C319.277 152.409 318.937 152.266 318.586 151.941C318.235 151.616 317.901 151.137 317.659 150.608C317.417 150.079 317.285 149.544 317.294 149.121C317.302 148.698 317.449 148.421 317.703 148.351C317.735 148.342 317.769 148.336 317.804 148.334ZM345.33 152.994L333.615 154.103L345.503 163.366L357.375 161.401L345.33 152.993V152.994ZM315.069 154.113C315.328 154.097 315.653 154.267 315.981 154.59C316.308 154.913 316.615 155.365 316.841 155.86C317.084 156.389 317.215 156.924 317.207 157.347C317.199 157.771 317.051 158.048 316.797 158.118C316.543 158.188 316.203 158.044 315.852 157.72C315.501 157.395 315.167 156.916 314.925 156.387C314.683 155.858 314.551 155.323 314.56 154.899C314.568 154.476 314.715 154.199 314.969 154.129C315.001 154.12 315.035 154.115 315.07 154.113L315.069 154.113ZM331.516 155.018L327.175 172.886L339.258 184.411L344.185 164.888L331.516 155.018V155.018ZM344.787 156.312C345.112 156.319 345.469 156.373 345.827 156.469C346.186 156.566 346.535 156.702 346.846 156.866C347.096 156.999 347.315 157.147 347.491 157.302C347.666 157.456 347.794 157.615 347.868 157.768C347.942 157.921 347.96 158.066 347.921 158.195C347.882 158.323 347.787 158.433 347.64 158.517C347.495 158.601 347.301 158.658 347.07 158.685C346.839 158.713 346.576 158.709 346.296 158.675C346.016 158.64 345.723 158.576 345.436 158.486C345.149 158.396 344.872 158.281 344.622 158.148C344.116 157.881 343.748 157.556 343.599 157.247C343.45 156.937 343.532 156.668 343.826 156.498C344.05 156.369 344.385 156.304 344.787 156.312L344.787 156.312ZM358.645 163.3L346.012 165.39L341.118 184.78L353.272 181.098L358.645 163.3ZM339.644 164.551C339.792 164.551 339.941 164.588 340.087 164.66C340.3 164.766 340.503 164.944 340.686 165.186C340.869 165.427 341.027 165.727 341.152 166.069C341.277 166.41 341.366 166.786 341.414 167.175C341.462 167.564 341.468 167.959 341.433 168.336C341.36 169.099 341.12 169.745 340.765 170.134C340.41 170.523 339.97 170.622 339.54 170.41C339.328 170.305 339.124 170.126 338.942 169.884C338.759 169.643 338.601 169.343 338.476 169.001C338.351 168.66 338.262 168.284 338.214 167.895C338.165 167.506 338.159 167.111 338.195 166.734C338.255 166.106 338.429 165.552 338.691 165.158C338.952 164.763 339.287 164.55 339.644 164.551ZM355.747 165.9C356.088 165.888 356.371 166.057 356.549 166.378C356.759 166.756 356.808 167.315 356.687 167.933C356.566 168.551 356.284 169.177 355.904 169.673C355.523 170.17 355.075 170.496 354.658 170.58C354.241 170.665 353.889 170.5 353.679 170.123C353.47 169.745 353.42 169.186 353.541 168.568C353.662 167.95 353.944 167.324 354.325 166.828C354.541 166.546 354.781 166.316 355.027 166.155C355.274 165.994 355.52 165.907 355.748 165.9L355.747 165.9ZM348.568 167.135C348.909 167.124 349.192 167.293 349.37 167.614C349.579 167.991 349.629 168.55 349.508 169.168C349.387 169.786 349.105 170.413 348.725 170.909C348.344 171.406 347.896 171.732 347.479 171.816C347.061 171.9 346.709 171.736 346.5 171.358C346.291 170.981 346.241 170.422 346.362 169.804C346.483 169.186 346.765 168.56 347.145 168.063C347.362 167.781 347.602 167.551 347.848 167.391C348.095 167.23 348.341 167.143 348.568 167.135H348.568ZM330.384 168.677C330.532 168.677 330.681 168.714 330.828 168.787C331.04 168.892 331.244 169.07 331.426 169.312C331.609 169.554 331.767 169.854 331.892 170.195C332.017 170.536 332.106 170.912 332.154 171.301C332.202 171.69 332.209 172.085 332.173 172.463C332.137 172.84 332.059 173.193 331.945 173.502C331.83 173.81 331.681 174.068 331.505 174.261C331.33 174.453 331.131 174.577 330.921 174.624C330.711 174.671 330.493 174.641 330.281 174.536C330.068 174.431 329.865 174.252 329.682 174.011C329.499 173.769 329.341 173.469 329.216 173.128C329.091 172.786 329.002 172.41 328.954 172.021C328.906 171.632 328.899 171.238 328.935 170.86C328.995 170.232 329.169 169.678 329.431 169.284C329.692 168.89 330.027 168.676 330.384 168.677L330.384 168.677ZM352.569 175.731C352.91 175.72 353.192 175.889 353.37 176.21C353.58 176.587 353.63 177.146 353.509 177.764C353.388 178.382 353.106 179.008 352.725 179.505C352.345 180.001 351.896 180.327 351.479 180.412C351.062 180.496 350.71 180.331 350.501 179.954C350.291 179.576 350.242 179.017 350.363 178.399C350.484 177.781 350.765 177.155 351.146 176.659C351.362 176.377 351.602 176.147 351.849 175.986C352.095 175.825 352.341 175.738 352.569 175.731V175.731ZM345.219 177.989C345.56 177.978 345.842 178.147 346.02 178.468C346.23 178.846 346.279 179.405 346.158 180.023C346.037 180.64 345.756 181.267 345.375 181.763C345.187 182.009 344.98 182.216 344.766 182.371C344.552 182.527 344.336 182.628 344.129 182.67C343.922 182.712 343.73 182.693 343.562 182.614C343.394 182.536 343.254 182.399 343.15 182.212C342.941 181.835 342.891 181.276 343.012 180.658C343.134 180.04 343.415 179.414 343.796 178.917C344.012 178.635 344.252 178.405 344.499 178.245C344.745 178.084 344.991 177.997 345.219 177.989L345.219 177.989Z" fill="#1A3B5D"/>
</g>
<g opacity="0.07">
<path d="M21.6397 126.716L10.1368 135.862L20.1462 139.234L31.7783 129.142L21.6397 126.716ZM33.4475 130.318L21.1108 140.743L26.4479 155.935L27.3398 155.072L27.7819 153.251C27.4826 153.035 27.2261 152.683 27.0539 152.253C26.8817 151.823 26.8038 151.34 26.8329 150.881C26.8615 150.436 26.9894 150.04 27.197 149.752C27.4045 149.465 27.6803 149.303 27.9822 149.291C28.107 149.286 28.2343 149.306 28.3605 149.352C28.4714 149.393 28.5806 149.453 28.6859 149.531L29.5156 146.115C29.5257 146.074 29.538 146.034 29.5525 145.994L29.5586 145.979C29.5687 145.952 29.5799 145.926 29.592 145.9L29.6014 145.882C29.6134 145.858 29.6263 145.833 29.6401 145.81C29.6574 145.781 29.6761 145.753 29.6959 145.726L29.7028 145.718C29.7207 145.694 29.7395 145.671 29.7592 145.649C29.7809 145.625 29.8035 145.602 29.8272 145.58L29.8276 145.58C29.8432 145.566 29.8593 145.553 29.8757 145.54C29.8848 145.532 29.8941 145.525 29.9035 145.517C29.9206 145.505 29.9381 145.493 29.9559 145.483C29.9652 145.476 29.9746 145.47 29.9841 145.464C29.9993 145.456 30.0146 145.448 30.0301 145.44C30.0432 145.433 30.0565 145.426 30.0698 145.42C30.0849 145.413 30.1001 145.407 30.1155 145.402C30.1297 145.396 30.144 145.391 30.1584 145.385C30.1723 145.381 30.1864 145.377 30.2006 145.374C30.2168 145.369 30.2332 145.365 30.2497 145.361C30.2674 145.357 30.2852 145.355 30.303 145.353C30.3158 145.35 30.3287 145.348 30.3417 145.347H30.3427L30.3437 145.346L33.8577 145.013C33.9382 144.681 34.0807 144.4 34.2704 144.201C34.4602 144.002 34.6903 143.891 34.9368 143.88C35.0617 143.875 35.189 143.896 35.3153 143.942C35.656 144.067 35.9729 144.369 36.2065 144.791L37.5696 144.662L33.4476 130.318L33.4475 130.318ZM21.4779 131.199C21.9201 131.21 22.2949 131.316 22.5386 131.5C22.7824 131.685 22.8802 131.936 22.8154 132.212C22.741 132.528 22.4577 132.852 22.0277 133.113C21.5977 133.374 21.0564 133.55 20.5227 133.602C20.2584 133.628 20.004 133.622 19.774 133.586C19.5439 133.55 19.3427 133.484 19.1819 133.391C19.0211 133.299 18.9038 133.182 18.8368 133.047C18.7697 132.912 18.7542 132.762 18.791 132.605C18.8278 132.448 18.9163 132.288 19.0514 132.133C19.1866 131.979 19.3657 131.832 19.5786 131.703C19.7915 131.574 20.034 131.465 20.2922 131.381C20.5505 131.297 20.8194 131.24 21.0837 131.214C21.2179 131.201 21.3499 131.196 21.4777 131.199H21.4779ZM31.9526 133.925C32.0774 133.92 32.2047 133.94 32.3309 133.986C32.7013 134.12 33.0428 134.464 33.2802 134.941C33.5175 135.417 33.6314 135.989 33.5967 136.529C33.5795 136.796 33.5264 137.048 33.4403 137.269C33.3543 137.491 33.237 137.678 33.0951 137.82C32.9533 137.962 32.7896 138.056 32.6136 138.097C32.4376 138.138 32.2526 138.124 32.0692 138.058C31.8857 137.991 31.7075 137.873 31.5446 137.709C31.3817 137.545 31.2374 137.339 31.1198 137.103C31.0023 136.867 30.9138 136.605 30.8595 136.333C30.8051 136.06 30.786 135.783 30.8032 135.515C30.8318 135.07 30.9596 134.674 31.1672 134.386C31.3748 134.099 31.6508 133.937 31.9526 133.925ZM9.6655 137.884L14.5765 151.109L24.4248 155.788L19.6187 141.237L9.6655 137.883V137.884ZM25.1206 139.903C25.2455 139.898 25.3728 139.919 25.4991 139.965C25.8695 140.099 26.2109 140.442 26.4482 140.919C26.6855 141.396 26.7994 141.967 26.7647 142.507C26.7475 142.774 26.6944 143.026 26.6083 143.248C26.5223 143.469 26.405 143.656 26.2631 143.798C26.1213 143.94 25.9577 144.034 25.7817 144.075C25.6056 144.116 25.4206 144.103 25.2372 144.036C24.8668 143.902 24.5254 143.559 24.288 143.082C24.0506 142.605 23.9368 142.034 23.9714 141.494C24 141.049 24.1279 140.652 24.3354 140.365C24.543 140.078 24.8188 139.916 25.1206 139.903ZM17.2697 141.412C17.5288 141.396 17.8535 141.566 18.1809 141.889C18.5083 142.212 18.8151 142.665 19.0416 143.159C19.1617 143.421 19.2557 143.687 19.3184 143.942C19.3811 144.198 19.4113 144.437 19.4072 144.647C19.4031 144.856 19.3647 145.032 19.2944 145.164C19.224 145.297 19.1231 145.382 18.9972 145.417C18.743 145.487 18.403 145.344 18.0519 145.019C17.7009 144.694 17.3675 144.215 17.1252 143.686C16.883 143.157 16.7516 142.622 16.7599 142.199C16.7682 141.776 16.9155 141.499 17.1695 141.428C17.2015 141.42 17.2349 141.414 17.2697 141.412ZM44.7961 146.071L33.0807 147.181L44.9696 156.443L56.8414 154.478L44.7961 146.071V146.071ZM14.5355 147.19C14.7945 147.175 15.1193 147.345 15.4468 147.668C15.7743 147.991 16.0811 148.443 16.3076 148.938C16.55 149.467 16.6815 150.002 16.6731 150.425C16.6648 150.849 16.5174 151.126 16.2632 151.196C16.009 151.265 15.669 151.122 15.3179 150.798C14.9669 150.473 14.6335 149.993 14.3912 149.465C14.1489 148.936 14.0175 148.401 14.0258 147.977C14.0341 147.554 14.1815 147.277 14.4356 147.207C14.4676 147.198 14.5011 147.193 14.5359 147.191L14.5355 147.19ZM30.9826 148.096L26.6416 165.964L38.7243 177.489L43.6514 157.966L30.9826 148.096V148.096ZM44.2536 149.39C44.5779 149.397 44.9348 149.451 45.2934 149.547C45.652 149.644 46.0016 149.78 46.3117 149.944C46.5621 150.077 46.7813 150.225 46.9568 150.38C47.1323 150.534 47.2606 150.693 47.3344 150.846C47.4082 150.999 47.4261 151.144 47.387 151.273C47.3479 151.401 47.2527 151.511 47.1066 151.595C46.9607 151.679 46.7668 151.736 46.5361 151.763C46.3054 151.79 46.0423 151.787 45.762 151.752C45.4817 151.718 45.1896 151.654 44.9023 151.564C44.6151 151.474 44.3383 151.359 44.0879 151.226C43.5821 150.958 43.2142 150.634 43.065 150.324C42.9159 150.015 42.9977 149.746 43.2926 149.576C43.5167 149.446 43.8516 149.382 44.2535 149.39L44.2536 149.39ZM58.1107 156.377L45.4779 158.468L40.5846 177.858L52.7384 174.176L58.1107 156.377ZM39.1105 157.629C39.2581 157.629 39.4071 157.666 39.5534 157.738C39.766 157.843 39.9694 158.022 40.1521 158.264C40.3347 158.505 40.493 158.805 40.618 159.147C40.7429 159.488 40.832 159.864 40.8802 160.253C40.9283 160.642 40.9346 161.037 40.8987 161.414C40.8262 162.176 40.5861 162.823 40.2313 163.212C39.8764 163.601 39.4359 163.7 39.0066 163.488C38.7941 163.382 38.5906 163.204 38.4079 162.962C38.2253 162.721 38.067 162.421 37.942 162.079C37.8171 161.738 37.728 161.362 37.6798 160.973C37.6316 160.584 37.6253 160.189 37.6612 159.812C37.721 159.183 37.8951 158.63 38.1569 158.236C38.4186 157.841 38.7536 157.628 39.1105 157.629ZM55.2136 158.977C55.5546 158.966 55.8372 159.135 56.0154 159.456C56.2249 159.833 56.2745 160.393 56.1535 161.011C56.0324 161.628 55.7506 162.255 55.37 162.751C54.9894 163.248 54.5412 163.574 54.124 163.658C53.7068 163.743 53.3548 163.578 53.1454 163.201C52.9359 162.823 52.8863 162.264 53.0073 161.646C53.1283 161.028 53.4101 160.402 53.7907 159.906C54.0069 159.624 54.2472 159.394 54.4936 159.233C54.74 159.072 54.9861 158.985 55.2137 158.978L55.2136 158.977ZM48.0344 160.213C48.3753 160.202 48.6579 160.371 48.8361 160.692C49.0456 161.069 49.0952 161.628 48.9742 162.246C48.8531 162.864 48.5713 163.49 48.1907 163.987C47.8101 164.483 47.3619 164.81 46.9447 164.894C46.5275 164.978 46.1755 164.814 45.9661 164.436C45.7567 164.059 45.7071 163.5 45.8281 162.882C45.9492 162.264 46.231 161.638 46.6116 161.141C46.8278 160.859 47.068 160.629 47.3144 160.469C47.5608 160.308 47.8069 160.221 48.0345 160.213H48.0344ZM29.8506 161.755C29.9982 161.755 30.1473 161.792 30.2937 161.865C30.5063 161.97 30.7097 162.148 30.8923 162.39C31.075 162.632 31.2333 162.932 31.3582 163.273C31.4831 163.614 31.5722 163.99 31.6203 164.379C31.6685 164.768 31.6748 165.163 31.6389 165.54C31.603 165.918 31.5256 166.271 31.411 166.58C31.2965 166.888 31.1471 167.146 30.9714 167.339C30.7957 167.531 30.5971 167.655 30.387 167.702C30.1768 167.749 29.9593 167.719 29.7467 167.614C29.5341 167.509 29.3307 167.33 29.148 167.089C28.9654 166.847 28.8071 166.547 28.6821 166.206C28.5572 165.864 28.4681 165.488 28.42 165.099C28.3718 164.71 28.3655 164.316 28.4014 163.938C28.4611 163.31 28.6352 162.756 28.8969 162.362C29.1586 161.967 29.4936 161.754 29.8505 161.755L29.8506 161.755ZM52.0351 168.809C52.3759 168.798 52.6584 168.966 52.8367 169.287C53.0461 169.665 53.0958 170.224 52.9748 170.842C52.8538 171.46 52.572 172.086 52.1914 172.583C51.8108 173.079 51.3626 173.405 50.9454 173.49C50.5282 173.574 50.1762 173.409 49.9668 173.032C49.7574 172.654 49.7077 172.095 49.8287 171.477C49.9497 170.859 50.2315 170.233 50.6121 169.737C50.8283 169.455 51.0686 169.225 51.315 169.064C51.5614 168.903 51.8075 168.816 52.0351 168.809V168.809ZM44.6849 171.067C45.0258 171.056 45.3083 171.225 45.4865 171.546C45.6959 171.923 45.7456 172.483 45.6246 173.1C45.5036 173.718 45.2218 174.345 44.8413 174.841C44.6528 175.087 44.4457 175.294 44.2319 175.449C44.0181 175.605 43.8018 175.706 43.5952 175.748C43.3886 175.79 43.1959 175.771 43.028 175.692C42.8601 175.614 42.7203 175.477 42.6166 175.29C42.4072 174.913 42.3576 174.354 42.4786 173.736C42.5997 173.118 42.8815 172.492 43.2621 171.995C43.4783 171.713 43.7185 171.483 43.9649 171.322C44.2113 171.162 44.4575 171.074 44.685 171.067L44.6849 171.067Z" fill="#1A3B5D"/>
</g>
<g opacity="0.07">
<path d="M368.421 22.675L361.504 8.83679C361.045 7.91925 360.276 7.24134 359.367 6.95218C358.458 6.66302 357.482 6.7863 356.654 7.29489L344.175 14.9656C343.347 15.4741 342.736 16.3264 342.475 17.3348C342.214 18.3433 342.326 19.4252 342.784 20.3428L349.702 34.181C350.16 35.0985 350.929 35.7765 351.838 36.0656C352.748 36.3548 353.724 36.2315 354.551 35.7229L367.031 28.0522C367.858 27.5436 368.47 26.6914 368.73 25.683C368.991 24.6745 368.88 23.5926 368.421 22.675ZM353.686 33.9931C353.273 34.2474 352.785 34.3091 352.33 34.1645C351.875 34.0199 351.491 33.6809 351.262 33.2222L344.344 19.3839C344.115 18.9252 344.059 18.3842 344.19 17.88C344.32 17.3758 344.626 16.9496 345.039 16.6953L357.519 9.02467C357.933 8.77037 358.421 8.70873 358.875 8.85332C359.33 8.9979 359.714 9.33685 359.944 9.79562L366.861 23.6339C367.091 24.0926 367.146 24.6336 367.016 25.1378C366.885 25.642 366.58 26.0682 366.166 26.3225L353.686 33.9931ZM358.596 16.2774C358.364 16.4197 358.1 16.4826 357.836 16.4583C357.573 16.434 357.321 16.3236 357.114 16.141C356.907 15.9583 356.754 15.7117 356.673 15.4323C356.592 15.1529 356.588 14.8533 356.661 14.5712C356.734 14.2892 356.881 14.0375 357.083 13.848C357.285 13.6584 357.533 13.5395 357.796 13.5063C358.058 13.4731 358.324 13.5271 358.56 13.6614C358.795 13.7957 358.989 14.0044 359.117 14.261C359.289 14.6051 359.331 15.0108 359.233 15.389C359.135 15.7671 358.906 16.0867 358.596 16.2774ZM362.487 24.0614C362.255 24.2037 361.991 24.2666 361.727 24.2423C361.464 24.218 361.213 24.1076 361.005 23.925C360.798 23.7423 360.645 23.4957 360.564 23.2163C360.484 22.9369 360.479 22.6373 360.552 22.3553C360.625 22.0732 360.772 21.8216 360.974 21.632C361.176 21.4424 361.424 21.3235 361.687 21.2903C361.95 21.2571 362.215 21.3111 362.451 21.4454C362.686 21.5797 362.88 21.7884 363.008 22.045C363.18 22.3891 363.222 22.7948 363.124 23.173C363.026 23.5511 362.797 23.8707 362.487 24.0614ZM354.306 18.9142C354.074 19.0565 353.81 19.1194 353.546 19.0951C353.283 19.0708 353.031 18.9604 352.824 18.7777C352.617 18.5951 352.464 18.3485 352.383 18.0691C352.303 17.7897 352.298 17.49 352.371 17.208C352.444 16.926 352.591 16.6743 352.793 16.4848C352.995 16.2952 353.243 16.1763 353.506 16.1431C353.769 16.1099 354.034 16.1639 354.27 16.2982C354.505 16.4325 354.699 16.6412 354.827 16.8978C354.999 17.2418 355.041 17.6476 354.943 18.0257C354.845 18.4039 354.616 18.7235 354.306 18.9142ZM358.197 26.6982C357.965 26.8405 357.701 26.9034 357.438 26.8791C357.174 26.8548 356.923 26.7444 356.716 26.5618C356.509 26.3791 356.355 26.1325 356.274 25.8531C356.194 25.5737 356.19 25.2741 356.262 24.992C356.335 24.71 356.482 24.4583 356.684 24.2688C356.886 24.0792 357.134 23.9603 357.397 23.9271C357.66 23.8939 357.926 23.9479 358.161 24.0822C358.396 24.2165 358.59 24.4252 358.718 24.6818C358.89 25.0259 358.932 25.4316 358.834 25.8098C358.736 26.1879 358.507 26.5075 358.197 26.6982ZM350.016 21.551C349.784 21.6932 349.52 21.7562 349.257 21.7319C348.993 21.7076 348.742 21.5972 348.535 21.4145C348.328 21.2319 348.174 20.9853 348.093 20.7059C348.013 20.4265 348.008 20.1268 348.081 19.8448C348.154 19.5628 348.301 19.3111 348.503 19.1216C348.705 18.932 348.953 18.8131 349.216 18.7799C349.479 18.7467 349.745 18.8007 349.98 18.935C350.215 19.0693 350.409 19.278 350.537 19.5346C350.709 19.8786 350.751 20.2844 350.653 20.6625C350.555 21.0407 350.326 21.3603 350.016 21.551ZM353.907 29.335C353.676 29.4773 353.411 29.5402 353.148 29.5159C352.884 29.4916 352.633 29.3812 352.426 29.1985C352.219 29.0159 352.065 28.7693 351.984 28.4899C351.904 28.2105 351.9 27.9108 351.973 27.6288C352.045 27.3468 352.192 27.0951 352.394 26.9056C352.596 26.716 352.844 26.5971 353.107 26.5639C353.37 26.5307 353.636 26.5847 353.871 26.719C354.106 26.8533 354.3 27.062 354.428 27.3186C354.6 27.6626 354.642 28.0684 354.544 28.4465C354.447 28.8247 354.217 29.1443 353.907 29.335Z" fill="#1A3B5D"/>
</g>
<g opacity="0.05">
<path d="M60.2233 31.8149L56.2903 16.6058C56.0295 15.5974 55.4182 14.7451 54.5907 14.2365C53.7632 13.7279 52.7875 13.6047 51.8781 13.8938L38.1621 18.2549C37.2527 18.5441 36.4841 19.222 36.0255 20.1396C35.5668 21.0571 35.4556 22.1391 35.7164 23.1475L39.6494 38.3566C39.9101 39.365 40.5215 40.2173 41.349 40.7259C42.1764 41.2345 43.1522 41.3577 44.0616 41.0686L57.7775 36.7074C58.6869 36.4183 59.4555 35.7404 59.9142 34.8228C60.3729 33.9053 60.484 32.8233 60.2233 31.8149ZM43.57 39.1674C43.1153 39.312 42.6274 39.2504 42.2137 38.9961C41.7999 38.7418 41.4943 38.3157 41.3639 37.8114L37.4309 22.6024C37.3005 22.0981 37.3561 21.5572 37.5854 21.0984C37.8148 20.6396 38.199 20.3007 38.6538 20.1561L52.3697 15.7949C52.8244 15.6504 53.3123 15.712 53.726 15.9663C54.1397 16.2206 54.4454 16.6467 54.5758 17.1509L58.5088 32.36C58.6392 32.8642 58.5836 33.4052 58.3542 33.864C58.1249 34.3228 57.7406 34.6617 57.2859 34.8063L43.57 39.1674ZM51.09 23.4029C50.8357 23.4838 50.5654 23.4792 50.3135 23.3898C50.0615 23.3003 49.8391 23.13 49.6744 22.9005C49.5097 22.6709 49.4101 22.3923 49.3882 22.0999C49.3663 21.8075 49.423 21.5145 49.5513 21.2579C49.6796 21.0014 49.8736 20.7927 50.1088 20.6584C50.344 20.5241 50.6098 20.4701 50.8727 20.5033C51.1356 20.5365 51.3837 20.6554 51.5856 20.845C51.7875 21.0345 51.9342 21.2862 52.0071 21.5682C52.1049 21.9464 52.0632 22.3521 51.8912 22.6962C51.7192 23.0403 51.431 23.2945 51.09 23.4029ZM53.3023 31.958C53.048 32.0389 52.7777 32.0343 52.5258 31.9449C52.2738 31.8554 52.0514 31.6852 51.8867 31.4556C51.722 31.226 51.6224 30.9474 51.6005 30.655C51.5786 30.3626 51.6353 30.0696 51.7636 29.8131C51.8919 29.5565 52.0859 29.3478 52.3211 29.2135C52.5563 29.0792 52.8221 29.0252 53.085 29.0584C53.3479 29.0916 53.596 29.2105 53.7979 29.4001C53.9998 29.5896 54.1465 29.8413 54.2194 30.1233C54.3172 30.5015 54.2755 30.9072 54.1035 31.2513C53.9315 31.5954 53.6433 31.8496 53.3023 31.958ZM43.3748 25.8561C43.1205 25.9369 42.8502 25.9323 42.5983 25.8429C42.3463 25.7535 42.1239 25.5832 41.9592 25.3536C41.7945 25.124 41.6949 24.8454 41.673 24.553C41.6511 24.2607 41.7078 23.9677 41.8361 23.7111C41.9644 23.4545 42.1584 23.2458 42.3936 23.1115C42.6288 22.9772 42.8946 22.9232 43.1575 22.9564C43.4204 22.9896 43.6685 23.1085 43.8704 23.2981C44.0723 23.4876 44.219 23.7393 44.2919 24.0213C44.3897 24.3995 44.348 24.8053 44.176 25.1493C44.004 25.4934 43.7158 25.7476 43.3748 25.8561ZM48.3385 28.907C48.0842 28.9879 47.814 28.9833 47.562 28.8939C47.31 28.8045 47.0876 28.6342 46.9229 28.4046C46.7582 28.175 46.6586 27.8964 46.6367 27.604C46.6148 27.3117 46.6716 27.0187 46.7999 26.7621C46.9281 26.5055 47.1221 26.2968 47.3573 26.1625C47.5925 26.0282 47.8584 25.9742 48.1213 26.0074C48.3841 26.0406 48.6322 26.1595 48.8341 26.3491C49.0361 26.5386 49.1828 26.7903 49.2557 27.0723C49.3535 27.4505 49.3118 27.8562 49.1398 28.2003C48.9678 28.5444 48.6796 28.7986 48.3385 28.907ZM45.5871 34.4112C45.3328 34.492 45.0625 34.4875 44.8106 34.398C44.5586 34.3086 44.3362 34.1383 44.1715 33.9087C44.0068 33.6791 43.9072 33.4005 43.8853 33.1081C43.8634 32.8158 43.9201 32.5228 44.0484 32.2662C44.1767 32.0096 44.3707 31.801 44.6059 31.6666C44.8411 31.5323 45.1069 31.4783 45.3698 31.5115C45.6327 31.5448 45.8808 31.6636 46.0827 31.8532C46.2846 32.0428 46.4313 32.2945 46.5042 32.5765C46.602 32.9546 46.5603 33.3604 46.3883 33.7044C46.2163 34.0485 45.9281 34.3027 45.5871 34.4112Z" fill="#1A3B5D"/>
</g>
<g opacity="0.05">
<path d="M367.386 410.875L369.864 395.294C370.028 394.26 369.815 393.197 369.273 392.338C368.73 391.479 367.902 390.893 366.97 390.711L352.918 387.964C351.987 387.782 351.028 388.017 350.253 388.619C349.478 389.221 348.95 390.139 348.786 391.172L346.308 406.754C346.144 407.787 346.356 408.85 346.899 409.71C347.442 410.569 348.27 411.154 349.202 411.336L363.254 414.084C364.185 414.266 365.144 414.03 365.919 413.428C366.694 412.827 367.222 411.908 367.386 410.875ZM349.511 409.389C349.045 409.297 348.631 409.005 348.36 408.575C348.089 408.146 347.982 407.614 348.065 407.097L350.542 391.516C350.624 390.999 350.888 390.54 351.276 390.239C351.663 389.938 352.143 389.82 352.609 389.911L366.66 392.659C367.126 392.75 367.54 393.043 367.812 393.472C368.083 393.902 368.189 394.434 368.107 394.95L365.629 410.532C365.547 411.048 365.283 411.508 364.896 411.808C364.508 412.109 364.029 412.227 363.563 412.136L349.511 409.389ZM360.436 400.479C360.176 400.428 359.935 400.293 359.744 400.09C359.552 399.887 359.42 399.626 359.363 399.339C359.305 399.053 359.326 398.754 359.422 398.481C359.518 398.207 359.685 397.972 359.901 397.803C360.118 397.635 360.375 397.542 360.639 397.535C360.904 397.529 361.164 397.61 361.387 397.767C361.611 397.925 361.786 398.152 361.893 398.421C362 398.69 362.032 398.987 361.986 399.276C361.924 399.663 361.727 400.008 361.436 400.233C361.145 400.459 360.786 400.547 360.436 400.479ZM355.271 404.49C355.01 404.439 354.769 404.303 354.578 404.101C354.387 403.898 354.254 403.637 354.197 403.35C354.14 403.064 354.16 402.765 354.256 402.491C354.352 402.218 354.519 401.982 354.736 401.814C354.953 401.646 355.209 401.553 355.474 401.546C355.738 401.54 355.999 401.62 356.222 401.778C356.445 401.936 356.621 402.163 356.728 402.432C356.834 402.7 356.866 402.998 356.82 403.287C356.759 403.674 356.561 404.018 356.27 404.244C355.98 404.47 355.62 404.558 355.271 404.49Z" fill="#1A3B5D"/>
</g>
<g opacity="0.07">
<path d="M347.594 640.496L346.103 624.761C346.004 623.717 345.535 622.76 344.8 622.1C344.065 621.44 343.123 621.131 342.182 621.24L327.992 622.894C327.051 623.004 326.188 623.523 325.593 624.339C324.997 625.154 324.718 626.198 324.817 627.241L326.309 642.977C326.408 644.02 326.876 644.977 327.611 645.637C328.347 646.298 329.288 646.607 330.229 646.497L344.42 644.843C345.361 644.734 346.224 644.214 346.819 643.399C347.414 642.583 347.693 641.539 347.594 640.496ZM330.043 644.53C329.572 644.585 329.101 644.43 328.734 644.1C328.366 643.77 328.132 643.292 328.082 642.77L326.591 627.035C326.542 626.513 326.681 625.991 326.979 625.583C327.276 625.176 327.708 624.916 328.178 624.861L342.369 623.207C342.839 623.152 343.31 623.307 343.678 623.637C344.045 623.967 344.28 624.446 344.329 624.967L345.821 640.703C345.87 641.224 345.731 641.746 345.433 642.154C345.135 642.562 344.704 642.822 344.233 642.876L330.043 644.53ZM336.346 635.344C336.082 635.375 335.817 635.318 335.583 635.181C335.349 635.045 335.156 634.834 335.03 634.577C334.904 634.319 334.849 634.025 334.874 633.733C334.898 633.441 335 633.163 335.166 632.935C335.333 632.707 335.556 632.539 335.809 632.452C336.062 632.365 336.332 632.363 336.586 632.446C336.839 632.53 337.065 632.695 337.234 632.92C337.403 633.146 337.508 633.422 337.536 633.714C337.573 634.105 337.469 634.496 337.245 634.802C337.022 635.108 336.698 635.303 336.346 635.344Z" fill="#1A3B5D"/>
</g>
<g opacity="0.07">
<path d="M218.362 155.639C218.021 156.803 217.406 157.846 216.582 158.662C215.758 159.477 214.754 160.036 213.672 160.28C212.589 160.524 211.468 160.446 210.422 160.053C209.376 159.66 208.443 158.966 207.717 158.042L207.247 157.872L207.168 161.704C207.165 161.858 207.13 162.009 207.064 162.146C206.999 162.282 206.906 162.399 206.793 162.488C206.679 162.578 206.549 162.636 206.411 162.659C206.274 162.683 206.134 162.67 206.001 162.622L200.913 160.789C200.78 160.741 200.66 160.66 200.561 160.552C200.462 160.443 200.388 160.311 200.343 160.165C200.299 160.019 200.286 159.863 200.305 159.71C200.325 159.558 200.376 159.412 200.455 159.285L202.423 156.134L201.952 155.965C201.015 156.205 200.04 156.201 199.103 155.954C198.167 155.708 197.295 155.224 196.555 154.542C195.816 153.859 195.228 152.996 194.839 152.02C194.449 151.045 194.269 149.982 194.311 148.916C194.353 147.85 194.617 146.809 195.082 145.875C195.547 144.941 196.201 144.139 196.992 143.531C197.783 142.923 198.69 142.526 199.642 142.371C200.594 142.216 201.565 142.308 202.48 142.638C202.563 142.668 202.645 142.697 202.727 142.727C202.751 141.649 203.002 140.593 203.459 139.642C203.917 138.69 204.568 137.871 205.361 137.248C206.155 136.625 207.068 136.216 208.03 136.054C208.991 135.892 209.973 135.981 210.897 136.315C211.822 136.648 212.663 137.216 213.355 137.973C214.046 138.731 214.569 139.657 214.881 140.678C215.193 141.699 215.285 142.786 215.151 143.854C215.016 144.922 214.659 145.94 214.107 146.827C214.189 146.857 214.272 146.886 214.354 146.916C215.928 147.485 217.234 148.723 217.985 150.358C218.736 151.994 218.872 153.893 218.362 155.639Z" fill="#1A3B5D"/>
</g>
<g opacity="0.07">
<path d="M72.4694 744.187C73.542 743.978 74.6453 744.083 75.6698 744.493C76.6943 744.903 77.6042 745.603 78.3093 746.523C79.0143 747.444 79.4899 748.553 79.6889 749.74C79.8878 750.927 79.8031 752.152 79.4433 753.292L83.2779 751.154C83.4021 751.084 83.5391 751.048 83.6782 751.048C83.8172 751.048 83.9543 751.084 84.0785 751.153C84.2028 751.222 84.3108 751.323 84.3938 751.446C84.4769 751.57 84.5327 751.713 84.5569 751.865L85.4861 757.708C85.5102 757.86 85.5019 758.016 85.462 758.164C85.4221 758.311 85.3516 758.446 85.2561 758.559C85.1607 758.671 85.0429 758.756 84.9123 758.809C84.7816 758.862 84.6417 758.88 84.5036 758.862L80.2408 758.307C80.9305 759.242 81.3877 760.36 81.567 761.551C81.7463 762.742 81.6414 763.965 81.2628 765.097C80.8842 766.229 80.245 767.232 79.4087 768.006C78.5724 768.78 77.5682 769.297 76.4957 769.507C72.9827 770.194 69.2555 768.708 65.7084 765.215C64.0864 763.61 62.6516 761.787 61.4372 759.788C61.3732 759.678 61.3297 759.555 61.3092 759.427C61.2887 759.298 61.2917 759.166 61.3179 759.038C61.8416 756.697 62.6272 754.437 63.6565 752.312C65.9125 747.684 68.9564 744.874 72.4694 744.187Z" fill="#1A3B5D"/>
</g>
</svg>
