<svg width="23" height="22" viewBox="0 0 23 22" fill="none" xmlns="http://www.w3.org/2000/svg">
<path d="M22.0104 11.2475C22.0104 10.5233 21.9449 9.83579 21.8325 9.16663H11.2492V13.3008H17.3088C17.0372 14.6575 16.2411 15.8033 15.0611 16.5825V19.3325H18.6762C20.7929 17.4166 22.0104 14.5933 22.0104 11.2475Z" fill="#4285F4"/>
<path d="M11.2503 22C14.2848 22 16.8229 21.01 18.6773 19.3325L15.0622 16.5825C14.0507 17.2425 12.7676 17.6458 11.2503 17.6458C8.31889 17.6458 5.83698 15.7116 4.94724 13.0991H1.2197V15.9316C3.06474 19.525 6.85784 22 11.2503 22Z" fill="#34A853"/>
<path d="M4.94609 13.0992C4.71195 12.4392 4.5902 11.7334 4.5902 11C4.5902 10.2667 4.72132 9.56086 4.94609 8.90086V6.06836H1.21855C0.450562 7.55336 0.010376 9.22169 0.010376 11C0.010376 12.7784 0.450562 14.4467 1.21855 15.9317L4.94609 13.0992Z" fill="#FBBC05"/>
<path d="M11.2503 4.35417C12.9081 4.35417 14.3878 4.91334 15.5586 6.00417L18.7616 2.86917C16.8229 1.09083 14.2848 0 11.2503 0C6.85784 0 3.06474 2.475 1.2197 6.06834L4.94724 8.90084C5.83698 6.28834 8.31889 4.35417 11.2503 4.35417Z" fill="#EA4335"/>
</svg>
