<svg width="375" height="249" viewBox="0 0 375 249" fill="none" xmlns="http://www.w3.org/2000/svg">
<g clip-path="url(#clip0_289_1497)">
<path d="M199.309 230.429C199.1 230.438 198.894 230.383 198.718 230.272C198.542 230.16 198.404 229.997 198.323 229.804C198.243 229.612 198.224 229.399 198.268 229.195C198.312 228.991 198.418 228.806 198.571 228.664L198.641 228.387C198.632 228.365 198.623 228.342 198.613 228.32C198.404 227.824 198.052 227.401 197.603 227.104C197.153 226.807 196.626 226.65 196.088 226.652C195.55 226.654 195.024 226.815 194.577 227.115C194.13 227.416 193.781 227.841 193.575 228.339C192.751 230.325 191.702 232.315 191.444 234.416C191.33 235.344 191.378 236.285 191.586 237.197C189.65 232.971 188.645 228.378 188.639 223.73C188.638 222.563 188.703 221.398 188.833 220.238C188.94 219.288 189.088 218.344 189.278 217.408C190.316 212.324 192.543 207.56 195.777 203.506C197.342 202.651 198.608 201.336 199.404 199.739C199.693 199.165 199.896 198.552 200.009 197.919C199.833 197.942 199.344 195.251 199.477 195.086C199.231 194.712 198.79 194.526 198.521 194.161C197.185 192.347 195.343 192.664 194.382 195.129C192.328 196.166 192.308 197.887 193.568 199.542C194.37 200.595 194.48 202.019 195.184 203.146C195.111 203.239 195.036 203.329 194.964 203.422C193.641 205.124 192.488 206.953 191.521 208.88C191.756 206.721 191.476 204.536 190.703 202.506C189.919 200.614 188.451 199.021 187.157 197.385C185.604 195.421 182.419 196.278 182.145 198.768C182.142 198.792 182.14 198.817 182.137 198.841C182.329 198.949 182.517 199.064 182.701 199.186C182.932 199.341 183.111 199.561 183.215 199.82C183.319 200.078 183.342 200.361 183.282 200.633C183.222 200.905 183.081 201.152 182.878 201.342C182.675 201.532 182.42 201.657 182.145 201.699L182.117 201.703C182.185 202.396 182.306 203.083 182.479 203.758C180.82 210.18 184.402 212.519 189.516 212.624C189.629 212.682 189.739 212.74 189.852 212.795C188.881 215.549 188.271 218.419 188.04 221.331C187.908 223.049 187.916 224.774 188.063 226.491L188.054 226.43C187.683 224.521 186.666 222.799 185.174 221.554C182.957 219.731 179.826 219.06 177.434 217.595C177.18 217.432 176.885 217.345 176.583 217.344C176.281 217.343 175.985 217.429 175.73 217.591C175.475 217.753 175.272 217.985 175.144 218.259C175.016 218.533 174.97 218.837 175.009 219.137C175.012 219.158 175.016 219.18 175.019 219.201C175.375 219.346 175.723 219.514 176.058 219.702C176.25 219.811 176.438 219.926 176.622 220.048C176.853 220.202 177.032 220.423 177.136 220.681C177.24 220.939 177.263 221.223 177.203 221.495C177.143 221.766 177.002 222.013 176.799 222.204C176.596 222.394 176.341 222.518 176.066 222.561L176.038 222.565C176.018 222.568 176 222.571 175.98 222.574C176.589 224.029 177.444 225.369 178.507 226.535C179.545 232.141 184 232.673 188.766 231.04H188.769C189.292 233.315 190.05 235.529 191.03 237.646H199.106C199.135 237.556 199.161 237.464 199.187 237.374C198.44 237.421 197.689 237.376 196.952 237.241C197.552 236.505 198.151 235.763 198.75 235.027C198.763 235.013 198.776 234.999 198.788 234.984C199.092 234.607 199.399 234.233 199.702 233.856L199.703 233.856C199.719 232.701 199.586 231.549 199.309 230.429Z" fill="#F2F2F2"/>
<path d="M187.343 102.606C178.243 102.606 169.347 99.9054 161.781 94.845C154.215 89.7846 148.317 82.5921 144.835 74.177C141.353 65.7619 140.441 56.5021 142.217 47.5687C143.992 38.6352 148.374 30.4293 154.809 23.9887C161.243 17.548 169.441 13.1619 178.366 11.3849C187.292 9.60792 196.543 10.5199 204.95 14.0056C213.357 17.4912 220.543 23.394 225.599 30.9674C230.654 38.5408 233.353 47.4447 233.353 56.5532C233.339 68.763 228.487 80.4688 219.861 89.1024C211.236 97.7361 199.541 102.593 187.343 102.606ZM187.343 11.2252C178.386 11.2252 169.631 13.8837 162.183 18.8644C154.736 23.8451 148.932 30.9243 145.504 39.2069C142.077 47.4895 141.18 56.6035 142.927 65.3962C144.675 74.189 148.988 82.2657 155.321 88.6049C161.654 94.9441 169.723 99.2612 178.508 101.01C187.292 102.759 196.398 101.862 204.673 98.4308C212.947 95 220.02 89.1902 224.996 81.7361C229.972 74.2819 232.628 65.5182 232.628 56.5532C232.614 44.5356 227.839 33.0142 219.349 24.5165C210.86 16.0188 199.349 11.2388 187.343 11.2252Z" fill="#F2F2F2"/>
<path d="M192.391 73.2339H182.609C182.129 73.2339 181.668 73.0428 181.328 72.7028C180.989 72.3628 180.798 71.9016 180.798 71.4208C180.798 70.9399 180.989 70.4787 181.328 70.1387C181.668 69.7987 182.129 69.6076 182.609 69.6076H192.391C192.871 69.6076 193.332 69.7987 193.672 70.1387C194.011 70.4787 194.202 70.9399 194.202 71.4208C194.202 71.9016 194.011 72.3628 193.672 72.7028C193.332 73.0428 192.871 73.2339 192.391 73.2339Z" fill="#E6E6E6"/>
<path d="M194.638 125.857H180.362C179.661 125.857 178.988 125.578 178.493 125.082C177.997 124.585 177.718 123.912 177.718 123.211C177.718 122.509 177.997 121.836 178.493 121.339C178.988 120.843 179.661 120.564 180.362 120.564H194.638C195.339 120.564 196.012 120.843 196.507 121.339C197.003 121.836 197.282 122.509 197.282 123.211C197.282 123.912 197.003 124.585 196.507 125.082C196.012 125.578 195.339 125.857 194.638 125.857Z" fill="#1A3B5D"/>
<path d="M235.217 114.765H139.783C138.932 114.764 138.117 114.426 137.516 113.824C136.915 113.222 136.576 112.406 136.575 111.555V83.0764C136.576 82.2253 136.915 81.4093 137.516 80.8075C138.117 80.2056 138.932 79.8671 139.783 79.8661H235.217C236.068 79.8671 236.883 80.2056 237.484 80.8075C238.085 81.4093 238.424 82.2253 238.425 83.0764V111.555C238.424 112.406 238.085 113.222 237.484 113.824C236.883 114.426 236.068 114.764 235.217 114.765Z" fill="#E6E6E6"/>
<path d="M225.945 112.6H141.947C141.096 112.599 140.281 112.26 139.68 111.658C139.079 111.057 138.74 110.241 138.739 109.389V85.2436C138.74 84.3925 139.079 83.5765 139.68 82.9746C140.281 82.3728 141.096 82.0342 141.947 82.0332H233.054C233.904 82.0342 234.719 82.3728 235.321 82.9746C235.922 83.5765 236.26 84.3925 236.261 85.2436V102.274C236.258 105.011 235.17 107.636 233.236 109.572C231.302 111.508 228.68 112.597 225.945 112.6Z" fill="white"/>
<path d="M196.97 90.6207H158.613C158.393 90.6207 158.183 90.5334 158.028 90.3782C157.873 90.2229 157.786 90.0123 157.786 89.7927C157.786 89.5731 157.873 89.3625 158.028 89.2073C158.183 89.052 158.393 88.9648 158.613 88.9648H196.97C197.19 88.9648 197.4 89.052 197.555 89.2073C197.71 89.3625 197.797 89.5731 197.797 89.7927C197.797 90.0123 197.71 90.2229 197.555 90.3782C197.4 90.5334 197.19 90.6207 196.97 90.6207Z" fill="#1A3B5D"/>
<path d="M216.387 94.0071H158.613C158.393 94.0071 158.183 93.9198 158.028 93.7646C157.873 93.6093 157.786 93.3987 157.786 93.1791C157.786 92.9595 157.873 92.7489 158.028 92.5937C158.183 92.4384 158.393 92.3512 158.613 92.3512H216.387C216.607 92.3512 216.817 92.4384 216.972 92.5937C217.127 92.7489 217.215 92.9595 217.215 93.1791C217.215 93.3987 217.127 93.6093 216.972 93.7646C216.817 93.9198 216.607 94.0071 216.387 94.0071Z" fill="#E6E6E6"/>
<path d="M216.387 97.8941H158.613C158.504 97.8944 158.396 97.8731 158.296 97.8316C158.195 97.7901 158.104 97.7291 158.027 97.6522C157.95 97.5753 157.889 97.484 157.847 97.3834C157.805 97.2829 157.784 97.1751 157.784 97.0662C157.784 96.9573 157.805 96.8495 157.847 96.7489C157.889 96.6484 157.95 96.557 158.027 96.4801C158.104 96.4032 158.195 96.3423 158.296 96.3007C158.396 96.2592 158.504 96.238 158.613 96.2382H216.387C216.606 96.2387 216.816 96.3261 216.971 96.4813C217.126 96.6366 217.213 96.8469 217.213 97.0662C217.213 97.2855 217.126 97.4958 216.971 97.651C216.816 97.8062 216.606 97.8937 216.387 97.8941Z" fill="#E6E6E6"/>
<path d="M216.387 101.781H158.613C158.504 101.781 158.396 101.76 158.296 101.719C158.195 101.677 158.104 101.616 158.027 101.539C157.95 101.462 157.889 101.371 157.847 101.27C157.805 101.17 157.784 101.062 157.784 100.953C157.784 100.844 157.805 100.737 157.847 100.636C157.889 100.535 157.95 100.444 158.027 100.367C158.104 100.29 158.195 100.229 158.296 100.188C158.396 100.146 158.504 100.125 158.613 100.125H216.387C216.606 100.126 216.816 100.213 216.971 100.368C217.126 100.524 217.213 100.734 217.213 100.953C217.213 101.173 217.126 101.383 216.971 101.538C216.816 101.693 216.606 101.781 216.387 101.781Z" fill="#E6E6E6"/>
<path d="M216.387 105.668H158.613C158.504 105.669 158.396 105.647 158.296 105.606C158.195 105.564 158.104 105.503 158.027 105.426C157.95 105.35 157.889 105.258 157.847 105.158C157.805 105.057 157.784 104.949 157.784 104.84C157.784 104.731 157.805 104.624 157.847 104.523C157.889 104.423 157.95 104.331 158.027 104.254C158.104 104.177 158.195 104.116 158.296 104.075C158.396 104.033 158.504 104.012 158.613 104.012H216.387C216.606 104.013 216.816 104.1 216.971 104.256C217.126 104.411 217.213 104.621 217.213 104.84C217.213 105.06 217.126 105.27 216.971 105.425C216.816 105.58 216.606 105.668 216.387 105.668Z" fill="#E6E6E6"/>
<path d="M267.149 233.817L263.273 233.816L261.428 218.848L267.151 218.849L267.149 233.817Z" fill="#A0616A"/>
<path d="M267.286 237.865L255.364 237.864V237.714C255.364 236.482 255.853 235.3 256.723 234.429C257.593 233.558 258.774 233.069 260.004 233.069L262.182 231.415L266.246 233.069L267.286 233.069L267.286 237.865Z" fill="#2F2E41"/>
<path d="M298.846 228.848L295.372 230.57L287.08 217.978L292.208 215.435L298.846 228.848Z" fill="#A0616A"/>
<path d="M300.764 232.414L290.081 237.712L290.014 237.577C289.467 236.473 289.381 235.197 289.775 234.03C290.168 232.863 291.009 231.9 292.112 231.353L293.33 228.903L297.704 228.58L298.637 228.117L300.764 232.414Z" fill="#2F2E41"/>
<path d="M255.664 153.361C255.664 153.361 251.251 159.519 254.437 170.158C257.622 180.796 255.834 190.308 256.728 192.215C257.622 194.122 259.422 195.934 257.935 197.38C256.447 198.826 255.664 200.002 256.839 200.393C258.014 200.785 261.929 228.221 261.929 228.221L268.586 228.613C268.586 228.613 270.998 215.868 268.421 205.583C268.421 205.583 268.987 198.117 267.808 195.924C266.628 193.73 266.86 195.709 266.94 192.956C266.984 190.965 267.274 188.987 267.803 187.068C268.195 185.5 268.421 169.699 268.421 169.699L274.902 190.667C275.162 191.39 275.259 192.161 275.187 192.925C275.027 194.005 275.026 195.619 275.222 196.184C275.419 196.749 275.637 196.868 275.528 197.984C275.419 199.1 288.461 222.635 288.461 222.635L294.941 218.283L288.556 197.65C287.922 196.947 287.395 196.154 286.99 195.298C286.207 193.73 286.176 193.644 286.583 192.511C286.99 191.379 286.99 189.172 286.99 188.512C286.99 187.851 287.397 157.869 282.299 153.459C277.201 149.049 255.664 153.361 255.664 153.361Z" fill="#2F2E41"/>
<path d="M279.603 105.661L278.276 101.881L274.653 98.2549L267.971 97.4563L263.62 100.319L259.591 104.295L253.641 153.736C253.641 153.736 281.747 164.583 285.43 155.48L279.603 105.661Z" fill="#CCCCCC"/>
<path d="M281.881 105.661L277.977 101.753C277.977 101.753 276.112 126.728 276.906 128.484C277.701 130.241 278.637 129.792 277.625 130.742C276.614 131.691 275.527 130.749 276.614 132.489C277.255 133.465 277.569 134.619 277.511 135.785C277.511 135.785 283.135 171.217 286.396 171.217C289.656 171.217 291.698 170.262 291.583 169.289C291.468 168.316 289.544 165.894 290.144 165.292C290.743 164.69 292.221 165.145 290.757 164.011C289.294 162.877 288.569 163.239 288.932 161.789C289.294 160.338 286.524 141.535 286.524 141.535L286.254 110.127L281.881 105.661Z" fill="#3F3D56"/>
<path d="M263.62 100.319L258.564 101.035L252.554 103.332C252.554 103.332 255.299 134.329 254.726 135.367C254.153 136.405 253.134 135.757 254.006 136.806C254.877 137.856 255.661 137.39 254.726 138.348C253.79 139.306 252.216 138.093 253.184 139.787C254.153 141.482 249.486 164.814 250.742 166.066C251.999 167.317 255.237 166.538 255.238 165.614C255.139 164.618 254.763 163.67 254.153 162.877C253.977 162.676 253.881 162.418 253.881 162.152C253.881 161.885 253.977 161.627 254.153 161.426C254.666 160.932 255.018 160.294 255.164 159.597C255.239 158.888 255.793 158.017 256.059 157.365C256.326 156.712 263.044 112.548 263.044 112.548L263.62 100.319Z" fill="#3F3D56"/>
<path d="M242.047 124.726L244.328 123.535C241.481 120.964 234.417 116.759 234.417 116.759L222.242 108.543C222.063 108.123 221.778 107.757 221.413 107.483C221.049 107.209 220.619 107.035 220.167 106.98C219.714 106.925 219.255 106.99 218.836 107.169C218.416 107.348 218.051 107.634 217.778 107.999C217.504 108.364 217.331 108.795 217.277 109.248C217.222 109.701 217.288 110.16 217.467 110.58C217.646 110.999 217.933 111.364 218.298 111.638C218.663 111.911 219.093 112.084 219.546 112.138L233.19 124.373L242.047 124.726Z" fill="#A0616A"/>
<path d="M258.712 115.661L258.737 105.64L253.176 102.978L239.149 117.837L238.062 117.111H235.526L229.367 124.364C229.367 124.364 232.648 126.31 234.268 125.518C235.889 124.726 235.736 125.864 235.736 125.864C235.977 126.166 236.312 126.379 236.688 126.468C237.064 126.556 237.459 126.515 237.808 126.352C239.149 125.814 241.685 127.265 241.685 127.265L258.712 115.661Z" fill="#3F3D56"/>
<path d="M272.042 95.1544C276.521 95.1544 280.152 91.5199 280.152 87.0366C280.152 82.5532 276.521 78.9188 272.042 78.9188C267.563 78.9188 263.932 82.5532 263.932 87.0366C263.932 91.5199 267.563 95.1544 272.042 95.1544Z" fill="#A0616A"/>
<path d="M281.833 89.0976C281.067 90.5974 280.039 91.948 278.798 93.0854C278.442 93.4907 277.988 93.7975 277.479 93.9763C277.223 94.0597 276.946 94.0508 276.696 93.9509C276.446 93.851 276.239 93.6666 276.111 93.4297L275.961 93.2242C276.395 93.0911 276.805 92.8881 277.175 92.6232C277.358 92.4897 277.507 92.3143 277.609 92.1116C277.711 91.9089 277.764 91.6847 277.762 91.4577C277.749 91.2308 277.648 91.0179 277.481 90.8636C277.315 90.7094 277.095 90.6258 276.868 90.6305C276.361 90.6908 275.908 91.283 275.454 91.0548C275.088 90.8682 275.14 90.3339 275.245 89.9306C275.81 87.8255 275.574 84.5627 274.761 84.4486C273.954 84.2841 273.184 83.9688 272.493 83.5193C271.801 83.0691 271.028 82.758 270.217 82.6032C270.159 82.5955 270.099 82.5913 270.037 82.5862C270.013 82.1522 269.938 81.7225 269.812 81.3066C269.723 81.7458 269.589 82.1743 269.41 82.5849C268.708 82.6808 267.999 82.7166 267.29 82.6922C266.535 82.6045 264.365 84.3653 264.349 84.1231C264.326 83.689 264.251 83.2594 264.124 82.8435C264.036 83.2827 263.902 83.7112 263.723 84.1218C263.715 84.1386 263.711 84.1527 263.703 84.1695C263.472 83.6065 263.406 82.977 263.412 83.4471C262.927 80.4557 263.888 78.6547 266.341 76.8808C266.831 76.4896 267.412 76.2292 268.03 76.1242C268.338 76.0748 268.654 76.1058 268.948 76.2142C269.241 76.3226 269.501 76.5048 269.703 76.7431C270.645 76.2444 271.703 76.007 272.767 76.0552C273.831 76.1035 274.863 76.4358 275.756 77.0176C277.52 78.2007 278.912 78.9878 278.677 81.1034C280.35 81.2646 281.762 82.6089 282.291 84.2021C282.814 85.7978 282.542 87.5786 281.833 89.0976Z" fill="#2F2E41"/>
<path d="M292.185 131.397L286.366 130.563C284.398 133.857 283.699 142.623 283.699 142.623L278.005 156.17C277.628 156.427 277.325 156.778 277.126 157.189C276.928 157.6 276.841 158.056 276.875 158.511C276.908 158.966 277.061 159.404 277.318 159.781C277.574 160.158 277.926 160.461 278.336 160.659C278.747 160.857 279.203 160.943 279.657 160.909C280.112 160.875 280.549 160.721 280.926 160.464C281.303 160.207 281.605 159.855 281.802 159.444C281.999 159.032 282.085 158.576 282.05 158.121L291.4 142.353L292.185 131.397Z" fill="#A0616A"/>
<path d="M278.788 111.202L281.253 107.803L286.252 110.129L290.411 126.183C290.411 126.183 293.447 128.161 292.799 129.556C292.151 130.951 291.807 132.077 292.477 132.877C293.146 133.676 295.096 133.735 293.644 135.038C292.191 136.342 293.435 139.748 293.435 139.748L292.043 142.858L283.348 142.495L278.788 111.202Z" fill="#3F3D56"/>
<path d="M77.693 160.994C78.2418 160.563 78.601 159.935 78.694 159.243C78.787 158.551 78.6066 157.85 78.1912 157.289C78.1049 157.176 78.0095 157.071 77.9059 156.974L81.6186 148.393L77.9312 144.975L74.115 157.281C73.7467 157.742 73.5413 158.312 73.5309 158.902C73.5204 159.493 73.7055 160.07 74.0571 160.544C74.2598 160.811 74.5133 161.037 74.8029 161.206C75.0925 161.376 75.4127 161.487 75.7452 161.533C76.0777 161.579 76.4159 161.559 76.7406 161.474C77.0653 161.389 77.3701 161.24 77.6376 161.037C77.6563 161.023 77.6748 161.009 77.693 160.994Z" fill="#FFB6B6"/>
<path d="M99.2624 105.326C99.2624 105.326 96.5141 100.097 90.1387 105.744C83.7633 111.392 76.2295 139.66 76.3758 140.723C76.5221 141.785 78.0804 141.365 76.1094 142.895C74.1384 144.425 73.0486 143.051 74.1384 144.425C75.2282 145.8 77.6652 147.257 75.5074 147.461C73.3496 147.665 81.2599 151.072 81.2599 151.072C81.2599 151.072 82.5042 150.773 82.8859 147.899C83.1003 146.285 82.3738 145.369 83.6527 145.1C84.9316 144.831 83.7328 141.912 83.9169 141.453C84.101 140.994 94.3129 120.935 94.3129 120.935L99.2624 105.326Z" fill="#1A3B5D"/>
<path d="M111.813 233.044L116.429 233.044L118.626 215.219L111.812 215.22L111.813 233.044Z" fill="#FFB6B6"/>
<path d="M111.65 237.865L125.847 237.864V237.685C125.847 236.218 125.265 234.811 124.229 233.774C123.193 232.737 121.787 232.154 120.322 232.154H120.321L117.728 230.184L112.889 232.154L111.65 232.154L111.65 237.865Z" fill="#2F2E41"/>
<path d="M79.4533 224.544L83.2298 227.202L95.2699 213.886L89.6954 209.963L79.4533 224.544Z" fill="#FFB6B6"/>
<path d="M76.55 228.394L88.1637 236.567L88.267 236.42C89.1099 235.22 89.442 233.734 89.1904 232.289C88.9388 230.844 88.124 229.558 86.9252 228.714L85.9352 225.61L80.8454 224.435L79.8316 223.722L76.55 228.394Z" fill="#2F2E41"/>
<path d="M93.4185 144.368L93.0349 145.188C90.5134 150.58 89.8687 156.608 90.8486 162.48C90.9215 162.709 90.9075 162.957 90.8095 163.177C90.2018 163.89 91.1552 166.99 91.7018 168.721L92.1943 171.781C92.1943 171.781 91.3775 174.624 92.6182 174.415C93.8589 174.206 92.0114 177.238 93.1948 177.998L96.2648 197.073L83.4568 218.202L88.2005 225.087L107.175 200.634L107.413 178.555L110.259 196.361L110.496 224.375L119.126 223.457L122.288 196.296L119.272 158.735L114.528 142.449L93.4185 144.368Z" fill="#2F2E41"/>
<path d="M99.3479 95.4662L106.33 95.799L109.668 101.572C111.149 102.017 112.511 102.788 113.653 103.83C114.796 104.872 115.69 106.157 116.27 107.592L118.444 112.968L115.971 144.051C115.971 144.051 115.475 145.931 116.388 145.657C117.301 145.382 116.929 147.738 116.929 147.738L120.293 160.69L89.7066 158.027L91.4049 144.306C91.4049 144.306 89.0436 144.382 90.7039 142.72C92.3642 141.058 93.1717 141.587 91.5767 139.623C89.9818 137.658 89.7446 136.234 89.7446 136.234L89.0331 126.5L87.86 112.801C87.6739 110.627 88.0304 108.442 88.8976 106.44C89.7648 104.439 91.1154 102.684 92.828 101.335L99.3479 95.4662Z" fill="#1A3B5D"/>
<path d="M102.968 93.8632C107.858 93.8632 111.822 89.8954 111.822 85.0009C111.822 80.1063 107.858 76.1385 102.968 76.1385C98.0784 76.1385 94.1143 80.1063 94.1143 85.0009C94.1143 89.8954 98.0784 93.8632 102.968 93.8632Z" fill="#FFB6B6"/>
<path d="M99.5472 93.1368C102.088 93.0533 102.319 92.3816 104.86 92.2981C105.669 92.2716 106.623 92.1606 107.014 91.4513C107.128 91.1855 107.179 90.8969 107.162 90.6083C107.146 90.3196 107.063 90.0387 106.92 89.7876C106.63 89.2892 106.368 88.7746 106.137 88.2464C105.997 87.8322 105.961 87.3903 106.03 86.9587C106.1 86.5272 106.273 86.1191 106.535 85.7697C106.798 85.4203 107.141 85.1401 107.536 84.9533C107.931 84.7665 108.365 84.6788 108.801 84.6976C109.575 84.7311 110.301 85.095 111.072 85.1615C112.129 85.2528 114.468 81.758 113.981 80.814C113.507 79.8952 112.553 79.2019 112.403 78.1787C112.305 77.5095 112.581 76.8446 112.619 76.1693C112.675 75.168 110.139 77.4257 110.603 76.537C111.743 74.3572 101.007 71.6548 99.2401 74.3852C98.5795 75.4057 97.4024 75.3361 96.3532 75.949C95.6655 76.3506 93.929 77.7364 93.5343 78.6001C93.1715 79.4815 93.0001 80.4299 93.0314 81.3826C93.0155 85.8132 93.6899 89.8887 97.2603 92.5076" fill="#2F2E41"/>
<path d="M124.683 160.613C124.161 160.15 123.84 159.502 123.788 158.805C123.736 158.109 123.958 157.42 124.406 156.885C124.499 156.778 124.601 156.678 124.71 156.588L121.516 147.8L125.4 144.608L128.476 157.12C128.816 157.603 128.987 158.184 128.962 158.774C128.937 159.364 128.718 159.929 128.339 160.381C128.121 160.636 127.854 160.846 127.555 160.998C127.256 161.15 126.93 161.241 126.595 161.267C126.26 161.293 125.924 161.253 125.605 161.149C125.286 161.044 124.99 160.878 124.735 160.66C124.718 160.645 124.7 160.629 124.683 160.613Z" fill="#FFB6B6"/>
<path d="M106.472 103.756C106.472 103.756 109.527 98.6997 115.554 104.718C121.581 110.736 127.416 139.405 127.207 140.457C126.997 141.509 125.467 140.996 127.343 142.641C129.219 144.286 130.389 142.979 129.219 144.286C128.049 145.594 125.53 146.902 127.672 147.235C129.813 147.568 121.714 150.496 121.714 150.496C121.714 150.496 120.49 150.123 120.28 147.232C120.162 145.608 120.942 144.736 119.682 144.391C118.421 144.046 119.792 141.204 119.635 140.735C119.479 140.266 110.482 119.633 110.482 119.633L106.472 103.756Z" fill="#1A3B5D"/>
<path d="M194.57 55.5635C194.57 56.9982 194.146 58.4009 193.35 59.594C192.554 60.7872 191.422 61.7173 190.098 62.2667C188.774 62.816 187.316 62.9601 185.91 62.6805C184.505 62.401 183.213 61.7104 182.199 60.6961C181.185 59.6818 180.495 58.3894 180.215 56.9823C179.935 55.5752 180.078 54.1165 180.626 52.7909C181.174 51.4652 182.103 50.332 183.295 49.5346C184.486 48.7371 185.887 48.3113 187.321 48.311C188.273 48.3097 189.216 48.4964 190.096 48.8604C190.976 49.2244 191.775 49.7585 192.448 50.4321C193.122 51.1058 193.656 51.9058 194.02 52.7863C194.384 53.6668 194.571 54.6105 194.57 55.5635Z" fill="#1A3B5D"/>
<path d="M187.482 56.6147C188.883 56.6147 190.018 55.4783 190.018 54.0764C190.018 52.6745 188.883 51.538 187.482 51.538C186.082 51.538 184.946 52.6745 184.946 54.0764C184.946 55.4783 186.082 56.6147 187.482 56.6147Z" fill="white"/>
<path d="M190.201 57.5216H184.767C184.431 57.522 184.108 57.6558 183.871 57.8938C183.633 58.1317 183.499 58.4543 183.499 58.7908C183.576 59.8778 183.746 60.9563 184.006 62.0145C185.096 62.5766 186.31 62.8526 187.536 62.8164C188.761 62.7803 189.958 62.4332 191.012 61.8078C191.245 60.816 191.398 59.8071 191.469 58.7908C191.469 58.4543 191.335 58.1317 191.097 57.8938C190.859 57.6558 190.537 57.522 190.201 57.5216Z" fill="white"/>
<path d="M57.5 238.068C57.4998 238.125 57.5109 238.181 57.5325 238.233C57.5541 238.285 57.5858 238.333 57.6259 238.373C57.666 238.413 57.7136 238.445 57.766 238.466C57.8183 238.488 57.8745 238.499 57.9311 238.499H317.069C317.183 238.499 317.293 238.454 317.374 238.373C317.455 238.292 317.5 238.182 317.5 238.068C317.5 237.954 317.455 237.844 317.374 237.763C317.293 237.682 317.183 237.637 317.069 237.637H57.9311C57.8745 237.637 57.8183 237.648 57.766 237.669C57.7136 237.691 57.666 237.723 57.6259 237.763C57.5858 237.803 57.5541 237.85 57.5325 237.903C57.5109 237.955 57.4998 238.011 57.5 238.068Z" fill="#CCCCCC"/>
</g>
<defs>
<clipPath id="clip0_289_1497">
<rect width="260" height="228" fill="white" transform="translate(57.5 10.5)"/>
</clipPath>
</defs>
</svg>
