<svg width="375" height="225" viewBox="0 0 375 225" fill="none" xmlns="http://www.w3.org/2000/svg">
<g clip-path="url(#clip0_220_790)">
<path d="M256.044 109.205C256.044 111.79 255.935 114.35 255.718 116.883C255.547 118.86 255.313 120.82 255.017 122.761C254.703 124.817 254.318 126.849 253.861 128.855V128.858C253.563 130.178 253.236 131.488 252.879 132.787C251.844 136.563 250.556 140.265 249.025 143.869C248.692 144.653 248.349 145.431 247.994 146.205C246.653 149.133 245.151 151.985 243.496 154.748C238.853 162.506 233.057 169.512 226.308 175.527C225.577 176.176 224.836 176.815 224.086 177.444C208.15 190.761 188.037 198.042 167.272 198.01C118.244 198.01 78.5 158.251 78.5 109.205C78.5 60.1585 118.244 20.3997 167.272 20.3997C187.322 20.3681 206.786 27.1572 222.47 39.6524C223.205 40.2351 223.931 40.831 224.648 41.44C228.145 44.4071 231.409 47.6389 234.41 51.1068H234.413C248.393 67.2283 256.075 87.8625 256.044 109.205Z" fill="#F2F2F2"/>
<path d="M104.705 124.545C96.2488 119.51 89.8661 110.1 90.6947 100.291C98.4261 107.693 108.526 112.121 119.206 112.792C123.327 113.035 127.934 112.877 130.967 115.677C132.854 117.42 133.733 120.043 133.877 122.608C134.021 125.173 133.507 127.724 132.996 130.242L133.172 130.859C123.331 130.896 113.162 129.58 104.705 124.545Z" fill="#E6E6E6"/>
<path d="M90.9009 100.28C94.2892 107.69 99.9254 113.844 107.009 117.867C108.532 118.72 110.151 119.452 111.871 119.792C113.551 120.111 115.285 119.973 116.893 119.394C118.404 118.885 119.89 118.188 121.498 118.055C123.193 117.914 124.762 118.568 125.995 119.714C127.503 121.116 128.418 122.977 129.25 124.827C130.173 126.882 131.099 129.031 132.87 130.508C133.084 130.687 132.794 131.01 132.58 130.831C129.5 128.26 128.997 123.955 126.535 120.927C125.387 119.515 123.805 118.44 121.927 118.468C120.284 118.493 118.751 119.21 117.226 119.739C115.625 120.294 114.021 120.555 112.33 120.311C110.601 120.061 108.95 119.39 107.412 118.58C103.938 116.717 100.779 114.32 98.0497 111.475C94.9169 108.246 92.3593 104.504 90.4877 100.412C90.372 100.159 90.7859 100.028 90.9009 100.28Z" fill="white"/>
<path d="M104.652 116.706C103.816 117.803 102.617 118.568 101.27 118.862C99.9223 119.157 98.5141 118.963 97.2966 118.315C97.0506 118.183 97.2441 117.795 97.4903 117.927C98.623 118.532 99.9348 118.713 101.189 118.436C102.443 118.159 103.557 117.443 104.329 116.416C104.497 116.193 104.819 116.485 104.652 116.706Z" fill="white"/>
<path d="M116.161 119.753C115.809 116.955 114.416 114.392 112.259 112.576C112.045 112.396 112.335 112.074 112.549 112.253C114.79 114.148 116.235 116.818 116.594 119.73C116.628 120.008 116.195 120.03 116.161 119.753Z" fill="white"/>
<path d="M95.4548 108.042C95.8667 107.685 96.1835 107.231 96.3768 106.721C96.5701 106.212 96.6337 105.662 96.562 105.121C96.5244 104.844 96.9578 104.823 96.9951 105.098C97.0715 105.696 97.0005 106.303 96.7883 106.867C96.576 107.43 96.2289 107.934 95.7774 108.332C95.738 108.373 95.6844 108.398 95.6275 108.401C95.5706 108.404 95.5147 108.385 95.4711 108.349C95.4286 108.31 95.403 108.256 95.4 108.199C95.3969 108.141 95.4166 108.085 95.4548 108.042Z" fill="white"/>
<path d="M118.068 81.2859C118.096 81.4583 118.125 81.6306 118.156 81.8046C118.55 84.1197 119.131 86.3991 119.894 88.62C119.95 88.7927 120.01 88.9668 120.071 89.1375C121.966 94.4688 124.834 99.4018 128.528 103.686C130 105.389 131.6 106.978 133.312 108.439C135.678 110.456 138.403 112.455 139.92 115.059C140.081 115.329 140.226 115.609 140.352 115.896L133.911 130.596C133.879 130.622 133.851 130.65 133.82 130.676L133.589 131.275C133.496 131.206 133.4 131.132 133.307 131.063C133.252 131.023 133.199 130.98 133.145 130.94C133.109 130.912 133.073 130.885 133.039 130.862C133.027 130.853 133.015 130.843 133.007 130.836C132.973 130.813 132.943 130.788 132.913 130.766C132.377 130.356 131.844 129.94 131.312 129.521C131.309 129.519 131.309 129.519 131.307 129.515C127.265 126.306 123.455 122.733 120.309 118.694C120.214 118.572 120.116 118.45 120.025 118.321C118.617 116.493 117.36 114.553 116.268 112.52C115.674 111.404 115.136 110.26 114.657 109.09C113.426 106.066 112.678 102.867 112.441 99.6097C111.968 93.117 113.577 86.5455 117.746 81.6563C117.853 81.5313 117.958 81.4094 118.068 81.2859Z" fill="#E6E6E6"/>
<path d="M118.24 81.4007C116.486 89.3581 117.282 97.6662 120.517 105.145C121.219 106.743 122.071 108.303 123.24 109.61C124.39 110.876 125.857 111.811 127.49 112.317C129.002 112.82 130.608 113.159 131.972 114.021C133.41 114.93 134.269 116.397 134.564 118.055C134.925 120.083 134.536 122.119 134.086 124.098C133.587 126.294 133.033 128.568 133.557 130.814C133.621 131.086 133.195 131.169 133.131 130.897C132.22 126.989 134.409 123.249 134.266 119.349C134.199 117.529 133.583 115.718 132.066 114.609C130.74 113.64 129.084 113.289 127.548 112.793C125.935 112.272 124.497 111.514 123.295 110.301C122.064 109.06 121.15 107.53 120.409 105.957C118.757 102.377 117.677 98.56 117.21 94.645C116.652 90.1798 116.862 85.652 117.831 81.2575C117.891 80.9856 118.3 81.1306 118.24 81.4007Z" fill="white"/>
<path d="M119.333 102.798C118.006 103.171 116.588 103.059 115.335 102.483C114.082 101.906 113.075 100.903 112.492 99.6526C112.375 99.3991 112.764 99.2054 112.881 99.4593C113.421 100.625 114.359 101.559 115.527 102.093C116.695 102.628 118.016 102.726 119.25 102.372C119.519 102.296 119.6 102.722 119.333 102.798Z" fill="white"/>
<path d="M126.689 112.163C128.092 109.717 128.522 106.831 127.893 104.082C127.831 103.81 128.256 103.727 128.319 103.999C128.968 106.861 128.514 109.863 127.049 112.406C126.909 112.648 126.55 112.404 126.689 112.163Z" fill="white"/>
<path d="M117.204 90.3411C117.748 90.3041 118.274 90.1325 118.736 89.8418C119.197 89.5511 119.579 89.1504 119.847 88.6756C119.983 88.4317 120.342 88.6757 120.206 88.918C119.908 89.4411 119.486 89.8832 118.977 90.2055C118.468 90.5279 117.888 90.7206 117.287 90.767C117.231 90.7761 117.174 90.7635 117.126 90.7316C117.079 90.6998 117.046 90.6512 117.033 90.5956C117.022 90.5392 117.034 90.4808 117.066 90.4331C117.099 90.3855 117.148 90.3524 117.204 90.3411Z" fill="white"/>
<path d="M139.993 40.9824L150.858 168.222L129.128 169.856V42.6013C131.717 40.8872 135.434 40.6191 139.993 40.9824Z" fill="#CCCCCC"/>
<path d="M193.626 40.9824L182.761 168.222L204.491 169.856V42.6013C201.902 40.8872 198.185 40.6191 193.626 40.9824Z" fill="#CCCCCC"/>
<path d="M201.238 175.115H132.15C131.042 175.114 129.98 174.673 129.197 173.889C128.414 173.106 127.973 172.043 127.972 170.935V44.4687C127.973 43.3605 128.414 42.298 129.197 41.5144C129.98 40.7307 131.042 40.2899 132.15 40.2887H201.238C202.345 40.2899 203.407 40.7307 204.191 41.5144C204.974 42.298 205.415 43.3605 205.416 44.4687V170.935C205.415 172.043 204.974 173.106 204.191 173.889C203.407 174.673 202.345 175.114 201.238 175.115ZM132.15 41.6762C131.41 41.6771 130.701 41.9715 130.177 42.495C129.654 43.0185 129.36 43.7283 129.359 44.4687V170.935C129.36 171.675 129.654 172.385 130.177 172.909C130.701 173.432 131.41 173.727 132.15 173.728H201.238C201.978 173.727 202.687 173.432 203.211 172.909C203.734 172.385 204.028 171.675 204.029 170.935V44.4687C204.028 43.7283 203.734 43.0185 203.21 42.495C202.687 41.9715 201.978 41.6771 201.238 41.6762L132.15 41.6762Z" fill="#CCCCCC"/>
<path d="M204.723 61.3336H128.665V62.7212H204.723V61.3336Z" fill="#CCCCCC"/>
<path d="M204.723 84.46H128.665V85.8475H204.723V84.46Z" fill="#CCCCCC"/>
<path d="M153.347 40.9825H151.96V104.117H153.347V40.9825Z" fill="#CCCCCC"/>
<path d="M181.428 40.9825H180.041V104.117H181.428V40.9825Z" fill="#CCCCCC"/>
<path d="M213.392 178.931H122.308C120.653 178.931 119.065 178.273 117.894 177.102C116.724 175.931 116.066 174.343 116.066 172.687C116.066 171.031 116.724 169.443 117.894 168.272C119.065 167.101 120.653 166.443 122.308 166.443H213.392C215.047 166.443 216.635 167.101 217.805 168.272C218.976 169.443 219.633 171.031 219.633 172.687C219.633 174.343 218.976 175.931 217.805 177.102C216.635 178.273 215.047 178.931 213.392 178.931Z" fill="#CCCCCC"/>
<path d="M204.723 100.88H129.128V105.505H204.723V100.88Z" fill="#CCCCCC"/>
<path d="M153.562 115.6L153.466 115.553C148.313 113.063 141.564 113.065 131.584 115.562L131.478 115.588L131.446 115.483C130.39 112.02 129.194 108.098 131.441 106.168C131.472 100.506 136.438 95.9075 142.536 95.9075C148.634 95.9075 153.598 100.503 153.632 106.164C156.974 108.721 155.381 112.498 153.616 115.508L153.562 115.6Z" fill="#2F2E41"/>
<path d="M185.236 103.474C185.143 103.933 184.952 104.366 184.674 104.743C184.396 105.12 184.039 105.431 183.628 105.655C183.217 105.878 182.762 106.009 182.295 106.038C181.828 106.067 181.36 105.993 180.925 105.821L162.714 124.129L161.089 118.444L179.176 101.443C179.513 100.73 180.099 100.166 180.824 99.8573C181.548 99.5482 182.361 99.5159 183.108 99.7663C183.855 100.017 184.484 100.532 184.876 101.216C185.268 101.899 185.396 102.703 185.236 103.474Z" fill="#FFB6B6"/>
<path d="M140.226 121.1C140.226 121.1 138.574 124.845 142.651 127.155C146.728 129.465 160.977 126.274 163.289 125.828C165.601 125.383 174.236 112.455 174.236 112.455L173.015 106.115L161.563 116.06L140.226 121.1Z" fill="#1A3B5D"/>
<path d="M137.219 141.813L137.45 146.207C137.45 146.207 136.768 150.1 137.329 150.94C137.886 151.775 153.084 151.881 153.084 151.881C153.084 151.881 154.088 146.465 154.953 141.725L137.219 141.813Z" fill="#FFB6B6"/>
<path d="M180.915 199.912L184.092 199.27L183.182 186.431L178.493 187.379L180.915 199.912Z" fill="#FFB6B6"/>
<path d="M185.466 183.204L188.419 181.876L184.588 169.592L180.228 171.553L185.466 183.204Z" fill="#FFB6B6"/>
<path d="M188.039 176.283L182.477 179.433L168.761 157.384C159.132 163.874 149.716 166.981 140.224 168.64C137.015 169.211 133.743 168.922 133.127 165.654C133.098 165.501 133.075 165.348 133.058 165.193C132.679 161.624 137.117 157.049 137.681 152.683L149.827 151.953L151.325 153.874L165.372 145.235C168.197 143.498 171.912 144.438 173.67 147.334C173.763 147.487 173.849 147.644 173.929 147.804L188.039 176.283Z" fill="#2F2E41"/>
<path d="M184.635 191.116L178.271 191.707L166.732 168.1C155.29 170.068 144.495 170.699 135.158 168.318C131.997 167.522 130.064 164.257 130.842 161.024C130.878 160.873 130.92 160.723 130.968 160.575C132.086 157.165 135.011 154.752 137.315 151L154.149 151.256L152.269 157.746L168.621 155.629C171.91 155.203 174.913 157.584 175.329 160.948C175.351 161.125 175.366 161.303 175.373 161.483L184.635 191.116Z" fill="#2F2E41"/>
<path d="M143.792 112.243C147.567 112.243 150.627 109.182 150.627 105.405C150.627 101.629 147.567 98.5675 143.792 98.5675C140.017 98.5675 136.956 101.629 136.956 105.405C136.956 109.182 140.017 112.243 143.792 112.243Z" fill="#FFB6B6"/>
<path d="M139.785 114.712L146.052 115.45C146.316 115.481 146.564 115.593 146.761 115.772C146.959 115.951 147.095 116.187 147.152 116.447L148.149 121.01L154.362 128.329C154.362 128.329 156.593 132.514 155.756 137.257C154.92 142 154.552 145.524 154.552 145.524C154.552 145.524 137.885 151.776 137.327 150.939C136.77 150.102 136.589 146.3 136.589 146.3L134.357 121.469C134.357 121.469 136.867 117.284 138.262 117.284C139.162 117.254 139.046 115.228 139.785 114.712Z" fill="#1A3B5D"/>
<path d="M154.721 147.051C155.6 147.051 156.313 146.196 156.313 145.14C156.313 144.085 155.6 143.23 154.721 143.23C153.843 143.23 153.13 144.085 153.13 145.14C153.13 146.196 153.843 147.051 154.721 147.051Z" fill="#1A3B5D"/>
<path d="M179.338 196.606L184.182 194.177L185.095 196.308L191.22 197.547C191.523 197.608 191.798 197.764 192.005 197.993C192.213 198.221 192.342 198.51 192.373 198.818C192.405 199.125 192.338 199.434 192.181 199.7C192.025 199.966 191.787 200.175 191.504 200.297L185.585 202.835L183.662 201.165L184.167 203.443L181.936 204.4L179.338 196.606Z" fill="#2F2E41"/>
<path d="M184.079 182.182L188.88 179.669L189.83 181.783L195.976 182.914C196.28 182.97 196.558 183.121 196.769 183.346C196.981 183.571 197.115 183.858 197.152 184.164C197.189 184.471 197.127 184.781 196.975 185.05C196.824 185.319 196.59 185.532 196.308 185.659L190.436 188.3L188.483 186.664L189.028 188.933L186.814 189.929L184.079 182.182Z" fill="#2F2E41"/>
<path d="M139.887 103.261C138.081 103.263 136.318 102.707 134.841 101.668L134.792 101.634V101.573C134.794 99.826 135.488 98.1507 136.724 96.915C137.959 95.6794 139.633 94.9844 141.38 94.9824H144.154C145.901 94.9844 147.576 95.6794 148.811 96.915C150.046 98.1507 150.741 99.826 150.743 101.573C150.741 101.973 150.583 102.357 150.303 102.642C150.023 102.927 149.642 103.092 149.242 103.101L140.042 103.259C139.991 103.26 139.938 103.261 139.887 103.261Z" fill="#2F2E41"/>
<path d="M151.205 100.308C152.09 99.7967 152.238 98.3962 151.535 97.1794C150.833 95.9627 149.547 95.3905 148.662 95.9014C147.778 96.4123 147.63 97.8128 148.332 99.0296C149.034 100.246 150.321 100.818 151.205 100.308Z" fill="#2F2E41"/>
<path d="M137.371 98.9502C138.364 97.9568 138.583 96.5657 137.861 95.8432C137.139 95.1207 135.748 95.3403 134.755 96.3338C133.762 97.3272 133.543 98.7183 134.265 99.4408C134.987 100.163 136.378 99.9437 137.371 98.9502Z" fill="#2F2E41"/>
<path d="M197.866 161.471H191.043C190.889 161.47 190.737 161.504 190.597 161.568C190.457 161.633 190.334 161.727 190.234 161.845C189.982 161.798 189.723 161.813 189.478 161.886C189.233 161.959 189.009 162.09 188.824 162.266C188.639 162.443 188.498 162.661 188.414 162.903C188.33 163.145 188.304 163.403 188.339 163.656C188.373 163.91 188.468 164.152 188.614 164.362C188.76 164.572 188.954 164.744 189.18 164.865C189.406 164.985 189.657 165.05 189.913 165.055C190.168 165.06 190.422 165.003 190.651 164.891L191.217 166.731C191.284 166.949 191.42 167.139 191.603 167.275C191.786 167.41 192.008 167.484 192.236 167.484H196.672C196.9 167.484 197.122 167.41 197.305 167.275C197.489 167.139 197.624 166.949 197.691 166.731L198.884 162.851C198.934 162.691 198.944 162.523 198.916 162.358C198.888 162.193 198.822 162.038 198.723 161.904C198.624 161.769 198.495 161.66 198.346 161.585C198.197 161.51 198.032 161.471 197.866 161.471ZM189.946 164.593C189.64 164.593 189.346 164.471 189.129 164.254C188.912 164.037 188.79 163.743 188.79 163.436C188.79 163.13 188.912 162.836 189.129 162.619C189.346 162.402 189.64 162.28 189.946 162.28C189.967 162.28 189.987 162.285 190.008 162.286C189.962 162.472 189.967 162.668 190.024 162.851L190.512 164.438C190.34 164.538 190.145 164.592 189.946 164.593Z" fill="#3F3D56"/>
<path d="M167.4 156.451C166.934 156.494 166.464 156.434 166.024 156.276C165.583 156.118 165.183 155.865 164.851 155.535C164.519 155.206 164.263 154.807 164.101 154.368C163.94 153.929 163.876 153.459 163.916 152.993L141.159 140.793L146.136 137.605L167.606 150.061C168.385 150.179 169.094 150.579 169.598 151.184C170.101 151.79 170.366 152.56 170.34 153.347C170.315 154.135 170.001 154.886 169.459 155.458C168.917 156.03 168.184 156.383 167.4 156.451Z" fill="#FFB6B6"/>
<path d="M137.608 118.374C137.608 118.374 133.547 117.865 132.505 122.435C131.462 127.005 138.607 139.744 139.697 141.832C140.787 143.92 155.644 148.486 155.644 148.486L161.365 145.497L148.555 137.375L137.608 118.374Z" fill="#1A3B5D"/>
<path d="M166.232 99.4921H167.619C168.293 99.4921 168.94 99.7601 169.417 100.237C169.894 100.714 170.162 101.361 170.162 102.036H163.689C163.689 101.361 163.957 100.714 164.434 100.237C164.91 99.7601 165.557 99.4921 166.232 99.4921Z" fill="#CCCCCC"/>
<path d="M122.248 52.0289C129.838 52.0289 135.99 45.8742 135.99 38.2821C135.99 30.69 129.838 24.5354 122.248 24.5354C114.659 24.5354 108.507 30.69 108.507 38.2821C108.507 45.8742 114.659 52.0289 122.248 52.0289Z" fill="#FF6584"/>
<path d="M164.322 37.5658C160.685 33.7493 156.461 30.2678 151.461 28.428C150.069 27.9133 148.625 27.5503 147.154 27.3451C147.142 27.3435 147.131 27.3459 147.119 27.3449C147.095 27.3388 147.071 27.334 147.047 27.3307C144.99 27.0686 142.902 27.1946 140.892 27.7024C139.909 27.9492 138.95 28.2834 138.027 28.701C137.1 29.1533 136.202 29.6624 135.338 30.2254C133.509 31.3207 131.495 32.0722 129.396 32.4429C128.342 32.6327 127.275 32.7375 126.205 32.7563C125.276 32.7749 124.4 32.8072 123.52 33.1429C122.58 33.4965 121.735 34.065 121.054 34.803C120.373 35.5411 119.873 36.4282 119.595 37.3937C119.574 37.4797 119.58 37.5702 119.614 37.6523C119.647 37.7344 119.706 37.8037 119.781 37.8503C120.019 38.0209 120.251 38.2144 120.501 38.3663C120.724 38.4682 120.961 38.533 121.205 38.5583C121.602 38.6422 122.001 38.7237 122.399 38.8027C123.868 39.0938 125.343 39.3515 126.823 39.5757C129.82 40.0295 132.832 40.3491 135.861 40.5347C141.929 40.9023 148.017 40.7193 154.051 39.9877C157.443 39.5768 160.811 38.994 164.143 38.2415C164.211 38.2218 164.272 38.185 164.321 38.1346C164.37 38.0842 164.405 38.022 164.423 37.954C164.441 37.886 164.441 37.8146 164.424 37.7465C164.406 37.6785 164.371 37.6162 164.322 37.5658Z" fill="#E6E6E6"/>
<path d="M122.9 46.757C121.508 46.2423 120.064 45.8792 118.593 45.6741C118.581 45.6725 118.57 45.6749 118.558 45.6739C118.534 45.6678 118.51 45.663 118.486 45.6597C116.429 45.3976 114.341 45.5236 112.331 46.0314C111.348 46.2781 110.389 46.6123 109.466 47.03C108.539 47.4823 107.641 47.9914 106.777 48.5544C104.948 49.6496 102.934 50.4011 100.835 50.7719C99.7813 50.9617 98.7141 51.0664 97.6436 51.0852C96.7148 51.1039 95.8389 51.1361 94.9589 51.4718C94.0189 51.8254 93.1745 52.394 92.4931 53.132C91.8118 53.8701 91.3123 54.7572 91.0345 55.7227C91.0131 55.8086 91.0195 55.8992 91.0529 55.9813C91.0863 56.0633 91.1449 56.1327 91.2202 56.1793C91.4583 56.3498 91.6903 56.5433 91.9404 56.6953C92.1629 56.7971 92.4006 56.862 92.6439 56.8872C93.0416 56.9711 93.4397 57.0526 93.8384 57.1317C95.307 57.4228 96.7817 57.6804 98.2625 57.9047C101.259 58.3585 104.271 58.6781 107.3 58.8636C113.368 59.2313 119.456 59.0482 125.49 58.3167C128.882 57.9058 132.25 57.323 135.582 56.5705C135.65 56.5508 135.711 56.5139 135.76 56.4636C135.809 56.4132 135.844 56.351 135.862 56.283C135.88 56.215 135.88 56.1435 135.863 56.0755C135.845 56.0075 135.81 55.9452 135.761 55.8947C132.124 52.0783 127.9 48.5967 122.9 46.757Z" fill="#E6E6E6"/>
<path d="M221.997 149.237L211.429 135.349L203.091 140.065L220.76 161.055L221.997 149.237Z" fill="#3F3D56"/>
<path d="M246.339 126.661C246.574 132.481 247.475 138.255 249.025 143.869C248.692 144.653 248.349 145.432 247.994 146.205C246.653 149.133 245.151 151.985 243.496 154.748C238.853 162.506 233.057 169.512 226.308 175.527C225.577 176.177 224.836 176.816 224.086 177.444C219.807 171.542 217.497 165.03 216.584 158.328C216.469 157.477 216.374 156.616 216.302 155.761V155.756C216.127 153.677 216.071 151.589 216.133 149.503C216.136 149.336 216.14 149.167 216.147 148.999C216.228 146.769 216.429 144.535 216.732 142.322V142.32C216.767 142.065 216.802 141.811 216.841 141.557C216.952 140.793 217.077 140.03 217.213 139.272C218.007 134.897 219.115 130.585 220.528 126.37V126.367C220.567 126.245 220.607 126.124 220.651 126.004C220.803 125.546 220.958 125.093 221.118 124.64C221.128 124.604 221.14 124.569 221.155 124.536C221.36 123.944 221.571 123.356 221.786 122.773C221.843 122.611 221.904 122.45 221.966 122.288C222.209 121.638 222.456 120.993 222.708 120.357C222.787 120.153 222.868 119.95 222.949 119.748C223.011 119.594 223.071 119.439 223.136 119.286V119.284C223.503 118.375 223.876 117.484 224.252 116.61C225.309 114.154 226.395 111.844 227.454 109.714L227.456 109.712C231.851 100.894 235.846 95.1675 235.846 95.1675L250.847 100.024C249.058 103.199 247.673 107.882 246.915 113.407C246.33 117.799 246.138 122.233 246.339 126.659L246.339 126.661Z" fill="#3F3D56"/>
<path d="M221.407 125.248C221.319 125.042 221.219 124.841 221.118 124.64C220.59 123.618 219.911 122.683 219.104 121.865C218.984 121.742 218.859 121.619 218.73 121.504C217.337 120.221 215.644 119.309 213.806 118.854C211.968 118.399 210.046 118.415 208.216 118.9L208.206 118.904L208.137 118.923L208.153 119.001C208.223 119.368 208.323 119.728 208.454 120.077C208.488 120.172 208.528 120.262 208.567 120.352C208.583 120.394 208.604 120.431 208.622 120.472C208.622 120.472 208.62 120.475 208.625 120.475C208.625 120.477 208.627 120.479 208.627 120.482C208.671 120.567 208.713 120.655 208.759 120.738C208.664 120.648 208.574 120.556 208.486 120.461C208.401 120.373 208.322 120.28 208.243 120.188C207.974 119.874 207.73 119.538 207.515 119.184L207.478 119.122L207.413 119.147C206.541 119.45 205.709 119.857 204.935 120.361L204.852 120.417C204.261 120.805 203.596 121.064 202.898 121.178C202.201 121.292 201.487 121.258 200.804 121.078C199.727 120.8 198.603 120.75 197.505 120.929C196.407 121.109 195.359 121.515 194.426 122.121C193.808 122.524 193.249 123.011 192.766 123.569C192.724 123.617 192.683 123.668 192.641 123.717C192.553 123.823 192.47 123.932 192.389 124.043C191.52 125.205 190.987 126.583 190.847 128.028L190.843 128.081L190.887 128.111C191.669 128.647 192.553 129.016 193.485 129.193C192.9 129.275 192.307 129.29 191.719 129.237H191.717C191.45 129.215 191.184 129.178 190.921 129.126L190.873 129.117H190.87L190.81 129.105L190.82 129.216C190.889 130.629 191.333 131.999 192.107 133.183L192.13 133.215C192.139 133.227 192.147 133.239 192.153 133.252C192.481 133.754 192.754 134.29 192.967 134.85C193.508 136.243 193.627 137.763 193.309 139.223C192.95 140.784 193.07 142.418 193.652 143.91C194.234 145.403 195.252 146.685 196.574 147.59C197.734 148.389 199.087 148.864 200.492 148.966C200.684 148.982 200.878 148.992 201.072 148.992C202.184 148.995 203.284 148.766 204.302 148.319L204.339 148.305L204.348 148.263C204.544 147.631 204.819 147.027 205.166 146.464C205.053 146.908 204.995 147.364 204.995 147.822V147.974L205.127 147.898C205.24 147.831 205.356 147.759 205.46 147.692C206.084 147.284 206.65 146.792 207.141 146.23C207.333 146.008 207.527 145.793 207.73 145.578L207.732 145.576C208.128 145.155 208.546 144.743 208.981 144.35C209.905 143.52 210.895 142.764 211.94 142.091C212.984 141.42 214.076 140.826 215.206 140.315H215.209C215.336 140.255 215.465 140.197 215.592 140.141C216.155 139.896 216.697 139.605 217.213 139.272C217.231 139.26 217.248 139.251 217.264 139.239C219.499 137.776 221.142 135.566 221.9 133.004C222.659 130.442 222.484 127.693 221.407 125.248Z" fill="#1A3B5D"/>
<path opacity="0.15" d="M193.69 142.507C193.627 142.788 193.579 143.072 193.547 143.359C193.117 141.998 193.054 140.548 193.366 139.155C193.414 138.942 193.45 138.726 193.479 138.51C193.906 139.799 193.979 141.179 193.69 142.507Z" fill="black"/>
<path opacity="0.15" d="M193.865 132.475C193.18 132.57 192.486 132.573 191.8 132.485C191.621 132.146 191.466 131.795 191.336 131.434C192.1 131.949 192.96 132.304 193.865 132.475Z" fill="black"/>
<path opacity="0.15" d="M191.745 129.163C191.493 129.81 191.325 130.486 191.246 131.176C191.035 130.519 190.91 129.837 190.875 129.148L190.87 129.037L190.979 129.058C191.232 129.106 191.488 129.141 191.745 129.163Z" fill="black"/>
<path opacity="0.15" d="M194.486 122.053C195.417 121.445 196.465 121.039 197.563 120.859C198.66 120.679 199.783 120.73 200.86 121.008C201.544 121.189 202.258 121.224 202.956 121.11C203.653 120.996 204.319 120.736 204.91 120.348L204.994 120.293C205.767 119.788 206.598 119.379 207.471 119.076L207.537 119.053L207.574 119.113C207.918 119.683 208.336 120.206 208.816 120.668C208.525 120.125 208.32 119.539 208.211 118.931L208.195 118.851L208.274 118.83C209.991 118.376 211.79 118.334 213.526 118.708C215.262 119.081 216.885 119.86 218.262 120.981C219.64 122.102 220.733 123.532 221.452 125.156C222.172 126.78 222.498 128.551 222.403 130.324C222.039 128.878 221.392 127.519 220.499 126.325C219.606 125.131 218.485 124.126 217.2 123.369C215.916 122.612 214.495 122.117 213.018 121.913C211.542 121.709 210.039 121.801 208.598 122.182L208.519 122.203L208.535 122.283C208.644 122.89 208.849 123.476 209.14 124.02C208.66 123.558 208.242 123.035 207.898 122.465L207.861 122.404L207.795 122.427C206.922 122.731 206.091 123.139 205.318 123.644L205.234 123.7C204.643 124.088 203.977 124.348 203.28 124.461C202.582 124.575 201.868 124.541 201.184 124.36C199.394 123.895 197.499 124.066 195.821 124.843C194.144 125.62 192.787 126.956 191.983 128.621C191.626 128.449 191.279 128.255 190.945 128.041L190.899 128.012L190.905 127.959C191.02 126.768 191.401 125.619 192.021 124.597C192.641 123.574 193.484 122.705 194.486 122.053Z" fill="black"/>
<path d="M280.428 62.9617L280.209 62.816L280.049 63.0242C278.815 64.5791 277.833 66.3186 277.139 68.179C277.234 66.0358 277.609 63.9142 278.253 61.8678L278.322 61.6528L278.124 61.5395C275.537 60.0742 272.781 58.931 269.917 58.1353L269.605 58.052C267.41 57.4495 265.366 56.3908 263.608 54.9452C261.849 53.4995 260.415 51.6992 259.398 49.6618C257.036 44.9858 253.305 41.1415 248.702 38.642C244.1 36.1425 238.845 35.1067 233.638 35.6726H233.636C233.58 35.6773 233.523 35.6842 233.467 35.6911C233.372 35.7004 233.28 35.712 233.187 35.7235C232.998 35.749 232.813 35.7744 232.628 35.8021C232.471 35.8253 232.311 35.8507 232.154 35.8785C232.071 35.89 231.99 35.9039 231.909 35.9201C231.828 35.934 231.745 35.9478 231.664 35.964H231.662C230.109 36.2577 228.588 36.6952 227.117 37.2707H227.114V37.273L226.742 37.4187C226.358 37.5759 225.978 37.7424 225.6 37.9182C225.515 37.9575 225.431 37.9991 225.346 38.0385C225.323 38.05 225.297 38.0616 225.274 38.0755C225.031 38.1911 224.791 38.3113 224.553 38.4385C224.518 38.4547 224.484 38.4732 224.449 38.4917L224.227 38.6097C223.739 38.8733 223.26 39.1531 222.789 39.4492C222.75 39.4723 222.713 39.4954 222.673 39.5208C222.632 39.5486 222.588 39.5764 222.546 39.6041C222.521 39.618 222.495 39.6365 222.47 39.6527C222.398 39.6966 222.329 39.7429 222.26 39.7914C222.121 39.8816 221.982 39.9741 221.846 40.0689C221.705 40.1638 221.566 40.2632 221.427 40.3626L221.289 40.4621L221.314 40.6332C221.337 40.7743 221.358 40.9154 221.384 41.0541C221.407 41.1929 221.43 41.3293 221.455 41.4658C221.494 41.6947 221.538 41.9214 221.582 42.1411C221.612 42.2868 221.64 42.4301 221.673 42.5712C221.703 42.7169 221.735 42.8626 221.77 43.0083C221.837 43.3089 221.908 43.6003 221.985 43.8871C222.022 44.0305 222.061 44.1739 222.102 44.3149C222.126 44.4005 222.149 44.4861 222.174 44.5693C222.193 44.6271 222.211 44.685 222.23 44.7428C222.234 44.7613 222.239 44.7821 222.246 44.8029C222.251 44.8225 222.257 44.8418 222.264 44.8607C222.29 44.9463 222.315 45.0296 222.341 45.1105C222.354 45.1544 222.368 45.1984 222.385 45.24C222.417 45.3394 222.452 45.4412 222.486 45.5383C222.523 45.6493 222.563 45.7603 222.602 45.869C222.611 45.8968 222.62 45.9222 222.63 45.95C222.637 45.9708 222.643 45.9916 222.653 46.0124C222.662 46.0355 222.671 46.061 222.68 46.0841C222.72 46.1882 222.759 46.2946 222.801 46.3986C222.815 46.4356 222.828 46.4749 222.845 46.5119C223.219 47.4541 223.68 48.3598 224.22 49.2177C223.621 48.7043 223.045 48.1601 222.491 47.585C221.635 46.6958 220.847 45.7443 220.133 44.7382C220.075 44.6595 220.017 44.5786 219.964 44.4976C219.855 44.3427 219.749 44.1877 219.645 44.0305C219.534 43.8686 219.428 43.6998 219.324 43.5333C219.254 43.4223 219.185 43.3089 219.118 43.1979C219.051 43.0916 218.989 42.9875 218.928 42.8811L218.748 42.5712H218.746V42.5735L218.492 42.8233C218.39 42.9227 218.288 43.0222 218.189 43.1216C215.082 46.249 212.831 50.1235 211.653 54.3726L211.619 54.4998L211.584 54.6316C211.517 54.8675 211.45 55.0964 211.378 55.33V55.3323C211.309 55.5636 211.235 55.7948 211.156 56.0215C211.085 56.2366 211.011 56.4493 210.932 56.6621C210.907 56.7338 210.879 56.8055 210.849 56.8772C210.8 57.0159 210.747 57.1524 210.694 57.2911C210.668 57.3536 210.643 57.4183 210.618 57.4808C210.555 57.6334 210.493 57.786 210.43 57.9363C210.421 57.9595 210.41 57.9849 210.398 58.008C210.38 58.0543 210.359 58.1005 210.34 58.1445C210.292 58.2555 210.241 58.3688 210.192 58.4798C210.158 58.5515 210.125 58.6255 210.093 58.6972C210.079 58.7296 210.063 58.762 210.049 58.7943C209.963 58.9793 209.876 59.162 209.783 59.3424C209.679 59.5552 209.573 59.768 209.459 59.9761C209.36 60.1704 209.256 60.36 209.147 60.5496C208.96 60.885 208.764 61.218 208.56 61.5418C208.482 61.6666 208.403 61.7915 208.322 61.9164C208.304 61.9465 208.285 61.9765 208.267 62.0043C208.2 62.113 208.13 62.2171 208.059 62.3234C208.01 62.3951 207.961 62.4668 207.913 62.5362C207.832 62.6611 207.746 62.7813 207.659 62.8993C207.635 62.9363 207.61 62.971 207.585 63.0057C207.455 63.186 207.326 63.3618 207.194 63.5376C207.189 63.5399 207.189 63.5422 207.187 63.5445C207.182 63.5445 207.182 63.5468 207.18 63.5491C207.122 63.6254 207.064 63.7018 207.004 63.7758C206.926 63.8845 206.84 63.9908 206.755 64.0949C206.616 64.2707 206.47 64.4487 206.322 64.6222C206.318 64.6268 206.315 64.6314 206.311 64.6337C205.545 65.5341 204.715 66.378 203.828 67.1591C203.812 67.173 203.8 67.1869 203.784 67.1985C203.659 67.3072 203.534 67.4158 203.405 67.5222C203.352 67.5662 203.299 67.6101 203.245 67.654C203.158 67.7281 203.067 67.8021 202.98 67.8691C202.969 67.8797 202.958 67.8891 202.945 67.8969C202.866 67.9616 202.79 68.0218 202.711 68.0819C202.617 68.1582 202.522 68.2299 202.425 68.3016C201.967 68.6485 201.497 68.9761 201.015 69.2845C200.943 69.333 200.867 69.3816 200.793 69.4278C200.749 69.4556 200.705 69.4833 200.663 69.5065C200.487 69.6152 200.312 69.7215 200.136 69.8233C199.96 69.9274 199.78 70.0268 199.602 70.1239C199.221 70.3321 198.844 70.5495 198.476 70.7761C198.291 70.8917 198.106 71.0074 197.924 71.1253C197.198 71.5971 196.499 72.102 195.827 72.6401C195.155 73.1785 194.511 73.7504 193.897 74.3538C193.82 74.4278 193.744 74.5041 193.668 74.5827C193.515 74.733 193.367 74.8857 193.226 75.0383C193 75.2719 192.782 75.5124 192.567 75.7552C191.434 77.042 190.43 78.438 189.571 79.9226C189.14 80.6639 188.748 81.4273 188.397 82.2098C188.131 82.7949 187.888 83.3938 187.669 83.9997C187.523 84.4044 187.387 84.813 187.26 85.2254C187.197 85.4313 187.137 85.6394 187.079 85.8475C186.883 86.5529 186.719 87.2652 186.584 87.9798C186.476 88.5533 186.388 89.1276 186.321 89.7027C186.286 89.9918 186.259 90.2809 186.233 90.5676C186.174 91.2724 186.143 91.978 186.142 92.6842C186.138 94.8028 186.395 96.9139 186.908 98.9694C187.021 99.4227 187.147 99.8737 187.285 100.322C187.354 100.547 187.428 100.769 187.502 100.991C187.69 101.546 187.897 102.095 188.124 102.64C188.261 102.966 188.404 103.289 188.554 103.611C189.509 105.654 190.728 107.564 192.179 109.291C192.417 109.575 192.663 109.855 192.916 110.13C192.919 110.13 192.916 110.133 192.916 110.133C193.546 110.819 194.212 111.47 194.911 112.084H194.914C195.194 112.332 195.478 112.572 195.767 112.804C195.769 112.801 195.769 112.804 195.769 112.804C196.06 113.039 196.354 113.266 196.655 113.486C196.805 113.595 196.957 113.703 197.112 113.812C197.415 114.027 197.724 114.234 198.039 114.434H198.042C198.356 114.638 198.675 114.832 198.999 115.017C199.648 115.389 200.314 115.738 200.998 116.055L201.114 116.108L201.232 116.055C202.329 115.561 203.46 115.146 204.616 114.813C204.871 114.739 205.127 114.672 205.381 114.607C206.024 114.448 206.671 114.314 207.323 114.205C206.688 114.524 206.075 114.885 205.488 115.285C205.032 115.593 204.584 115.928 204.133 116.298C203.983 116.421 203.833 116.548 203.682 116.677L203.308 117.001L203.777 117.156C203.948 117.211 204.119 117.267 204.29 117.318C204.524 117.392 204.755 117.459 204.982 117.521C205.476 117.66 205.974 117.783 206.475 117.889C206.597 117.915 206.718 117.94 206.84 117.965C207.078 118.012 207.319 118.058 207.559 118.1C207.569 118.102 207.579 118.104 207.589 118.104C207.839 118.146 208.091 118.185 208.341 118.22C208.805 118.287 209.27 118.34 209.735 118.379C209.785 118.386 209.836 118.389 209.889 118.391C210.003 118.4 210.114 118.409 210.227 118.416C210.477 118.433 210.729 118.444 210.981 118.453C210.999 118.453 211.015 118.456 211.034 118.456C211.161 118.46 211.288 118.465 211.415 118.467C211.415 118.467 211.415 118.47 211.418 118.467C211.545 118.47 211.672 118.472 211.799 118.472H212.502C212.633 118.472 212.765 118.474 212.899 118.474C213.084 118.474 213.272 118.476 213.456 118.479C213.505 118.479 213.556 118.481 213.607 118.481C213.903 118.486 214.199 118.493 214.494 118.5C214.513 118.5 214.531 118.502 214.55 118.502C214.846 118.511 215.142 118.52 215.438 118.534C215.502 118.537 215.567 118.539 215.634 118.544C215.919 118.555 216.203 118.569 216.487 118.585C216.568 118.59 216.651 118.597 216.735 118.601C216.95 118.613 217.167 118.627 217.382 118.643C217.509 118.65 217.634 118.659 217.761 118.671C218.274 118.71 218.785 118.754 219.298 118.805C219.469 118.819 219.64 118.837 219.812 118.856C220.269 118.904 220.729 118.958 221.189 119.015C221.395 119.038 221.601 119.066 221.807 119.094C221.83 119.096 221.853 119.099 221.876 119.103C222.13 119.138 222.382 119.173 222.637 119.21C222.803 119.233 222.969 119.258 223.136 119.284C223.307 119.309 223.478 119.334 223.649 119.365C223.742 119.378 223.834 119.395 223.929 119.411C224.151 119.445 224.375 119.482 224.599 119.524C224.619 119.526 224.639 119.529 224.659 119.533C225.136 119.617 225.614 119.704 226.09 119.799C226.37 119.853 226.647 119.908 226.925 119.966C227.142 120.01 227.359 120.056 227.577 120.102C227.614 120.109 227.651 120.118 227.688 120.128C227.696 120.13 227.705 120.132 227.713 120.132C228.041 120.204 228.372 120.278 228.7 120.357C229.84 120.62 230.978 120.913 232.115 121.235C232.376 121.307 232.637 121.383 232.898 121.46C233.009 121.492 233.118 121.525 233.227 121.557C233.453 121.624 233.678 121.691 233.904 121.763C234.103 121.823 234.304 121.885 234.503 121.95C234.628 121.989 234.753 122.029 234.877 122.07C235.072 122.13 235.266 122.193 235.458 122.26C235.622 122.311 235.784 122.364 235.945 122.422C236.177 122.498 236.41 122.577 236.641 122.66C236.708 122.683 236.778 122.706 236.845 122.732C237.127 122.829 237.409 122.928 237.691 123.032C237.966 123.132 238.241 123.234 238.514 123.335C238.703 123.407 238.893 123.476 239.08 123.55C239.291 123.631 239.501 123.712 239.709 123.796C240.009 123.913 240.312 124.034 240.613 124.156C240.89 124.267 241.165 124.381 241.443 124.499C241.494 124.519 241.547 124.54 241.598 124.563C241.838 124.663 242.078 124.767 242.317 124.871C242.471 124.936 242.624 125.003 242.777 125.07C243.442 125.361 244.107 125.663 244.772 125.974H244.774C245.19 126.171 245.613 126.358 246.039 126.536C246.138 126.578 246.237 126.619 246.339 126.659C246.508 126.73 246.679 126.797 246.85 126.867C246.961 126.911 247.072 126.955 247.185 126.996C247.349 127.061 247.516 127.123 247.682 127.184C247.858 127.248 248.031 127.313 248.209 127.373C248.272 127.396 248.334 127.417 248.399 127.44C248.605 127.51 248.81 127.579 249.018 127.646C249.039 127.653 249.06 127.66 249.083 127.667C249.3 127.736 249.518 127.806 249.737 127.87C249.755 127.877 249.773 127.882 249.791 127.887C250.026 127.958 250.267 128.028 250.505 128.095C250.856 128.192 251.21 128.284 251.564 128.37C251.628 128.386 251.693 128.402 251.758 128.416C251.947 128.462 252.135 128.506 252.324 128.548C252.525 128.594 252.729 128.636 252.93 128.678C253.133 128.719 253.337 128.761 253.538 128.798C253.647 128.819 253.755 128.839 253.862 128.858L254.146 128.906C254.342 128.941 254.539 128.971 254.738 129.004C254.743 129.003 254.749 129.004 254.754 129.006C254.978 129.041 255.2 129.073 255.424 129.101C255.639 129.131 255.854 129.156 256.069 129.182C256.113 129.186 256.159 129.191 256.206 129.196C256.384 129.216 256.562 129.237 256.74 129.253C256.791 129.258 256.841 129.263 256.892 129.267C257.068 129.283 257.244 129.3 257.419 129.311C257.455 129.316 257.49 129.318 257.526 129.318C257.683 129.332 257.84 129.344 257.997 129.351C258.108 129.36 258.217 129.364 258.328 129.371C258.386 129.374 258.441 129.376 258.499 129.378C258.652 129.388 258.804 129.392 258.959 129.397C259.146 129.404 259.334 129.408 259.518 129.413C259.743 129.418 259.969 129.42 260.194 129.42H260.198C260.418 129.42 260.64 129.418 260.859 129.413H260.943L261.185 129.406C261.31 129.404 261.435 129.399 261.557 129.394C261.793 129.385 262.027 129.374 262.26 129.36C262.353 129.355 262.448 129.348 262.54 129.344C262.582 129.341 262.626 129.337 262.667 129.334C262.813 129.325 262.956 129.316 263.102 129.304C263.252 129.293 263.405 129.279 263.555 129.263C263.749 129.244 263.943 129.223 264.137 129.202C264.29 129.186 264.443 129.168 264.593 129.149C264.613 129.148 264.633 129.144 264.653 129.14C264.799 129.124 264.944 129.105 265.088 129.085C265.259 129.061 265.427 129.036 265.596 129.011C265.615 129.008 265.631 129.006 265.649 129.004C265.941 128.957 266.234 128.911 266.528 128.858C266.835 128.802 267.143 128.742 267.448 128.68C267.561 128.657 267.672 128.631 267.785 128.608C267.848 128.594 267.913 128.583 267.973 128.569C268.067 128.548 268.16 128.527 268.252 128.504C268.269 128.502 268.287 128.497 268.303 128.495C268.433 128.467 268.56 128.435 268.689 128.402C268.948 128.34 269.203 128.275 269.457 128.206C269.57 128.178 269.683 128.148 269.792 128.118C269.824 128.109 269.857 128.099 269.887 128.09C270.356 127.958 270.822 127.819 271.283 127.672C271.487 127.607 271.688 127.54 271.889 127.468C272.321 127.32 272.75 127.164 273.174 127.001C273.287 126.959 273.401 126.913 273.514 126.869C273.68 126.802 273.847 126.735 274.011 126.668C274.159 126.605 274.307 126.543 274.457 126.478C274.531 126.448 274.605 126.416 274.679 126.383C274.901 126.286 275.123 126.187 275.343 126.087C275.491 126.018 275.636 125.951 275.782 125.882C276.013 125.771 276.242 125.657 276.471 125.544C276.529 125.514 276.584 125.484 276.64 125.456C276.785 125.382 276.931 125.306 277.079 125.232C277.312 125.107 277.546 124.982 277.777 124.852C277.855 124.811 277.932 124.767 278.01 124.723C278.265 124.58 278.517 124.434 278.766 124.286C279.319 123.955 279.864 123.61 280.401 123.25C280.535 123.162 280.669 123.069 280.801 122.979C281.05 122.808 281.295 122.632 281.54 122.457C281.566 122.438 281.589 122.42 281.614 122.403C281.737 122.313 281.859 122.223 281.982 122.13C282.236 121.939 282.488 121.744 282.74 121.545C282.745 121.543 282.752 121.536 282.759 121.532C282.872 121.441 282.985 121.351 283.096 121.261C283.441 120.981 283.781 120.697 284.113 120.403C284.278 120.262 284.439 120.116 284.599 119.97C284.719 119.862 284.839 119.753 284.957 119.642C285.195 119.418 285.429 119.196 285.66 118.969C285.776 118.858 285.889 118.742 286.004 118.627C286.118 118.511 286.233 118.396 286.347 118.278C286.386 118.238 286.425 118.197 286.465 118.155C286.58 118.032 286.696 117.908 286.811 117.785C286.911 117.679 287.008 117.568 287.107 117.457C287.274 117.272 287.442 117.087 287.607 116.899C287.615 116.889 287.624 116.879 287.634 116.869C287.643 116.858 287.653 116.848 287.66 116.839H287.657C291.018 112.952 293.514 108.395 294.982 103.47C296.45 98.5457 296.856 93.3652 296.173 88.2718C295.489 83.1784 293.732 78.2883 291.018 73.925C288.304 69.5618 284.694 65.8249 280.428 62.9617Z" fill="#1A3B5D"/>
<g opacity="0.15">
<path d="M233.636 35.6708C234.097 37.3267 234.791 38.9089 235.696 40.3701C234.18 39.068 232.827 37.589 231.663 35.9647C232.317 35.841 232.974 35.7431 233.636 35.6708Z" fill="black"/>
<path d="M211.079 61.2802C209.368 62.2144 207.768 63.3393 206.31 64.6336C208.772 61.7215 210.571 58.3086 211.583 54.6316C211.595 54.5874 211.607 54.5429 211.619 54.4987L211.654 54.3735C212.87 49.985 215.229 45.9983 218.491 42.8211L218.747 42.5712L218.928 42.8801C219.928 44.5807 221.124 46.1577 222.492 47.5785C220.396 53.4975 216.315 58.4237 211.079 61.2802Z" fill="black"/>
<path d="M223.13 45.5277L223.095 45.6529C223.083 45.6971 223.071 45.7416 223.059 45.7858C222.991 46.0291 222.919 46.2706 222.845 46.5111C222.114 44.6162 221.6 42.6443 221.314 40.6333L221.288 40.4626L221.428 40.3624C223.187 39.0978 225.098 38.0588 227.115 37.2696C225.304 39.7618 223.954 42.5588 223.13 45.5277Z" fill="black"/>
<path d="M199.603 70.1261C201.117 69.2969 202.534 68.3017 203.828 67.1588C201.243 70.1695 199.39 73.7382 198.415 77.5851C197.439 81.432 197.367 85.4527 198.204 89.3321C199.042 93.2115 200.766 96.8443 203.241 99.9457C205.717 103.047 208.877 105.533 212.473 107.208L212.59 107.262L212.707 107.21C214.649 106.332 216.697 105.709 218.8 105.359C217.488 106.027 216.264 106.858 215.159 107.832L214.785 108.155L215.254 108.31C215.659 108.444 216.064 108.567 216.458 108.677C218.771 109.321 221.163 109.641 223.565 109.628C234.477 109.558 245.473 112.082 256.249 117.129C258.097 117.993 260.014 118.702 261.98 119.247C270.546 121.633 279.691 120.775 287.664 116.837C283.169 122.038 277.291 125.856 270.713 127.848C264.135 129.841 257.128 129.926 250.504 128.093C248.538 127.547 246.621 126.839 244.773 125.975C233.998 120.928 223.001 118.404 212.089 118.474C209.687 118.487 207.296 118.167 204.982 117.522C204.588 117.413 204.183 117.29 203.778 117.156L203.309 117.001L203.683 116.677C204.788 115.704 206.012 114.873 207.324 114.204C205.222 114.555 203.173 115.178 201.231 116.055L201.114 116.108L200.997 116.054C196.678 114.043 193.003 110.871 190.381 106.892C187.76 102.913 186.295 98.2835 186.15 93.52C186.005 88.7566 187.187 84.0467 189.562 79.9158C191.938 75.7849 195.414 72.3956 199.603 70.1261Z" fill="black"/>
</g>
</g>
<defs>
<clipPath id="clip0_220_790">
<rect width="218" height="184" fill="white" transform="translate(78.5 20.4)"/>
</clipPath>
</defs>
</svg>
