<svg width="21" height="20" viewBox="0 0 21 20" fill="none" xmlns="http://www.w3.org/2000/svg">
<path d="M17.1922 7.94218L10.9422 14.1922C10.8842 14.2503 10.8152 14.2964 10.7393 14.3278C10.6635 14.3593 10.5821 14.3755 10.5 14.3755C10.4179 14.3755 10.3365 14.3593 10.2607 14.3278C10.1848 14.2964 10.1159 14.2503 10.0578 14.1922L3.80782 7.94218C3.69055 7.82491 3.62466 7.66585 3.62466 7.5C3.62466 7.33414 3.69055 7.17508 3.80782 7.05781C3.9251 6.94053 4.08416 6.87465 4.25001 6.87465C4.41586 6.87465 4.57492 6.94053 4.6922 7.05781L10.5 12.8664L16.3078 7.05781C16.3659 6.99974 16.4348 6.95368 16.5107 6.92225C16.5866 6.89082 16.6679 6.87465 16.75 6.87465C16.8321 6.87465 16.9135 6.89082 16.9893 6.92225C17.0652 6.95368 17.1341 6.99974 17.1922 7.05781C17.2503 7.11588 17.2963 7.18482 17.3278 7.26069C17.3592 7.33656 17.3754 7.41787 17.3754 7.5C17.3754 7.58212 17.3592 7.66344 17.3278 7.73931C17.2963 7.81518 17.2503 7.88412 17.1922 7.94218Z" fill="#777777"/>
</svg>
