<svg width="21" height="20" viewBox="0 0 21 20" fill="none" xmlns="http://www.w3.org/2000/svg">
<g opacity="0.2">
<path d="M4.71249 2.70469C4.65761 2.64282 4.59099 2.59246 4.51649 2.55653C4.442 2.5206 4.36111 2.49981 4.27853 2.49536C4.19594 2.49092 4.11329 2.50291 4.03537 2.53065C3.95746 2.55838 3.88582 2.6013 3.82461 2.65693C3.7634 2.71255 3.71384 2.77977 3.67881 2.85469C3.64377 2.92961 3.62395 3.01074 3.6205 3.09337C3.61704 3.17601 3.63003 3.2585 3.65869 3.33608C3.68736 3.41366 3.73114 3.48478 3.78749 3.54532L5.29062 5.19923C2.45312 6.94063 1.23281 9.62501 1.1789 9.74688C1.14336 9.82681 1.125 9.91331 1.125 10.0008C1.125 10.0883 1.14336 10.1748 1.1789 10.2547C1.20624 10.3164 1.86796 11.7836 3.33905 13.2547C5.29921 15.2141 7.77499 16.25 10.5 16.25C11.9005 16.258 13.2868 15.9696 14.568 15.4039L16.2867 17.2953C16.3416 17.3572 16.4082 17.4076 16.4827 17.4435C16.5572 17.4794 16.6381 17.5002 16.7207 17.5047C16.8033 17.5091 16.8859 17.4971 16.9638 17.4694C17.0417 17.4416 17.1134 17.3987 17.1746 17.3431C17.2358 17.2875 17.2854 17.2202 17.3204 17.1453C17.3554 17.0704 17.3753 16.9893 17.3787 16.9066C17.3822 16.824 17.3692 16.7415 17.3405 16.6639C17.3118 16.5864 17.2681 16.5152 17.2117 16.4547L4.71249 2.70469ZM8.41015 8.62969L11.6656 12.2117C11.1754 12.4696 10.6134 12.5574 10.0678 12.4613C9.52229 12.3652 9.02413 12.0906 8.65157 11.6806C8.27901 11.2707 8.05314 10.7486 8.00945 10.1964C7.96575 9.64421 8.1067 9.09312 8.41015 8.62969ZM10.5 15C8.0953 15 5.99452 14.1258 4.25546 12.4024C3.54164 11.693 2.93454 10.8837 2.45312 10C2.81952 9.31329 3.98905 7.39141 6.15234 6.14219L7.55859 7.68516C7.01416 8.38243 6.73377 9.24972 6.76697 10.1337C6.80017 11.0177 7.14483 11.8616 7.74002 12.516C8.33521 13.1705 9.14261 13.5935 10.0195 13.7102C10.8964 13.8269 11.7864 13.6299 12.532 13.1539L13.6828 14.4195C12.6672 14.8092 11.5878 15.006 10.5 15ZM10.9687 7.54454C10.8059 7.51346 10.662 7.41896 10.5689 7.28182C10.4757 7.14468 10.4408 6.97615 10.4719 6.81329C10.5029 6.65043 10.5975 6.50659 10.7346 6.4134C10.8717 6.32022 11.0403 6.28533 11.2031 6.31641C11.9997 6.47084 12.725 6.87864 13.2708 7.47898C13.8167 8.07932 14.1539 8.84004 14.232 9.64766C14.2475 9.8127 14.1967 9.9771 14.0909 10.1047C13.9851 10.2323 13.833 10.3127 13.668 10.3281C13.6484 10.3293 13.6289 10.3293 13.6094 10.3281C13.4532 10.3288 13.3024 10.2709 13.1867 10.166C13.071 10.061 12.9988 9.91649 12.9844 9.76094C12.9318 9.22375 12.7072 8.71788 12.344 8.31856C11.9809 7.91923 11.4985 7.64777 10.9687 7.54454ZM19.8187 10.2547C19.7859 10.3281 18.9945 12.0805 17.2125 13.6766C17.1516 13.7328 17.0801 13.7764 17.0022 13.8048C16.9243 13.8332 16.8415 13.8458 16.7587 13.8419C16.6759 13.8379 16.5947 13.8176 16.5198 13.782C16.4449 13.7464 16.3779 13.6962 16.3226 13.6344C16.2673 13.5726 16.2249 13.5005 16.1977 13.4221C16.1706 13.3438 16.1593 13.2608 16.1645 13.1781C16.1698 13.0953 16.1914 13.0145 16.2282 12.9402C16.265 12.8659 16.3162 12.7996 16.3789 12.7453C17.2532 11.9599 17.9876 11.0315 18.5508 10C18.0683 9.11546 17.4599 8.3057 16.7445 7.5961C15.0055 5.87423 12.9047 5.00001 10.5 5.00001C9.99332 4.99939 9.48745 5.04041 8.98749 5.12266C8.90619 5.13704 8.82284 5.13517 8.74227 5.11715C8.6617 5.09914 8.58549 5.06533 8.51805 5.0177C8.45062 4.97006 8.39329 4.90954 8.34938 4.83962C8.30547 4.7697 8.27584 4.69177 8.26222 4.61034C8.2486 4.52891 8.25124 4.44559 8.27 4.36518C8.28877 4.28478 8.32327 4.20889 8.37153 4.1419C8.41979 4.07491 8.48085 4.01814 8.55117 3.97488C8.62149 3.93162 8.69969 3.90272 8.78124 3.88985C9.34934 3.79605 9.9242 3.74928 10.5 3.75001C13.225 3.75001 15.7008 4.78594 17.6609 6.7461C19.132 8.21719 19.7937 9.68516 19.8211 9.74688C19.8566 9.82681 19.875 9.91331 19.875 10.0008C19.875 10.0883 19.8566 10.1748 19.8211 10.2547H19.8187Z" fill="#1A3B5D"/>
</g>
</svg>
